<?xml version="1.0" encoding="utf-8" standalone="no"?>
<!DOCTYPE svg PUBLIC "-//W3C//DTD SVG 1.1//EN"
  "http://www.w3.org/Graphics/SVG/1.1/DTD/svg11.dtd">
<!-- Created with matplotlib (http://matplotlib.org/) -->
<svg height="442pt" version="1.1" viewBox="0 0 586 442" width="586pt" xmlns="http://www.w3.org/2000/svg" xmlns:xlink="http://www.w3.org/1999/xlink">
 <defs>
  <style type="text/css">
*{stroke-linecap:butt;stroke-linejoin:round;}
  </style>
 </defs>
 <g id="figure_1">
  <g id="patch_1">
   <path d="
M0 442.8
L586.8 442.8
L586.8 0
L0 0
z
" style="fill:#ffffff;"/>
  </g>
  <g id="axes_1">
   <g id="patch_2">
    <path d="
M73.35 398.52
L528.12 398.52
L528.12 44.28
L73.35 44.28
z
" style="fill:#ffffff;"/>
   </g>
   <g id="PathCollection_1">
    <path clip-path="url(#p9061672a36)" d="
M214.02 216.633
C217.601 216.633 221.035 215.21 223.566 212.679
C226.098 210.147 227.52 206.713 227.52 203.133
C227.52 199.552 226.098 196.118 223.566 193.587
C221.035 191.055 217.601 189.633 214.02 189.633
C210.44 189.633 207.006 191.055 204.474 193.587
C201.943 196.118 200.52 199.552 200.52 203.133
C200.52 206.713 201.943 210.147 204.474 212.679
C207.006 215.21 210.44 216.633 214.02 216.633
z
" style="fill:#00b4ff;stroke:#000000;"/>
    <path clip-path="url(#p9061672a36)" d="
M280.785 236.16
C285.956 236.16 290.917 234.106 294.573 230.449
C298.23 226.792 300.285 221.832 300.285 216.66
C300.285 211.489 298.23 206.529 294.573 202.872
C290.917 199.215 285.956 197.16 280.785 197.16
C275.613 197.16 270.653 199.215 266.996 202.872
C263.339 206.529 261.285 211.489 261.285 216.66
C261.285 221.832 263.339 226.792 266.996 230.449
C270.653 234.106 275.613 236.16 280.785 236.16
z
" style="fill:#ebff0c;stroke:#000000;"/>
    <path clip-path="url(#p9061672a36)" d="
M383.771 127.79
C386.158 127.79 388.447 126.842 390.135 125.154
C391.822 123.466 392.771 121.177 392.771 118.79
C392.771 116.403 391.822 114.114 390.135 112.426
C388.447 110.738 386.158 109.79 383.771 109.79
C381.384 109.79 379.095 110.738 377.407 112.426
C375.719 114.114 374.771 116.403 374.771 118.79
C374.771 121.177 375.719 123.466 377.407 125.154
C379.095 126.842 381.384 127.79 383.771 127.79
z
" style="fill:#0008ff;stroke:#000000;"/>
    <path clip-path="url(#p9061672a36)" d="
M388.735 187.505
C394.304 187.505 399.646 185.292 403.584 181.354
C407.522 177.416 409.735 172.074 409.735 166.505
C409.735 160.936 407.522 155.594 403.584 151.656
C399.646 147.718 394.304 145.505 388.735 145.505
C383.166 145.505 377.824 147.718 373.886 151.656
C369.948 155.594 367.735 160.936 367.735 166.505
C367.735 172.074 369.948 177.416 373.886 181.354
C377.824 185.292 383.166 187.505 388.735 187.505
z
" style="fill:#ffa300;stroke:#000000;"/>
    <path clip-path="url(#p9061672a36)" d="
M300.781 352.565
C304.627 352.565 308.315 351.037 311.034 348.318
C313.754 345.599 315.281 341.911 315.281 338.065
C315.281 334.22 313.754 330.531 311.034 327.812
C308.315 325.093 304.627 323.565 300.781 323.565
C296.936 323.565 293.247 325.093 290.528 327.812
C287.809 330.531 286.281 334.22 286.281 338.065
C286.281 341.911 287.809 345.599 290.528 348.318
C293.247 351.037 296.936 352.565 300.781 352.565
z
" style="fill:#00e4f8;stroke:#000000;"/>
    <path clip-path="url(#p9061672a36)" d="
M164.173 302.231
C169.08 302.231 173.786 300.282 177.255 296.813
C180.724 293.343 182.673 288.637 182.673 283.731
C182.673 278.825 180.724 274.119 177.255 270.65
C173.786 267.18 169.08 265.231 164.173 265.231
C159.267 265.231 154.561 267.18 151.092 270.65
C147.623 274.119 145.673 278.825 145.673 283.731
C145.673 288.637 147.623 293.343 151.092 296.813
C154.561 300.282 159.267 302.231 164.173 302.231
z
" style="fill:#b4ff43;stroke:#000000;"/>
    <path clip-path="url(#p9061672a36)" d="
M176.767 105.519
C182.999 105.519 188.977 103.042 193.384 98.6356
C197.791 94.2287 200.267 88.2508 200.267 82.0186
C200.267 75.7863 197.791 69.8084 193.384 65.4015
C188.977 60.9947 182.999 58.5186 176.767 58.5186
C170.535 58.5186 164.557 60.9947 160.15 65.4015
C155.743 69.8084 153.267 75.7863 153.267 82.0186
C153.267 88.2508 155.743 94.2287 160.15 98.6356
C164.557 103.042 170.535 105.519 176.767 105.519
z
" style="fill:#da0000;stroke:#000000;"/>
    <path clip-path="url(#p9061672a36)" d="
M223.189 339.991
C225.974 339.991 228.645 338.885 230.614 336.916
C232.583 334.947 233.689 332.276 233.689 329.491
C233.689 326.707 232.583 324.036 230.614 322.067
C228.645 320.098 225.974 318.991 223.189 318.991
C220.404 318.991 217.734 320.098 215.765 322.067
C213.795 324.036 212.689 326.707 212.689 329.491
C212.689 332.276 213.795 334.947 215.765 336.916
C217.734 338.885 220.404 339.991 223.189 339.991
z
" style="fill:#0038ff;stroke:#000000;"/>
    <path clip-path="url(#p9061672a36)" d="
M451.736 88.562
C451.868 88.562 451.995 88.5093 452.089 88.4155
C452.183 88.3218 452.236 88.1946 452.236 88.062
C452.236 87.9294 452.183 87.8022 452.089 87.7084
C451.995 87.6146 451.868 87.562 451.736 87.562
C451.603 87.562 451.476 87.6146 451.382 87.7084
C451.288 87.8022 451.236 87.9294 451.236 88.062
C451.236 88.1946 451.288 88.3218 451.382 88.4155
C451.476 88.5093 451.603 88.562 451.736 88.562
z
" style="fill:#000080;stroke:#000000;"/>
    <path clip-path="url(#p9061672a36)" d="
M153.663 144.168
C154.193 144.168 154.702 143.957 155.077 143.582
C155.452 143.207 155.663 142.698 155.663 142.168
C155.663 141.637 155.452 141.128 155.077 140.753
C154.702 140.378 154.193 140.168 153.663 140.168
C153.132 140.168 152.624 140.378 152.248 140.753
C151.873 141.128 151.663 141.637 151.663 142.168
C151.663 142.698 151.873 143.207 152.248 143.582
C152.624 143.957 153.132 144.168 153.663 144.168
z
" style="fill:#000084;stroke:#000000;"/>
    <path clip-path="url(#p9061672a36)" d="
M410.668 361.063
C413.188 361.063 415.604 360.062 417.386 358.28
C419.167 356.499 420.168 354.082 420.168 351.563
C420.168 349.043 419.167 346.627 417.386 344.845
C415.604 343.064 413.188 342.063 410.668 342.063
C408.149 342.063 405.732 343.064 403.951 344.845
C402.169 346.627 401.168 349.043 401.168 351.563
C401.168 354.082 402.169 356.499 403.951 358.28
C405.732 360.062 408.149 361.063 410.668 361.063
z
" style="fill:#0018ff;stroke:#000000;"/>
    <path clip-path="url(#p9061672a36)" d="
M304.867 173.894
C308.58 173.894 312.141 172.419 314.766 169.793
C317.392 167.168 318.867 163.607 318.867 159.894
C318.867 156.181 317.392 152.62 314.766 149.994
C312.141 147.369 308.58 145.894 304.867 145.894
C301.154 145.894 297.593 147.369 294.967 149.994
C292.342 152.62 290.867 156.181 290.867 159.894
C290.867 163.607 292.342 167.168 294.967 169.793
C297.593 172.419 301.154 173.894 304.867 173.894
z
" style="fill:#00ccff;stroke:#000000;"/>
    <path clip-path="url(#p9061672a36)" d="
M195.376 197.683
C200.282 197.683 204.988 195.734 208.457 192.265
C211.927 188.795 213.876 184.089 213.876 179.183
C213.876 174.277 211.927 169.571 208.457 166.102
C204.988 162.632 200.282 160.683 195.376 160.683
C190.47 160.683 185.764 162.632 182.294 166.102
C178.825 169.571 176.876 174.277 176.876 179.183
C176.876 184.089 178.825 188.795 182.294 192.265
C185.764 195.734 190.47 197.683 195.376 197.683
z
" style="fill:#b4ff43;stroke:#000000;"/>
    <path clip-path="url(#p9061672a36)" d="
M295.235 356.691
C301.202 356.691 306.925 354.32 311.145 350.1
C315.364 345.881 317.735 340.158 317.735 334.191
C317.735 328.223 315.364 322.5 311.145 318.281
C306.925 314.061 301.202 311.691 295.235 311.691
C289.268 311.691 283.544 314.061 279.325 318.281
C275.105 322.5 272.735 328.223 272.735 334.191
C272.735 340.158 275.105 345.881 279.325 350.1
C283.544 354.32 289.268 356.691 295.235 356.691
z
" style="fill:#ff3f00;stroke:#000000;"/>
    <path clip-path="url(#p9061672a36)" d="
M418.902 364.095
C422.217 364.095 425.397 362.778 427.741 360.434
C430.085 358.089 431.402 354.91 431.402 351.595
C431.402 348.28 430.085 345.1 427.741 342.756
C425.397 340.412 422.217 339.095 418.902 339.095
C415.587 339.095 412.407 340.412 410.063 342.756
C407.719 345.1 406.402 348.28 406.402 351.595
C406.402 354.91 407.719 358.089 410.063 360.434
C412.407 362.778 415.587 364.095 418.902 364.095
z
" style="fill:#0088ff;stroke:#000000;"/>
    <path clip-path="url(#p9061672a36)" d="
M436.505 201.157
C441.942 201.157 447.156 198.997 451.001 195.153
C454.845 191.308 457.005 186.094 457.005 180.657
C457.005 175.22 454.845 170.006 451.001 166.161
C447.156 162.317 441.942 160.157 436.505 160.157
C431.068 160.157 425.854 162.317 422.009 166.161
C418.165 170.006 416.005 175.22 416.005 180.657
C416.005 186.094 418.165 191.308 422.009 195.153
C425.854 198.997 431.068 201.157 436.505 201.157
z
" style="fill:#ffc400;stroke:#000000;"/>
    <path clip-path="url(#p9061672a36)" d="
M226.671 169.239
C233.169 169.239 239.401 166.657 243.995 162.063
C248.59 157.468 251.171 151.236 251.171 144.739
C251.171 138.241 248.59 132.009 243.995 127.415
C239.401 122.82 233.169 120.239 226.671 120.239
C220.174 120.239 213.942 122.82 209.347 127.415
C204.753 132.009 202.171 138.241 202.171 144.739
C202.171 151.236 204.753 157.468 209.347 162.063
C213.942 166.657 220.174 169.239 226.671 169.239
z
" style="fill:#800000;stroke:#000000;"/>
    <path clip-path="url(#p9061672a36)" d="
M194.716 182.895
C196.175 182.895 197.574 182.315 198.605 181.284
C199.637 180.253 200.216 178.854 200.216 177.395
C200.216 175.936 199.637 174.537 198.605 173.506
C197.574 172.474 196.175 171.895 194.716 171.895
C193.258 171.895 191.859 172.474 190.827 173.506
C189.796 174.537 189.216 175.936 189.216 177.395
C189.216 178.854 189.796 180.253 190.827 181.284
C191.859 182.315 193.258 182.895 194.716 182.895
z
" style="fill:#0000b6;stroke:#000000;"/>
    <path clip-path="url(#p9061672a36)" d="
M185.011 265.547
C190.58 265.547 195.922 263.334 199.86 259.396
C203.798 255.458 206.011 250.116 206.011 244.547
C206.011 238.977 203.798 233.635 199.86 229.697
C195.922 225.759 190.58 223.547 185.011 223.547
C179.442 223.547 174.1 225.759 170.162 229.697
C166.224 233.635 164.011 238.977 164.011 244.547
C164.011 250.116 166.224 255.458 170.162 259.396
C174.1 263.334 179.442 265.547 185.011 265.547
z
" style="fill:#ffa300;stroke:#000000;"/>
    <path clip-path="url(#p9061672a36)" d="
M428.581 286.006
C433.354 286.006 437.933 284.11 441.309 280.734
C444.684 277.359 446.581 272.78 446.581 268.006
C446.581 263.233 444.684 258.654 441.309 255.278
C437.933 251.903 433.354 250.006 428.581 250.006
C423.807 250.006 419.228 251.903 415.853 255.278
C412.477 258.654 410.581 263.233 410.581 268.006
C410.581 272.78 412.477 277.359 415.853 280.734
C419.228 284.11 423.807 286.006 428.581 286.006
z
" style="fill:#9dff5a;stroke:#000000;"/>
   </g>
   <g id="patch_3">
    <path d="
M73.35 44.28
L528.12 44.28" style="fill:none;stroke:#000000;stroke-linecap:square;stroke-linejoin:miter;"/>
   </g>
   <g id="patch_4">
    <path d="
M528.12 398.52
L528.12 44.28" style="fill:none;stroke:#000000;stroke-linecap:square;stroke-linejoin:miter;"/>
   </g>
   <g id="patch_5">
    <path d="
M73.35 398.52
L528.12 398.52" style="fill:none;stroke:#000000;stroke-linecap:square;stroke-linejoin:miter;"/>
   </g>
   <g id="patch_6">
    <path d="
M73.35 398.52
L73.35 44.28" style="fill:none;stroke:#000000;stroke-linecap:square;stroke-linejoin:miter;"/>
   </g>
   <g id="matplotlib.axis_1">
    <g id="xtick_1">
     <g id="line2d_1">
      <defs>
       <path d="
M0 0
L0 -4" id="m93b0483c22" style="stroke:#000000;stroke-width:0.5;"/>
      </defs>
      <g>
       <use style="stroke:#000000;stroke-width:0.5;" x="73.35" xlink:href="#m93b0483c22" y="398.52"/>
      </g>
     </g>
     <g id="line2d_2">
      <defs>
       <path d="
M0 0
L0 4" id="m741efc42ff" style="stroke:#000000;stroke-width:0.5;"/>
      </defs>
      <g>
       <use style="stroke:#000000;stroke-width:0.5;" x="73.35" xlink:href="#m741efc42ff" y="44.28"/>
      </g>
     </g>
     <g id="text_1">
      <!-- 0 -->
      <defs>
       <path d="
M31.7812 66.4062
Q24.1719 66.4062 20.3281 58.9062
Q16.5 51.4219 16.5 36.375
Q16.5 21.3906 20.3281 13.8906
Q24.1719 6.39062 31.7812 6.39062
Q39.4531 6.39062 43.2812 13.8906
Q47.125 21.3906 47.125 36.375
Q47.125 51.4219 43.2812 58.9062
Q39.4531 66.4062 31.7812 66.4062
M31.7812 74.2188
Q44.0469 74.2188 50.5156 64.5156
Q56.9844 54.8281 56.9844 36.375
Q56.9844 17.9688 50.5156 8.26562
Q44.0469 -1.42188 31.7812 -1.42188
Q19.5312 -1.42188 13.0625 8.26562
Q6.59375 17.9688 6.59375 36.375
Q6.59375 54.8281 13.0625 64.5156
Q19.5312 74.2188 31.7812 74.2188" id="BitstreamVeraSans-Roman-30"/>
      </defs>
      <g transform="translate(70.3265625 411.638125)scale(0.12 -0.12)">
       <use xlink:href="#BitstreamVeraSans-Roman-30"/>
      </g>
     </g>
    </g>
    <g id="xtick_2">
     <g id="line2d_3">
      <g>
       <use style="stroke:#000000;stroke-width:0.5;" x="149.145" xlink:href="#m93b0483c22" y="398.52"/>
      </g>
     </g>
     <g id="line2d_4">
      <g>
       <use style="stroke:#000000;stroke-width:0.5;" x="149.145" xlink:href="#m741efc42ff" y="44.28"/>
      </g>
     </g>
     <g id="text_2">
      <!-- 1 -->
      <defs>
       <path d="
M12.4062 8.29688
L28.5156 8.29688
L28.5156 63.9219
L10.9844 60.4062
L10.9844 69.3906
L28.4219 72.9062
L38.2812 72.9062
L38.2812 8.29688
L54.3906 8.29688
L54.3906 0
L12.4062 0
z
" id="BitstreamVeraSans-Roman-31"/>
      </defs>
      <g transform="translate(146.540625 411.638125)scale(0.12 -0.12)">
       <use xlink:href="#BitstreamVeraSans-Roman-31"/>
      </g>
     </g>
    </g>
    <g id="xtick_3">
     <g id="line2d_5">
      <g>
       <use style="stroke:#000000;stroke-width:0.5;" x="224.94" xlink:href="#m93b0483c22" y="398.52"/>
      </g>
     </g>
     <g id="line2d_6">
      <g>
       <use style="stroke:#000000;stroke-width:0.5;" x="224.94" xlink:href="#m741efc42ff" y="44.28"/>
      </g>
     </g>
     <g id="text_3">
      <!-- 2 -->
      <defs>
       <path d="
M19.1875 8.29688
L53.6094 8.29688
L53.6094 0
L7.32812 0
L7.32812 8.29688
Q12.9375 14.1094 22.625 23.8906
Q32.3281 33.6875 34.8125 36.5312
Q39.5469 41.8438 41.4219 45.5312
Q43.3125 49.2188 43.3125 52.7812
Q43.3125 58.5938 39.2344 62.25
Q35.1562 65.9219 28.6094 65.9219
Q23.9688 65.9219 18.8125 64.3125
Q13.6719 62.7031 7.8125 59.4219
L7.8125 69.3906
Q13.7656 71.7812 18.9375 73
Q24.125 74.2188 28.4219 74.2188
Q39.75 74.2188 46.4844 68.5469
Q53.2188 62.8906 53.2188 53.4219
Q53.2188 48.9219 51.5312 44.8906
Q49.8594 40.875 45.4062 35.4062
Q44.1875 33.9844 37.6406 27.2188
Q31.1094 20.4531 19.1875 8.29688" id="BitstreamVeraSans-Roman-32"/>
      </defs>
      <g transform="translate(222.163125 411.638125)scale(0.12 -0.12)">
       <use xlink:href="#BitstreamVeraSans-Roman-32"/>
      </g>
     </g>
    </g>
    <g id="xtick_4">
     <g id="line2d_7">
      <g>
       <use style="stroke:#000000;stroke-width:0.5;" x="300.735" xlink:href="#m93b0483c22" y="398.52"/>
      </g>
     </g>
     <g id="line2d_8">
      <g>
       <use style="stroke:#000000;stroke-width:0.5;" x="300.735" xlink:href="#m741efc42ff" y="44.28"/>
      </g>
     </g>
     <g id="text_4">
      <!-- 3 -->
      <defs>
       <path d="
M40.5781 39.3125
Q47.6562 37.7969 51.625 33
Q55.6094 28.2188 55.6094 21.1875
Q55.6094 10.4062 48.1875 4.48438
Q40.7656 -1.42188 27.0938 -1.42188
Q22.5156 -1.42188 17.6562 -0.515625
Q12.7969 0.390625 7.625 2.20312
L7.625 11.7188
Q11.7188 9.32812 16.5938 8.10938
Q21.4844 6.89062 26.8125 6.89062
Q36.0781 6.89062 40.9375 10.5469
Q45.7969 14.2031 45.7969 21.1875
Q45.7969 27.6406 41.2812 31.2656
Q36.7656 34.9062 28.7188 34.9062
L20.2188 34.9062
L20.2188 43.0156
L29.1094 43.0156
Q36.375 43.0156 40.2344 45.9219
Q44.0938 48.8281 44.0938 54.2969
Q44.0938 59.9062 40.1094 62.9062
Q36.1406 65.9219 28.7188 65.9219
Q24.6562 65.9219 20.0156 65.0312
Q15.375 64.1562 9.8125 62.3125
L9.8125 71.0938
Q15.4375 72.6562 20.3438 73.4375
Q25.25 74.2188 29.5938 74.2188
Q40.8281 74.2188 47.3594 69.1094
Q53.9062 64.0156 53.9062 55.3281
Q53.9062 49.2656 50.4375 45.0938
Q46.9688 40.9219 40.5781 39.3125" id="BitstreamVeraSans-Roman-33"/>
      </defs>
      <g transform="translate(297.8559375 411.638125)scale(0.12 -0.12)">
       <use xlink:href="#BitstreamVeraSans-Roman-33"/>
      </g>
     </g>
    </g>
    <g id="xtick_5">
     <g id="line2d_9">
      <g>
       <use style="stroke:#000000;stroke-width:0.5;" x="376.53" xlink:href="#m93b0483c22" y="398.52"/>
      </g>
     </g>
     <g id="line2d_10">
      <g>
       <use style="stroke:#000000;stroke-width:0.5;" x="376.53" xlink:href="#m741efc42ff" y="44.28"/>
      </g>
     </g>
     <g id="text_5">
      <!-- 4 -->
      <defs>
       <path d="
M37.7969 64.3125
L12.8906 25.3906
L37.7969 25.3906
z

M35.2031 72.9062
L47.6094 72.9062
L47.6094 25.3906
L58.0156 25.3906
L58.0156 17.1875
L47.6094 17.1875
L47.6094 0
L37.7969 0
L37.7969 17.1875
L4.89062 17.1875
L4.89062 26.7031
z
" id="BitstreamVeraSans-Roman-34"/>
      </defs>
      <g transform="translate(373.3425 411.638125)scale(0.12 -0.12)">
       <use xlink:href="#BitstreamVeraSans-Roman-34"/>
      </g>
     </g>
    </g>
    <g id="xtick_6">
     <g id="line2d_11">
      <g>
       <use style="stroke:#000000;stroke-width:0.5;" x="452.325" xlink:href="#m93b0483c22" y="398.52"/>
      </g>
     </g>
     <g id="line2d_12">
      <g>
       <use style="stroke:#000000;stroke-width:0.5;" x="452.325" xlink:href="#m741efc42ff" y="44.28"/>
      </g>
     </g>
     <g id="text_6">
      <!-- 5 -->
      <defs>
       <path d="
M10.7969 72.9062
L49.5156 72.9062
L49.5156 64.5938
L19.8281 64.5938
L19.8281 46.7344
Q21.9688 47.4688 24.1094 47.8281
Q26.2656 48.1875 28.4219 48.1875
Q40.625 48.1875 47.75 41.5
Q54.8906 34.8125 54.8906 23.3906
Q54.8906 11.625 47.5625 5.09375
Q40.2344 -1.42188 26.9062 -1.42188
Q22.3125 -1.42188 17.5469 -0.640625
Q12.7969 0.140625 7.71875 1.70312
L7.71875 11.625
Q12.1094 9.23438 16.7969 8.0625
Q21.4844 6.89062 26.7031 6.89062
Q35.1562 6.89062 40.0781 11.3281
Q45.0156 15.7656 45.0156 23.3906
Q45.0156 31 40.0781 35.4375
Q35.1562 39.8906 26.7031 39.8906
Q22.75 39.8906 18.8125 39.0156
Q14.8906 38.1406 10.7969 36.2812
z
" id="BitstreamVeraSans-Roman-35"/>
      </defs>
      <g transform="translate(449.4946875 411.638125)scale(0.12 -0.12)">
       <use xlink:href="#BitstreamVeraSans-Roman-35"/>
      </g>
     </g>
    </g>
    <g id="xtick_7">
     <g id="line2d_13">
      <g>
       <use style="stroke:#000000;stroke-width:0.5;" x="528.12" xlink:href="#m93b0483c22" y="398.52"/>
      </g>
     </g>
     <g id="line2d_14">
      <g>
       <use style="stroke:#000000;stroke-width:0.5;" x="528.12" xlink:href="#m741efc42ff" y="44.28"/>
      </g>
     </g>
     <g id="text_7">
      <!-- 6 -->
      <defs>
       <path d="
M33.0156 40.375
Q26.375 40.375 22.4844 35.8281
Q18.6094 31.2969 18.6094 23.3906
Q18.6094 15.5312 22.4844 10.9531
Q26.375 6.39062 33.0156 6.39062
Q39.6562 6.39062 43.5312 10.9531
Q47.4062 15.5312 47.4062 23.3906
Q47.4062 31.2969 43.5312 35.8281
Q39.6562 40.375 33.0156 40.375
M52.5938 71.2969
L52.5938 62.3125
Q48.875 64.0625 45.0938 64.9844
Q41.3125 65.9219 37.5938 65.9219
Q27.8281 65.9219 22.6719 59.3281
Q17.5312 52.7344 16.7969 39.4062
Q19.6719 43.6562 24.0156 45.9219
Q28.375 48.1875 33.5938 48.1875
Q44.5781 48.1875 50.9531 41.5156
Q57.3281 34.8594 57.3281 23.3906
Q57.3281 12.1562 50.6875 5.35938
Q44.0469 -1.42188 33.0156 -1.42188
Q20.3594 -1.42188 13.6719 8.26562
Q6.98438 17.9688 6.98438 36.375
Q6.98438 53.6562 15.1875 63.9375
Q23.3906 74.2188 37.2031 74.2188
Q40.9219 74.2188 44.7031 73.4844
Q48.4844 72.75 52.5938 71.2969" id="BitstreamVeraSans-Roman-36"/>
      </defs>
      <g transform="translate(525.099375 411.638125)scale(0.12 -0.12)">
       <use xlink:href="#BitstreamVeraSans-Roman-36"/>
      </g>
     </g>
    </g>
   </g>
   <g id="matplotlib.axis_2">
    <g id="ytick_1">
     <g id="line2d_15">
      <defs>
       <path d="
M0 0
L4 0" id="m728421d6d4" style="stroke:#000000;stroke-width:0.5;"/>
      </defs>
      <g>
       <use style="stroke:#000000;stroke-width:0.5;" x="73.35" xlink:href="#m728421d6d4" y="398.52"/>
      </g>
     </g>
     <g id="line2d_16">
      <defs>
       <path d="
M0 0
L-4 0" id="mcb0005524f" style="stroke:#000000;stroke-width:0.5;"/>
      </defs>
      <g>
       <use style="stroke:#000000;stroke-width:0.5;" x="528.12" xlink:href="#mcb0005524f" y="398.52"/>
      </g>
     </g>
     <g id="text_8">
      <!-- 0.5 -->
      <defs>
       <path d="
M10.6875 12.4062
L21 12.4062
L21 0
L10.6875 0
z
" id="BitstreamVeraSans-Roman-2e"/>
      </defs>
      <g transform="translate(52.105625 401.83125)scale(0.12 -0.12)">
       <use xlink:href="#BitstreamVeraSans-Roman-30"/>
       <use x="63.623046875" xlink:href="#BitstreamVeraSans-Roman-2e"/>
       <use x="95.41015625" xlink:href="#BitstreamVeraSans-Roman-35"/>
      </g>
     </g>
    </g>
    <g id="ytick_2">
     <g id="line2d_17">
      <g>
       <use style="stroke:#000000;stroke-width:0.5;" x="73.35" xlink:href="#m728421d6d4" y="359.16"/>
      </g>
     </g>
     <g id="line2d_18">
      <g>
       <use style="stroke:#000000;stroke-width:0.5;" x="528.12" xlink:href="#mcb0005524f" y="359.16"/>
      </g>
     </g>
     <g id="text_9">
      <!-- 1.0 -->
      <g transform="translate(52.38125 362.47125)scale(0.12 -0.12)">
       <use xlink:href="#BitstreamVeraSans-Roman-31"/>
       <use x="63.623046875" xlink:href="#BitstreamVeraSans-Roman-2e"/>
       <use x="95.41015625" xlink:href="#BitstreamVeraSans-Roman-30"/>
      </g>
     </g>
    </g>
    <g id="ytick_3">
     <g id="line2d_19">
      <g>
       <use style="stroke:#000000;stroke-width:0.5;" x="73.35" xlink:href="#m728421d6d4" y="319.8"/>
      </g>
     </g>
     <g id="line2d_20">
      <g>
       <use style="stroke:#000000;stroke-width:0.5;" x="528.12" xlink:href="#mcb0005524f" y="319.8"/>
      </g>
     </g>
     <g id="text_10">
      <!-- 1.5 -->
      <g transform="translate(52.6325 323.11125)scale(0.12 -0.12)">
       <use xlink:href="#BitstreamVeraSans-Roman-31"/>
       <use x="63.623046875" xlink:href="#BitstreamVeraSans-Roman-2e"/>
       <use x="95.41015625" xlink:href="#BitstreamVeraSans-Roman-35"/>
      </g>
     </g>
    </g>
    <g id="ytick_4">
     <g id="line2d_21">
      <g>
       <use style="stroke:#000000;stroke-width:0.5;" x="73.35" xlink:href="#m728421d6d4" y="280.44"/>
      </g>
     </g>
     <g id="line2d_22">
      <g>
       <use style="stroke:#000000;stroke-width:0.5;" x="528.12" xlink:href="#mcb0005524f" y="280.44"/>
      </g>
     </g>
     <g id="text_11">
      <!-- 2.0 -->
      <g transform="translate(51.9425 283.75125)scale(0.12 -0.12)">
       <use xlink:href="#BitstreamVeraSans-Roman-32"/>
       <use x="63.623046875" xlink:href="#BitstreamVeraSans-Roman-2e"/>
       <use x="95.41015625" xlink:href="#BitstreamVeraSans-Roman-30"/>
      </g>
     </g>
    </g>
    <g id="ytick_5">
     <g id="line2d_23">
      <g>
       <use style="stroke:#000000;stroke-width:0.5;" x="73.35" xlink:href="#m728421d6d4" y="241.08"/>
      </g>
     </g>
     <g id="line2d_24">
      <g>
       <use style="stroke:#000000;stroke-width:0.5;" x="528.12" xlink:href="#mcb0005524f" y="241.08"/>
      </g>
     </g>
     <g id="text_12">
      <!-- 2.5 -->
      <g transform="translate(52.19375 244.39125)scale(0.12 -0.12)">
       <use xlink:href="#BitstreamVeraSans-Roman-32"/>
       <use x="63.623046875" xlink:href="#BitstreamVeraSans-Roman-2e"/>
       <use x="95.41015625" xlink:href="#BitstreamVeraSans-Roman-35"/>
      </g>
     </g>
    </g>
    <g id="ytick_6">
     <g id="line2d_25">
      <g>
       <use style="stroke:#000000;stroke-width:0.5;" x="73.35" xlink:href="#m728421d6d4" y="201.72"/>
      </g>
     </g>
     <g id="line2d_26">
      <g>
       <use style="stroke:#000000;stroke-width:0.5;" x="528.12" xlink:href="#mcb0005524f" y="201.72"/>
      </g>
     </g>
     <g id="text_13">
      <!-- 3.0 -->
      <g transform="translate(51.978125 205.03125)scale(0.12 -0.12)">
       <use xlink:href="#BitstreamVeraSans-Roman-33"/>
       <use x="63.623046875" xlink:href="#BitstreamVeraSans-Roman-2e"/>
       <use x="95.41015625" xlink:href="#BitstreamVeraSans-Roman-30"/>
      </g>
     </g>
    </g>
    <g id="ytick_7">
     <g id="line2d_27">
      <g>
       <use style="stroke:#000000;stroke-width:0.5;" x="73.35" xlink:href="#m728421d6d4" y="162.36"/>
      </g>
     </g>
     <g id="line2d_28">
      <g>
       <use style="stroke:#000000;stroke-width:0.5;" x="528.12" xlink:href="#mcb0005524f" y="162.36"/>
      </g>
     </g>
     <g id="text_14">
      <!-- 3.5 -->
      <g transform="translate(52.229375 165.67125)scale(0.12 -0.12)">
       <use xlink:href="#BitstreamVeraSans-Roman-33"/>
       <use x="63.623046875" xlink:href="#BitstreamVeraSans-Roman-2e"/>
       <use x="95.41015625" xlink:href="#BitstreamVeraSans-Roman-35"/>
      </g>
     </g>
    </g>
    <g id="ytick_8">
     <g id="line2d_29">
      <g>
       <use style="stroke:#000000;stroke-width:0.5;" x="73.35" xlink:href="#m728421d6d4" y="123.0"/>
      </g>
     </g>
     <g id="line2d_30">
      <g>
       <use style="stroke:#000000;stroke-width:0.5;" x="528.12" xlink:href="#mcb0005524f" y="123.0"/>
      </g>
     </g>
     <g id="text_15">
      <!-- 4.0 -->
      <g transform="translate(51.65 126.31125)scale(0.12 -0.12)">
       <use xlink:href="#BitstreamVeraSans-Roman-34"/>
       <use x="63.623046875" xlink:href="#BitstreamVeraSans-Roman-2e"/>
       <use x="95.41015625" xlink:href="#BitstreamVeraSans-Roman-30"/>
      </g>
     </g>
    </g>
    <g id="ytick_9">
     <g id="line2d_31">
      <g>
       <use style="stroke:#000000;stroke-width:0.5;" x="73.35" xlink:href="#m728421d6d4" y="83.64"/>
      </g>
     </g>
     <g id="line2d_32">
      <g>
       <use style="stroke:#000000;stroke-width:0.5;" x="528.12" xlink:href="#mcb0005524f" y="83.64"/>
      </g>
     </g>
     <g id="text_16">
      <!-- 4.5 -->
      <g transform="translate(51.90125 86.95125)scale(0.12 -0.12)">
       <use xlink:href="#BitstreamVeraSans-Roman-34"/>
       <use x="63.623046875" xlink:href="#BitstreamVeraSans-Roman-2e"/>
       <use x="95.41015625" xlink:href="#BitstreamVeraSans-Roman-35"/>
      </g>
     </g>
    </g>
    <g id="ytick_10">
     <g id="line2d_33">
      <g>
       <use style="stroke:#000000;stroke-width:0.5;" x="73.35" xlink:href="#m728421d6d4" y="44.28"/>
      </g>
     </g>
     <g id="line2d_34">
      <g>
       <use style="stroke:#000000;stroke-width:0.5;" x="528.12" xlink:href="#mcb0005524f" y="44.28"/>
      </g>
     </g>
     <g id="text_17">
      <!-- 5.0 -->
      <g transform="translate(51.989375 47.59125)scale(0.12 -0.12)">
       <use xlink:href="#BitstreamVeraSans-Roman-35"/>
       <use x="63.623046875" xlink:href="#BitstreamVeraSans-Roman-2e"/>
       <use x="95.41015625" xlink:href="#BitstreamVeraSans-Roman-30"/>
      </g>
     </g>
    </g>
   </g>
  </g>
 </g>
 <defs>
  <clipPath id="p9061672a36">
   <rect height="354.24" width="454.77" x="73.35" y="44.28"/>
  </clipPath>
 </defs>
</svg>
