<?xml version="1.0" encoding="utf-8" standalone="no"?>
<!DOCTYPE svg PUBLIC "-//W3C//DTD SVG 1.1//EN"
  "http://www.w3.org/Graphics/SVG/1.1/DTD/svg11.dtd">
<!-- Created with matplotlib (http://matplotlib.org/) -->
<svg height="288pt" version="1.1" viewBox="0 0 432 288" width="432pt" xmlns="http://www.w3.org/2000/svg" xmlns:xlink="http://www.w3.org/1999/xlink">
 <defs>
  <style type="text/css">
*{stroke-linecap:butt;stroke-linejoin:round;}
  </style>
 </defs>
 <g id="figure_1">
  <g id="patch_1">
   <path d="
M0 288
L432 288
L432 0
L0 0
z
" style="fill:#ffffff;"/>
  </g>
  <g id="axes_1">
   <g id="text_1">
    <!-- Bull -->
    <defs>
     <path d="
M8.5 21.5781
L8.5 54.6875
L17.4844 54.6875
L17.4844 21.9219
Q17.4844 14.1562 20.5 10.2656
Q23.5312 6.39062 29.5938 6.39062
Q36.8594 6.39062 41.0781 11.0312
Q45.3125 15.6719 45.3125 23.6875
L45.3125 54.6875
L54.2969 54.6875
L54.2969 0
L45.3125 0
L45.3125 8.40625
Q42.0469 3.42188 37.7188 1
Q33.4062 -1.42188 27.6875 -1.42188
Q18.2656 -1.42188 13.375 4.4375
Q8.5 10.2969 8.5 21.5781" id="BitstreamVeraSans-Roman-75"/>
     <path d="
M19.6719 34.8125
L19.6719 8.10938
L35.5 8.10938
Q43.4531 8.10938 47.2812 11.4062
Q51.125 14.7031 51.125 21.4844
Q51.125 28.3281 47.2812 31.5625
Q43.4531 34.8125 35.5 34.8125
z

M19.6719 64.7969
L19.6719 42.8281
L34.2812 42.8281
Q41.5 42.8281 45.0312 45.5312
Q48.5781 48.25 48.5781 53.8125
Q48.5781 59.3281 45.0312 62.0625
Q41.5 64.7969 34.2812 64.7969
z

M9.8125 72.9062
L35.0156 72.9062
Q46.2969 72.9062 52.3906 68.2188
Q58.5 63.5312 58.5 54.8906
Q58.5 48.1875 55.375 44.2344
Q52.25 40.2812 46.1875 39.3125
Q53.4688 37.75 57.5 32.7812
Q61.5312 27.8281 61.5312 20.4062
Q61.5312 10.6406 54.8906 5.3125
Q48.25 0 35.9844 0
L9.8125 0
z
" id="BitstreamVeraSans-Roman-42"/>
     <path d="
M9.42188 75.9844
L18.4062 75.9844
L18.4062 0
L9.42188 0
z
" id="BitstreamVeraSans-Roman-6c"/>
    </defs>
    <g transform="translate(108.0 273.6)scale(0.1 -0.1)">
     <use xlink:href="#BitstreamVeraSans-Roman-42"/>
     <use x="68.603515625" xlink:href="#BitstreamVeraSans-Roman-75"/>
     <use x="131.982421875" xlink:href="#BitstreamVeraSans-Roman-6c"/>
     <use x="159.765625" xlink:href="#BitstreamVeraSans-Roman-6c"/>
    </g>
   </g>
   <g id="text_2">
    <!-- Bear -->
    <defs>
     <path d="
M56.2031 29.5938
L56.2031 25.2031
L14.8906 25.2031
Q15.4844 15.9219 20.4844 11.0625
Q25.4844 6.20312 34.4219 6.20312
Q39.5938 6.20312 44.4531 7.46875
Q49.3125 8.73438 54.1094 11.2812
L54.1094 2.78125
Q49.2656 0.734375 44.1875 -0.34375
Q39.1094 -1.42188 33.8906 -1.42188
Q20.7969 -1.42188 13.1562 6.1875
Q5.51562 13.8125 5.51562 26.8125
Q5.51562 40.2344 12.7656 48.1094
Q20.0156 56 32.3281 56
Q43.3594 56 49.7812 48.8906
Q56.2031 41.7969 56.2031 29.5938
M47.2188 32.2344
Q47.125 39.5938 43.0938 43.9844
Q39.0625 48.3906 32.4219 48.3906
Q24.9062 48.3906 20.3906 44.1406
Q15.875 39.8906 15.1875 32.1719
z
" id="BitstreamVeraSans-Roman-65"/>
     <path d="
M41.1094 46.2969
Q39.5938 47.1719 37.8125 47.5781
Q36.0312 48 33.8906 48
Q26.2656 48 22.1875 43.0469
Q18.1094 38.0938 18.1094 28.8125
L18.1094 0
L9.07812 0
L9.07812 54.6875
L18.1094 54.6875
L18.1094 46.1875
Q20.9531 51.1719 25.4844 53.5781
Q30.0312 56 36.5312 56
Q37.4531 56 38.5781 55.875
Q39.7031 55.7656 41.0625 55.5156
z
" id="BitstreamVeraSans-Roman-72"/>
     <path d="
M34.2812 27.4844
Q23.3906 27.4844 19.1875 25
Q14.9844 22.5156 14.9844 16.5
Q14.9844 11.7188 18.1406 8.90625
Q21.2969 6.10938 26.7031 6.10938
Q34.1875 6.10938 38.7031 11.4062
Q43.2188 16.7031 43.2188 25.4844
L43.2188 27.4844
z

M52.2031 31.2031
L52.2031 0
L43.2188 0
L43.2188 8.29688
Q40.1406 3.32812 35.5469 0.953125
Q30.9531 -1.42188 24.3125 -1.42188
Q15.9219 -1.42188 10.9531 3.29688
Q6 8.01562 6 15.9219
Q6 25.1406 12.1719 29.8281
Q18.3594 34.5156 30.6094 34.5156
L43.2188 34.5156
L43.2188 35.4062
Q43.2188 41.6094 39.1406 45
Q35.0625 48.3906 27.6875 48.3906
Q23 48.3906 18.5469 47.2656
Q14.1094 46.1406 10.0156 43.8906
L10.0156 52.2031
Q14.9375 54.1094 19.5781 55.0469
Q24.2188 56 28.6094 56
Q40.4844 56 46.3438 49.8438
Q52.2031 43.7031 52.2031 31.2031" id="BitstreamVeraSans-Roman-61"/>
    </defs>
    <g transform="translate(324.0 273.6)scale(0.1 -0.1)">
     <use xlink:href="#BitstreamVeraSans-Roman-42"/>
     <use x="68.603515625" xlink:href="#BitstreamVeraSans-Roman-65"/>
     <use x="130.126953125" xlink:href="#BitstreamVeraSans-Roman-61"/>
     <use x="191.40625" xlink:href="#BitstreamVeraSans-Roman-72"/>
    </g>
   </g>
   <g id="text_3">
    <!-- Bull -->
    <g transform="translate(108.0 11.52)scale(0.1 -0.1)">
     <use xlink:href="#BitstreamVeraSans-Roman-42"/>
     <use x="68.603515625" xlink:href="#BitstreamVeraSans-Roman-75"/>
     <use x="131.982421875" xlink:href="#BitstreamVeraSans-Roman-6c"/>
     <use x="159.765625" xlink:href="#BitstreamVeraSans-Roman-6c"/>
    </g>
   </g>
   <g id="text_4">
    <!-- Bear -->
    <g transform="translate(324.0 11.52)scale(0.1 -0.1)">
     <use xlink:href="#BitstreamVeraSans-Roman-42"/>
     <use x="68.603515625" xlink:href="#BitstreamVeraSans-Roman-65"/>
     <use x="130.126953125" xlink:href="#BitstreamVeraSans-Roman-61"/>
     <use x="191.40625" xlink:href="#BitstreamVeraSans-Roman-72"/>
    </g>
   </g>
   <g id="text_5">
    <!-- Steepener -->
    <defs>
     <path d="
M54.8906 33.0156
L54.8906 0
L45.9062 0
L45.9062 32.7188
Q45.9062 40.4844 42.875 44.3281
Q39.8438 48.1875 33.7969 48.1875
Q26.5156 48.1875 22.3125 43.5469
Q18.1094 38.9219 18.1094 30.9062
L18.1094 0
L9.07812 0
L9.07812 54.6875
L18.1094 54.6875
L18.1094 46.1875
Q21.3438 51.125 25.7031 53.5625
Q30.0781 56 35.7969 56
Q45.2188 56 50.0469 50.1719
Q54.8906 44.3438 54.8906 33.0156" id="BitstreamVeraSans-Roman-6e"/>
     <path d="
M18.3125 70.2188
L18.3125 54.6875
L36.8125 54.6875
L36.8125 47.7031
L18.3125 47.7031
L18.3125 18.0156
Q18.3125 11.3281 20.1406 9.42188
Q21.9688 7.51562 27.5938 7.51562
L36.8125 7.51562
L36.8125 0
L27.5938 0
Q17.1875 0 13.2344 3.875
Q9.28125 7.76562 9.28125 18.0156
L9.28125 47.7031
L2.6875 47.7031
L2.6875 54.6875
L9.28125 54.6875
L9.28125 70.2188
z
" id="BitstreamVeraSans-Roman-74"/>
     <path d="
M53.5156 70.5156
L53.5156 60.8906
Q47.9062 63.5781 42.9219 64.8906
Q37.9375 66.2188 33.2969 66.2188
Q25.25 66.2188 20.875 63.0938
Q16.5 59.9688 16.5 54.2031
Q16.5 49.3594 19.4062 46.8906
Q22.3125 44.4375 30.4219 42.9219
L36.375 41.7031
Q47.4062 39.5938 52.6562 34.2969
Q57.9062 29 57.9062 20.125
Q57.9062 9.51562 50.7969 4.04688
Q43.7031 -1.42188 29.9844 -1.42188
Q24.8125 -1.42188 18.9688 -0.25
Q13.1406 0.921875 6.89062 3.21875
L6.89062 13.375
Q12.8906 10.0156 18.6562 8.29688
Q24.4219 6.59375 29.9844 6.59375
Q38.4219 6.59375 43.0156 9.90625
Q47.6094 13.2344 47.6094 19.3906
Q47.6094 24.75 44.3125 27.7812
Q41.0156 30.8125 33.5 32.3281
L27.4844 33.5
Q16.4531 35.6875 11.5156 40.375
Q6.59375 45.0625 6.59375 53.4219
Q6.59375 63.0938 13.4062 68.6562
Q20.2188 74.2188 32.1719 74.2188
Q37.3125 74.2188 42.625 73.2812
Q47.9531 72.3594 53.5156 70.5156" id="BitstreamVeraSans-Roman-53"/>
     <path d="
M18.1094 8.20312
L18.1094 -20.7969
L9.07812 -20.7969
L9.07812 54.6875
L18.1094 54.6875
L18.1094 46.3906
Q20.9531 51.2656 25.2656 53.625
Q29.5938 56 35.5938 56
Q45.5625 56 51.7812 48.0938
Q58.0156 40.1875 58.0156 27.2969
Q58.0156 14.4062 51.7812 6.48438
Q45.5625 -1.42188 35.5938 -1.42188
Q29.5938 -1.42188 25.2656 0.953125
Q20.9531 3.32812 18.1094 8.20312
M48.6875 27.2969
Q48.6875 37.2031 44.6094 42.8438
Q40.5312 48.4844 33.4062 48.4844
Q26.2656 48.4844 22.1875 42.8438
Q18.1094 37.2031 18.1094 27.2969
Q18.1094 17.3906 22.1875 11.75
Q26.2656 6.10938 33.4062 6.10938
Q40.5312 6.10938 44.6094 11.75
Q48.6875 17.3906 48.6875 27.2969" id="BitstreamVeraSans-Roman-70"/>
    </defs>
    <g transform="translate(18.3984375 115.4203125)rotate(-90.0)scale(0.1 -0.1)">
     <use xlink:href="#BitstreamVeraSans-Roman-53"/>
     <use x="63.4765625" xlink:href="#BitstreamVeraSans-Roman-74"/>
     <use x="102.685546875" xlink:href="#BitstreamVeraSans-Roman-65"/>
     <use x="164.208984375" xlink:href="#BitstreamVeraSans-Roman-65"/>
     <use x="225.732421875" xlink:href="#BitstreamVeraSans-Roman-70"/>
     <use x="289.208984375" xlink:href="#BitstreamVeraSans-Roman-65"/>
     <use x="350.732421875" xlink:href="#BitstreamVeraSans-Roman-6e"/>
     <use x="414.111328125" xlink:href="#BitstreamVeraSans-Roman-65"/>
     <use x="475.634765625" xlink:href="#BitstreamVeraSans-Roman-72"/>
    </g>
   </g>
   <g id="text_6">
    <!-- Flattener -->
    <defs>
     <path d="
M9.8125 72.9062
L51.7031 72.9062
L51.7031 64.5938
L19.6719 64.5938
L19.6719 43.1094
L48.5781 43.1094
L48.5781 34.8125
L19.6719 34.8125
L19.6719 0
L9.8125 0
z
" id="BitstreamVeraSans-Roman-46"/>
    </defs>
    <g transform="translate(18.3984375 252.6734375)rotate(-90.0)scale(0.1 -0.1)">
     <use xlink:href="#BitstreamVeraSans-Roman-46"/>
     <use x="57.51953125" xlink:href="#BitstreamVeraSans-Roman-6c"/>
     <use x="85.302734375" xlink:href="#BitstreamVeraSans-Roman-61"/>
     <use x="146.58203125" xlink:href="#BitstreamVeraSans-Roman-74"/>
     <use x="185.791015625" xlink:href="#BitstreamVeraSans-Roman-74"/>
     <use x="225.0" xlink:href="#BitstreamVeraSans-Roman-65"/>
     <use x="286.5234375" xlink:href="#BitstreamVeraSans-Roman-6e"/>
     <use x="349.90234375" xlink:href="#BitstreamVeraSans-Roman-65"/>
     <use x="411.42578125" xlink:href="#BitstreamVeraSans-Roman-72"/>
    </g>
   </g>
   <g id="text_7">
    <!-- Steepener -->
    <g transform="translate(412.4796875 64.4015625)rotate(-270.0)scale(0.1 -0.1)">
     <use xlink:href="#BitstreamVeraSans-Roman-53"/>
     <use x="63.4765625" xlink:href="#BitstreamVeraSans-Roman-74"/>
     <use x="102.685546875" xlink:href="#BitstreamVeraSans-Roman-65"/>
     <use x="164.208984375" xlink:href="#BitstreamVeraSans-Roman-65"/>
     <use x="225.732421875" xlink:href="#BitstreamVeraSans-Roman-70"/>
     <use x="289.208984375" xlink:href="#BitstreamVeraSans-Roman-65"/>
     <use x="350.732421875" xlink:href="#BitstreamVeraSans-Roman-6e"/>
     <use x="414.111328125" xlink:href="#BitstreamVeraSans-Roman-65"/>
     <use x="475.634765625" xlink:href="#BitstreamVeraSans-Roman-72"/>
    </g>
   </g>
   <g id="text_8">
    <!-- Flattener -->
    <g transform="translate(412.4796875 208.4015625)rotate(-270.0)scale(0.1 -0.1)">
     <use xlink:href="#BitstreamVeraSans-Roman-46"/>
     <use x="57.51953125" xlink:href="#BitstreamVeraSans-Roman-6c"/>
     <use x="85.302734375" xlink:href="#BitstreamVeraSans-Roman-61"/>
     <use x="146.58203125" xlink:href="#BitstreamVeraSans-Roman-74"/>
     <use x="185.791015625" xlink:href="#BitstreamVeraSans-Roman-74"/>
     <use x="225.0" xlink:href="#BitstreamVeraSans-Roman-65"/>
     <use x="286.5234375" xlink:href="#BitstreamVeraSans-Roman-6e"/>
     <use x="349.90234375" xlink:href="#BitstreamVeraSans-Roman-65"/>
     <use x="411.42578125" xlink:href="#BitstreamVeraSans-Roman-72"/>
    </g>
   </g>
  </g>
  <g id="axes_2">
   <g id="patch_2">
    <path d="
M34.56 259.2
L401.76 259.2
L401.76 14.4
L34.56 14.4
z
" style="fill:#ffffff;"/>
   </g>
   <g id="PathCollection_1">
    <path clip-path="url(#p6a2b6ff79c)" d="
M313.601 63.2217
C315.039 63.2217 316.419 62.6502 317.436 61.633
C318.453 60.6158 319.025 59.236 319.025 57.7976
C319.025 56.3591 318.453 54.9793 317.436 53.9621
C316.419 52.945 315.039 52.3734 313.601 52.3734
C312.162 52.3734 310.782 52.945 309.765 53.9621
C308.748 54.9793 308.176 56.3591 308.176 57.7976
C308.176 59.236 308.748 60.6158 309.765 61.633
C310.782 62.6502 312.162 63.2217 313.601 63.2217
z
" style="fill:#ff0000;fill-opacity:0.75;stroke:#000000;stroke-opacity:0.75;"/>
    <path clip-path="url(#p6a2b6ff79c)" d="
M253.025 122.714
C254.74 122.714 256.385 122.033 257.598 120.82
C258.811 119.607 259.492 117.962 259.492 116.247
C259.492 114.532 258.811 112.887 257.598 111.674
C256.385 110.461 254.74 109.78 253.025 109.78
C251.31 109.78 249.665 110.461 248.452 111.674
C247.239 112.887 246.558 114.532 246.558 116.247
C246.558 117.962 247.239 119.607 248.452 120.82
C249.665 122.033 251.31 122.714 253.025 122.714
z
" style="fill:#ff0000;fill-opacity:0.75;stroke:#000000;stroke-opacity:0.75;"/>
    <path clip-path="url(#p6a2b6ff79c)" d="
M323.782 75.5936
C326.429 75.5936 328.968 74.542 330.84 72.6703
C332.712 70.7986 333.763 68.2597 333.763 65.6128
C333.763 62.9658 332.712 60.4269 330.84 58.5552
C328.968 56.6835 326.429 55.6319 323.782 55.6319
C321.135 55.6319 318.597 56.6835 316.725 58.5552
C314.853 60.4269 313.802 62.9658 313.802 65.6128
C313.802 68.2597 314.853 70.7986 316.725 72.6703
C318.597 74.542 321.135 75.5936 323.782 75.5936
z
" style="fill:#ff0000;fill-opacity:0.75;stroke:#000000;stroke-opacity:0.75;"/>
    <path clip-path="url(#p6a2b6ff79c)" d="
M324.572 65.0277
C327.504 65.0277 330.317 63.8626 332.391 61.789
C334.464 59.7154 335.629 56.9026 335.629 53.97
C335.629 51.0375 334.464 48.2247 332.391 46.1511
C330.317 44.0774 327.504 42.9123 324.572 42.9123
C321.639 42.9123 318.826 44.0774 316.753 46.1511
C314.679 48.2247 313.514 51.0375 313.514 53.97
C313.514 56.9026 314.679 59.7154 316.753 61.789
C318.826 63.8626 321.639 65.0277 324.572 65.0277
z
" style="fill:#008000;fill-opacity:0.75;stroke:#000000;stroke-opacity:0.75;"/>
    <path clip-path="url(#p6a2b6ff79c)" d="
M151.539 177.213
C152.062 177.213 152.563 177.006 152.932 176.636
C153.302 176.267 153.509 175.766 153.509 175.243
C153.509 174.721 153.302 174.22 152.932 173.85
C152.563 173.481 152.062 173.273 151.539 173.273
C151.017 173.273 150.515 173.481 150.146 173.85
C149.777 174.22 149.569 174.721 149.569 175.243
C149.569 175.766 149.777 176.267 150.146 176.636
C150.515 177.006 151.017 177.213 151.539 177.213
z
" style="fill:#008000;fill-opacity:0.75;stroke:#000000;stroke-opacity:0.75;"/>
    <path clip-path="url(#p6a2b6ff79c)" d="
M158.107 173.125
C158.736 173.125 159.34 172.874 159.785 172.429
C160.23 171.984 160.48 171.381 160.48 170.751
C160.48 170.122 160.23 169.518 159.785 169.073
C159.34 168.628 158.736 168.378 158.107 168.378
C157.477 168.378 156.874 168.628 156.429 169.073
C155.984 169.518 155.733 170.122 155.733 170.751
C155.733 171.381 155.984 171.984 156.429 172.429
C156.874 172.874 157.477 173.125 158.107 173.125
z
" style="fill:#008000;fill-opacity:0.75;stroke:#000000;stroke-opacity:0.75;"/>
    <path clip-path="url(#p6a2b6ff79c)" d="
M81.3278 185.015
C82.5988 185.015 83.8179 184.51 84.7166 183.611
C85.6153 182.712 86.1203 181.493 86.1203 180.222
C86.1203 178.951 85.6153 177.732 84.7166 176.834
C83.8179 175.935 82.5988 175.43 81.3278 175.43
C80.0569 175.43 78.8378 175.935 77.9391 176.834
C77.0404 177.732 76.5354 178.951 76.5354 180.222
C76.5354 181.493 77.0404 182.712 77.9391 183.611
C78.8378 184.51 80.0569 185.015 81.3278 185.015
z
" style="fill:#008000;fill-opacity:0.75;stroke:#000000;stroke-opacity:0.75;"/>
    <path clip-path="url(#p6a2b6ff79c)" d="
M73.0477 188.365
C75.0179 188.365 76.9076 187.583 78.3007 186.19
C79.6939 184.796 80.4766 182.907 80.4766 180.937
C80.4766 178.966 79.6939 177.077 78.3007 175.683
C76.9076 174.29 75.0179 173.508 73.0477 173.508
C71.0775 173.508 69.1878 174.29 67.7946 175.683
C66.4015 177.077 65.6188 178.966 65.6188 180.937
C65.6188 182.907 66.4015 184.796 67.7946 186.19
C69.1878 187.583 71.0775 188.365 73.0477 188.365
z
" style="fill:#008000;fill-opacity:0.75;stroke:#000000;stroke-opacity:0.75;"/>
    <path clip-path="url(#p6a2b6ff79c)" d="
M217.056 39.532
C218.548 39.532 219.98 38.939 221.035 37.8837
C222.091 36.8283 222.684 35.3967 222.684 33.9043
C222.684 32.4118 222.091 30.9802 221.035 29.9249
C219.98 28.8695 218.548 28.2765 217.056 28.2765
C215.563 28.2765 214.132 28.8695 213.076 29.9249
C212.021 30.9802 211.428 32.4118 211.428 33.9043
C211.428 35.3967 212.021 36.8283 213.076 37.8837
C214.132 38.939 215.563 39.532 217.056 39.532
z
" style="fill:#008000;fill-opacity:0.75;stroke:#000000;stroke-opacity:0.75;"/>
    <path clip-path="url(#p6a2b6ff79c)" d="
M63.3473 102.28
C65.0489 102.28 66.6811 101.604 67.8843 100.401
C69.0876 99.1979 69.7636 97.5657 69.7636 95.8641
C69.7636 94.1624 69.0876 92.5303 67.8843 91.327
C66.6811 90.1238 65.0489 89.4477 63.3473 89.4477
C61.6457 89.4477 60.0135 90.1238 58.8103 91.327
C57.607 92.5303 56.931 94.1624 56.931 95.8641
C56.931 97.5657 57.607 99.1979 58.8103 100.401
C60.0135 101.604 61.6457 102.28 63.3473 102.28
z
" style="fill:#008000;fill-opacity:0.75;stroke:#000000;stroke-opacity:0.75;"/>
    <path clip-path="url(#p6a2b6ff79c)" d="
M207.373 144.038
C209.623 144.038 211.78 143.144 213.371 141.554
C214.961 139.963 215.855 137.805 215.855 135.556
C215.855 133.307 214.961 131.149 213.371 129.559
C211.78 127.968 209.623 127.074 207.373 127.074
C205.124 127.074 202.966 127.968 201.376 129.559
C199.785 131.149 198.892 133.307 198.892 135.556
C198.892 137.805 199.785 139.963 201.376 141.554
C202.966 143.144 205.124 144.038 207.373 144.038
z
" style="fill:#008000;fill-opacity:0.75;stroke:#000000;stroke-opacity:0.75;"/>
    <path clip-path="url(#p6a2b6ff79c)" d="
M45.923 131.502
C48.5287 131.502 51.028 130.467 52.8705 128.624
C54.713 126.782 55.7482 124.283 55.7482 121.677
C55.7482 119.071 54.713 116.572 52.8705 114.73
C51.028 112.887 48.5287 111.852 45.923 111.852
C43.3173 111.852 40.818 112.887 38.9756 114.73
C37.1331 116.572 36.0978 119.071 36.0978 121.677
C36.0978 124.283 37.1331 126.782 38.9756 128.624
C40.818 130.467 43.3173 131.502 45.923 131.502
z
" style="fill:#ff0000;fill-opacity:0.75;stroke:#000000;stroke-opacity:0.75;"/>
    <path clip-path="url(#p6a2b6ff79c)" d="
M238.444 194.28
C243.701 194.28 248.744 192.191 252.462 188.473
C256.179 184.756 258.268 179.713 258.268 174.455
C258.268 169.198 256.179 164.155 252.462 160.437
C248.744 156.72 243.701 154.631 238.444 154.631
C233.186 154.631 228.143 156.72 224.425 160.437
C220.708 164.155 218.619 169.198 218.619 174.455
C218.619 179.713 220.708 184.756 224.425 188.473
C228.143 192.191 233.186 194.28 238.444 194.28
z
" style="fill:#ff0000;fill-opacity:0.75;stroke:#000000;stroke-opacity:0.75;"/>
    <path clip-path="url(#p6a2b6ff79c)" d="
M302.126 168.206
C308.945 168.206 315.486 165.497 320.308 160.675
C325.13 155.853 327.839 149.312 327.839 142.493
C327.839 135.673 325.13 129.132 320.308 124.31
C315.486 119.488 308.945 116.779 302.126 116.779
C295.306 116.779 288.765 119.488 283.943 124.31
C279.121 129.132 276.412 135.673 276.412 142.493
C276.412 149.312 279.121 155.853 283.943 160.675
C288.765 165.497 295.306 168.206 302.126 168.206
z
" style="fill:#ff0000;fill-opacity:0.75;stroke:#000000;stroke-opacity:0.75;"/>
    <path clip-path="url(#p6a2b6ff79c)" d="
M267.947 195.216
C275.78 195.216 283.293 192.104 288.832 186.565
C294.37 181.026 297.482 173.513 297.482 165.68
C297.482 157.848 294.37 150.334 288.832 144.796
C283.293 139.257 275.78 136.145 267.947 136.145
C260.114 136.145 252.601 139.257 247.062 144.796
C241.523 150.334 238.411 157.848 238.411 165.68
C238.411 173.513 241.523 181.026 247.062 186.565
C252.601 192.104 260.114 195.216 267.947 195.216
z
" style="fill:#ff0000;fill-opacity:0.75;stroke:#000000;stroke-opacity:0.75;"/>
    <path clip-path="url(#p6a2b6ff79c)" d="
M219.389 191.435
C227.486 191.435 235.253 188.218 240.978 182.493
C246.704 176.768 249.921 169.001 249.921 160.904
C249.921 152.807 246.704 145.04 240.978 139.315
C235.253 133.589 227.486 130.373 219.389 130.373
C211.292 130.373 203.526 133.589 197.8 139.315
C192.075 145.04 188.858 152.807 188.858 160.904
C188.858 169.001 192.075 176.768 197.8 182.493
C203.526 188.218 211.292 191.435 219.389 191.435
z
" style="fill:#ff0000;fill-opacity:0.75;stroke:#000000;stroke-opacity:0.75;"/>
   </g>
   <g id="patch_3">
    <path d="
M34.56 14.4
L401.76 14.4" style="fill:none;"/>
   </g>
   <g id="patch_4">
    <path d="
M401.76 259.2
L401.76 14.4" style="fill:none;"/>
   </g>
   <g id="patch_5">
    <path d="
M34.56 136.8
L401.76 136.8" style="fill:none;stroke:#000000;stroke-linecap:square;stroke-linejoin:miter;"/>
   </g>
   <g id="patch_6">
    <path d="
M218.16 259.2
L218.16 14.4" style="fill:none;stroke:#000000;stroke-linecap:square;stroke-linejoin:miter;"/>
   </g>
   <g id="matplotlib.axis_1">
    <g id="xtick_1">
     <g id="line2d_1">
      <defs>
       <path d="
M0 0
L0 -4" id="m93b0483c22" style="stroke:#000000;stroke-width:0.5;"/>
      </defs>
      <g>
       <use style="stroke:#000000;stroke-width:0.5;" x="34.56" xlink:href="#m93b0483c22" y="136.8"/>
      </g>
     </g>
     <g id="text_9">
      <!-- −1.0 -->
      <defs>
       <path d="
M10.5938 35.5
L73.1875 35.5
L73.1875 27.2031
L10.5938 27.2031
z
" id="BitstreamVeraSans-Roman-2212"/>
       <path d="
M31.7812 66.4062
Q24.1719 66.4062 20.3281 58.9062
Q16.5 51.4219 16.5 36.375
Q16.5 21.3906 20.3281 13.8906
Q24.1719 6.39062 31.7812 6.39062
Q39.4531 6.39062 43.2812 13.8906
Q47.125 21.3906 47.125 36.375
Q47.125 51.4219 43.2812 58.9062
Q39.4531 66.4062 31.7812 66.4062
M31.7812 74.2188
Q44.0469 74.2188 50.5156 64.5156
Q56.9844 54.8281 56.9844 36.375
Q56.9844 17.9688 50.5156 8.26562
Q44.0469 -1.42188 31.7812 -1.42188
Q19.5312 -1.42188 13.0625 8.26562
Q6.59375 17.9688 6.59375 36.375
Q6.59375 54.8281 13.0625 64.5156
Q19.5312 74.2188 31.7812 74.2188" id="BitstreamVeraSans-Roman-30"/>
       <path d="
M12.4062 8.29688
L28.5156 8.29688
L28.5156 63.9219
L10.9844 60.4062
L10.9844 69.3906
L28.4219 72.9062
L38.2812 72.9062
L38.2812 8.29688
L54.3906 8.29688
L54.3906 0
L12.4062 0
z
" id="BitstreamVeraSans-Roman-31"/>
       <path d="
M10.6875 12.4062
L21 12.4062
L21 0
L10.6875 0
z
" id="BitstreamVeraSans-Roman-2e"/>
      </defs>
      <g transform="translate(23.2803125 148.3984375)scale(0.1 -0.1)">
       <use xlink:href="#BitstreamVeraSans-Roman-2212"/>
       <use x="83.7890625" xlink:href="#BitstreamVeraSans-Roman-31"/>
       <use x="147.412109375" xlink:href="#BitstreamVeraSans-Roman-2e"/>
       <use x="179.19921875" xlink:href="#BitstreamVeraSans-Roman-30"/>
      </g>
     </g>
    </g>
    <g id="xtick_2">
     <g id="line2d_2">
      <g>
       <use style="stroke:#000000;stroke-width:0.5;" x="126.36" xlink:href="#m93b0483c22" y="136.8"/>
      </g>
     </g>
     <g id="text_10">
      <!-- −0.5 -->
      <defs>
       <path d="
M10.7969 72.9062
L49.5156 72.9062
L49.5156 64.5938
L19.8281 64.5938
L19.8281 46.7344
Q21.9688 47.4688 24.1094 47.8281
Q26.2656 48.1875 28.4219 48.1875
Q40.625 48.1875 47.75 41.5
Q54.8906 34.8125 54.8906 23.3906
Q54.8906 11.625 47.5625 5.09375
Q40.2344 -1.42188 26.9062 -1.42188
Q22.3125 -1.42188 17.5469 -0.640625
Q12.7969 0.140625 7.71875 1.70312
L7.71875 11.625
Q12.1094 9.23438 16.7969 8.0625
Q21.4844 6.89062 26.7031 6.89062
Q35.1562 6.89062 40.0781 11.3281
Q45.0156 15.7656 45.0156 23.3906
Q45.0156 31 40.0781 35.4375
Q35.1562 39.8906 26.7031 39.8906
Q22.75 39.8906 18.8125 39.0156
Q14.8906 38.1406 10.7969 36.2812
z
" id="BitstreamVeraSans-Roman-35"/>
      </defs>
      <g transform="translate(115.185 148.3984375)scale(0.1 -0.1)">
       <use xlink:href="#BitstreamVeraSans-Roman-2212"/>
       <use x="83.7890625" xlink:href="#BitstreamVeraSans-Roman-30"/>
       <use x="147.412109375" xlink:href="#BitstreamVeraSans-Roman-2e"/>
       <use x="179.19921875" xlink:href="#BitstreamVeraSans-Roman-35"/>
      </g>
     </g>
    </g>
    <g id="xtick_3">
     <g id="line2d_3">
      <g>
       <use style="stroke:#000000;stroke-width:0.5;" x="218.16" xlink:href="#m93b0483c22" y="136.8"/>
      </g>
     </g>
     <g id="text_11">
      <!-- 0.0 -->
      <g transform="translate(210.87015625 148.3984375)scale(0.1 -0.1)">
       <use xlink:href="#BitstreamVeraSans-Roman-30"/>
       <use x="63.623046875" xlink:href="#BitstreamVeraSans-Roman-2e"/>
       <use x="95.41015625" xlink:href="#BitstreamVeraSans-Roman-30"/>
      </g>
     </g>
    </g>
    <g id="xtick_4">
     <g id="line2d_4">
      <g>
       <use style="stroke:#000000;stroke-width:0.5;" x="309.96" xlink:href="#m93b0483c22" y="136.8"/>
      </g>
     </g>
     <g id="text_12">
      <!-- 0.5 -->
      <g transform="translate(302.77484375 148.3984375)scale(0.1 -0.1)">
       <use xlink:href="#BitstreamVeraSans-Roman-30"/>
       <use x="63.623046875" xlink:href="#BitstreamVeraSans-Roman-2e"/>
       <use x="95.41015625" xlink:href="#BitstreamVeraSans-Roman-35"/>
      </g>
     </g>
    </g>
    <g id="xtick_5">
     <g id="line2d_5">
      <g>
       <use style="stroke:#000000;stroke-width:0.5;" x="401.76" xlink:href="#m93b0483c22" y="136.8"/>
      </g>
     </g>
     <g id="text_13">
      <!-- 1.0 -->
      <g transform="translate(394.6896875 148.3984375)scale(0.1 -0.1)">
       <use xlink:href="#BitstreamVeraSans-Roman-31"/>
       <use x="63.623046875" xlink:href="#BitstreamVeraSans-Roman-2e"/>
       <use x="95.41015625" xlink:href="#BitstreamVeraSans-Roman-30"/>
      </g>
     </g>
    </g>
   </g>
   <g id="matplotlib.axis_2">
    <g id="ytick_1">
     <g id="line2d_6">
      <defs>
       <path d="
M0 0
L4 0" id="m728421d6d4" style="stroke:#000000;stroke-width:0.5;"/>
      </defs>
      <g>
       <use style="stroke:#000000;stroke-width:0.5;" x="218.16" xlink:href="#m728421d6d4" y="259.2"/>
      </g>
     </g>
     <g id="text_14">
      <!-- −1.0 -->
      <g transform="translate(191.600625 261.959375)scale(0.1 -0.1)">
       <use xlink:href="#BitstreamVeraSans-Roman-2212"/>
       <use x="83.7890625" xlink:href="#BitstreamVeraSans-Roman-31"/>
       <use x="147.412109375" xlink:href="#BitstreamVeraSans-Roman-2e"/>
       <use x="179.19921875" xlink:href="#BitstreamVeraSans-Roman-30"/>
      </g>
     </g>
    </g>
    <g id="ytick_2">
     <g id="line2d_7">
      <g>
       <use style="stroke:#000000;stroke-width:0.5;" x="218.16" xlink:href="#m728421d6d4" y="198.0"/>
      </g>
     </g>
     <g id="text_15">
      <!-- −0.5 -->
      <g transform="translate(191.81 200.759375)scale(0.1 -0.1)">
       <use xlink:href="#BitstreamVeraSans-Roman-2212"/>
       <use x="83.7890625" xlink:href="#BitstreamVeraSans-Roman-30"/>
       <use x="147.412109375" xlink:href="#BitstreamVeraSans-Roman-2e"/>
       <use x="179.19921875" xlink:href="#BitstreamVeraSans-Roman-35"/>
      </g>
     </g>
    </g>
    <g id="ytick_3">
     <g id="line2d_8">
      <g>
       <use style="stroke:#000000;stroke-width:0.5;" x="218.16" xlink:href="#m728421d6d4" y="136.8"/>
      </g>
     </g>
     <g id="text_16">
      <!-- 0.0 -->
      <g transform="translate(199.5803125 139.559375)scale(0.1 -0.1)">
       <use xlink:href="#BitstreamVeraSans-Roman-30"/>
       <use x="63.623046875" xlink:href="#BitstreamVeraSans-Roman-2e"/>
       <use x="95.41015625" xlink:href="#BitstreamVeraSans-Roman-30"/>
      </g>
     </g>
    </g>
    <g id="ytick_4">
     <g id="line2d_9">
      <g>
       <use style="stroke:#000000;stroke-width:0.5;" x="218.16" xlink:href="#m728421d6d4" y="75.6"/>
      </g>
     </g>
     <g id="text_17">
      <!-- 0.5 -->
      <g transform="translate(199.7896875 78.359375)scale(0.1 -0.1)">
       <use xlink:href="#BitstreamVeraSans-Roman-30"/>
       <use x="63.623046875" xlink:href="#BitstreamVeraSans-Roman-2e"/>
       <use x="95.41015625" xlink:href="#BitstreamVeraSans-Roman-35"/>
      </g>
     </g>
    </g>
    <g id="ytick_5">
     <g id="line2d_10">
      <g>
       <use style="stroke:#000000;stroke-width:0.5;" x="218.16" xlink:href="#m728421d6d4" y="14.4"/>
      </g>
     </g>
     <g id="text_18">
      <!-- 1.0 -->
      <g transform="translate(200.019375 17.159375)scale(0.1 -0.1)">
       <use xlink:href="#BitstreamVeraSans-Roman-31"/>
       <use x="63.623046875" xlink:href="#BitstreamVeraSans-Roman-2e"/>
       <use x="95.41015625" xlink:href="#BitstreamVeraSans-Roman-30"/>
      </g>
     </g>
    </g>
   </g>
   <g id="text_19">
    <!-- 1Y5Y10Y -->
    <defs>
     <path d="
M-0.203125 72.9062
L10.4062 72.9062
L30.6094 42.9219
L50.6875 72.9062
L61.2812 72.9062
L35.5 34.7188
L35.5 0
L25.5938 0
L25.5938 34.7188
z
" id="BitstreamVeraSans-Roman-59"/>
    </defs>
    <g transform="translate(313.600518842 57.797555256)scale(0.1 -0.1)">
     <use xlink:href="#BitstreamVeraSans-Roman-31"/>
     <use x="63.623046875" xlink:href="#BitstreamVeraSans-Roman-59"/>
     <use x="124.70703125" xlink:href="#BitstreamVeraSans-Roman-35"/>
     <use x="188.330078125" xlink:href="#BitstreamVeraSans-Roman-59"/>
     <use x="249.4140625" xlink:href="#BitstreamVeraSans-Roman-31"/>
     <use x="313.037109375" xlink:href="#BitstreamVeraSans-Roman-30"/>
     <use x="376.66015625" xlink:href="#BitstreamVeraSans-Roman-59"/>
    </g>
   </g>
   <g id="text_20">
    <!-- 10Y15Y30Y -->
    <defs>
     <path d="
M40.5781 39.3125
Q47.6562 37.7969 51.625 33
Q55.6094 28.2188 55.6094 21.1875
Q55.6094 10.4062 48.1875 4.48438
Q40.7656 -1.42188 27.0938 -1.42188
Q22.5156 -1.42188 17.6562 -0.515625
Q12.7969 0.390625 7.625 2.20312
L7.625 11.7188
Q11.7188 9.32812 16.5938 8.10938
Q21.4844 6.89062 26.8125 6.89062
Q36.0781 6.89062 40.9375 10.5469
Q45.7969 14.2031 45.7969 21.1875
Q45.7969 27.6406 41.2812 31.2656
Q36.7656 34.9062 28.7188 34.9062
L20.2188 34.9062
L20.2188 43.0156
L29.1094 43.0156
Q36.375 43.0156 40.2344 45.9219
Q44.0938 48.8281 44.0938 54.2969
Q44.0938 59.9062 40.1094 62.9062
Q36.1406 65.9219 28.7188 65.9219
Q24.6562 65.9219 20.0156 65.0312
Q15.375 64.1562 9.8125 62.3125
L9.8125 71.0938
Q15.4375 72.6562 20.3438 73.4375
Q25.25 74.2188 29.5938 74.2188
Q40.8281 74.2188 47.3594 69.1094
Q53.9062 64.0156 53.9062 55.3281
Q53.9062 49.2656 50.4375 45.0938
Q46.9688 40.9219 40.5781 39.3125" id="BitstreamVeraSans-Roman-33"/>
    </defs>
    <g transform="translate(253.02477708 116.246793226)scale(0.1 -0.1)">
     <use xlink:href="#BitstreamVeraSans-Roman-31"/>
     <use x="63.623046875" xlink:href="#BitstreamVeraSans-Roman-30"/>
     <use x="127.24609375" xlink:href="#BitstreamVeraSans-Roman-59"/>
     <use x="188.330078125" xlink:href="#BitstreamVeraSans-Roman-31"/>
     <use x="251.953125" xlink:href="#BitstreamVeraSans-Roman-35"/>
     <use x="315.576171875" xlink:href="#BitstreamVeraSans-Roman-59"/>
     <use x="376.66015625" xlink:href="#BitstreamVeraSans-Roman-33"/>
     <use x="440.283203125" xlink:href="#BitstreamVeraSans-Roman-30"/>
     <use x="503.90625" xlink:href="#BitstreamVeraSans-Roman-59"/>
    </g>
   </g>
   <g id="text_21">
    <!-- 1Y3Y10Y -->
    <g transform="translate(323.78242698 65.6127571896)scale(0.1 -0.1)">
     <use xlink:href="#BitstreamVeraSans-Roman-31"/>
     <use x="63.623046875" xlink:href="#BitstreamVeraSans-Roman-59"/>
     <use x="124.70703125" xlink:href="#BitstreamVeraSans-Roman-33"/>
     <use x="188.330078125" xlink:href="#BitstreamVeraSans-Roman-59"/>
     <use x="249.4140625" xlink:href="#BitstreamVeraSans-Roman-31"/>
     <use x="313.037109375" xlink:href="#BitstreamVeraSans-Roman-30"/>
     <use x="376.66015625" xlink:href="#BitstreamVeraSans-Roman-59"/>
    </g>
   </g>
   <g id="text_22">
    <!-- 1Y3Y7Y -->
    <defs>
     <path d="
M8.20312 72.9062
L55.0781 72.9062
L55.0781 68.7031
L28.6094 0
L18.3125 0
L43.2188 64.5938
L8.20312 64.5938
z
" id="BitstreamVeraSans-Roman-37"/>
    </defs>
    <g transform="translate(324.571607896 53.970018516)scale(0.1 -0.1)">
     <use xlink:href="#BitstreamVeraSans-Roman-31"/>
     <use x="63.623046875" xlink:href="#BitstreamVeraSans-Roman-59"/>
     <use x="124.70703125" xlink:href="#BitstreamVeraSans-Roman-33"/>
     <use x="188.330078125" xlink:href="#BitstreamVeraSans-Roman-59"/>
     <use x="249.4140625" xlink:href="#BitstreamVeraSans-Roman-37"/>
     <use x="313.037109375" xlink:href="#BitstreamVeraSans-Roman-59"/>
    </g>
   </g>
   <g id="text_23">
    <!-- 5Y10Y15Y -->
    <g transform="translate(151.539077502 175.24322113)scale(0.1 -0.1)">
     <use xlink:href="#BitstreamVeraSans-Roman-35"/>
     <use x="63.623046875" xlink:href="#BitstreamVeraSans-Roman-59"/>
     <use x="124.70703125" xlink:href="#BitstreamVeraSans-Roman-31"/>
     <use x="188.330078125" xlink:href="#BitstreamVeraSans-Roman-30"/>
     <use x="251.953125" xlink:href="#BitstreamVeraSans-Roman-59"/>
     <use x="313.037109375" xlink:href="#BitstreamVeraSans-Roman-31"/>
     <use x="376.66015625" xlink:href="#BitstreamVeraSans-Roman-35"/>
     <use x="440.283203125" xlink:href="#BitstreamVeraSans-Roman-59"/>
    </g>
   </g>
   <g id="text_24">
    <!-- 5Y10Y30Y -->
    <g transform="translate(158.106758317 170.75120747)scale(0.1 -0.1)">
     <use xlink:href="#BitstreamVeraSans-Roman-35"/>
     <use x="63.623046875" xlink:href="#BitstreamVeraSans-Roman-59"/>
     <use x="124.70703125" xlink:href="#BitstreamVeraSans-Roman-31"/>
     <use x="188.330078125" xlink:href="#BitstreamVeraSans-Roman-30"/>
     <use x="251.953125" xlink:href="#BitstreamVeraSans-Roman-59"/>
     <use x="313.037109375" xlink:href="#BitstreamVeraSans-Roman-33"/>
     <use x="376.66015625" xlink:href="#BitstreamVeraSans-Roman-30"/>
     <use x="440.283203125" xlink:href="#BitstreamVeraSans-Roman-59"/>
    </g>
   </g>
   <g id="text_25">
    <!-- 5Y10Y20Y -->
    <defs>
     <path d="
M19.1875 8.29688
L53.6094 8.29688
L53.6094 0
L7.32812 0
L7.32812 8.29688
Q12.9375 14.1094 22.625 23.8906
Q32.3281 33.6875 34.8125 36.5312
Q39.5469 41.8438 41.4219 45.5312
Q43.3125 49.2188 43.3125 52.7812
Q43.3125 58.5938 39.2344 62.25
Q35.1562 65.9219 28.6094 65.9219
Q23.9688 65.9219 18.8125 64.3125
Q13.6719 62.7031 7.8125 59.4219
L7.8125 69.3906
Q13.7656 71.7812 18.9375 73
Q24.125 74.2188 28.4219 74.2188
Q39.75 74.2188 46.4844 68.5469
Q53.2188 62.8906 53.2188 53.4219
Q53.2188 48.9219 51.5312 44.8906
Q49.8594 40.875 45.4062 35.4062
Q44.1875 33.9844 37.6406 27.2188
Q31.1094 20.4531 19.1875 8.29688" id="BitstreamVeraSans-Roman-32"/>
    </defs>
    <g transform="translate(81.3278447028 180.222293398)scale(0.1 -0.1)">
     <use xlink:href="#BitstreamVeraSans-Roman-35"/>
     <use x="63.623046875" xlink:href="#BitstreamVeraSans-Roman-59"/>
     <use x="124.70703125" xlink:href="#BitstreamVeraSans-Roman-31"/>
     <use x="188.330078125" xlink:href="#BitstreamVeraSans-Roman-30"/>
     <use x="251.953125" xlink:href="#BitstreamVeraSans-Roman-59"/>
     <use x="313.037109375" xlink:href="#BitstreamVeraSans-Roman-32"/>
     <use x="376.66015625" xlink:href="#BitstreamVeraSans-Roman-30"/>
     <use x="440.283203125" xlink:href="#BitstreamVeraSans-Roman-59"/>
    </g>
   </g>
   <g id="text_26">
    <!-- 5Y15Y30Y -->
    <g transform="translate(73.0476914364 180.93653167)scale(0.1 -0.1)">
     <use xlink:href="#BitstreamVeraSans-Roman-35"/>
     <use x="63.623046875" xlink:href="#BitstreamVeraSans-Roman-59"/>
     <use x="124.70703125" xlink:href="#BitstreamVeraSans-Roman-31"/>
     <use x="188.330078125" xlink:href="#BitstreamVeraSans-Roman-35"/>
     <use x="251.953125" xlink:href="#BitstreamVeraSans-Roman-59"/>
     <use x="313.037109375" xlink:href="#BitstreamVeraSans-Roman-33"/>
     <use x="376.66015625" xlink:href="#BitstreamVeraSans-Roman-30"/>
     <use x="440.283203125" xlink:href="#BitstreamVeraSans-Roman-59"/>
    </g>
   </g>
   <g id="text_27">
    <!-- 1Y3Y7Y -->
    <g transform="translate(217.05588725 33.9042577464)scale(0.1 -0.1)">
     <use xlink:href="#BitstreamVeraSans-Roman-31"/>
     <use x="63.623046875" xlink:href="#BitstreamVeraSans-Roman-59"/>
     <use x="124.70703125" xlink:href="#BitstreamVeraSans-Roman-33"/>
     <use x="188.330078125" xlink:href="#BitstreamVeraSans-Roman-59"/>
     <use x="249.4140625" xlink:href="#BitstreamVeraSans-Roman-37"/>
     <use x="313.037109375" xlink:href="#BitstreamVeraSans-Roman-59"/>
    </g>
   </g>
   <g id="text_28">
    <!-- 1Y5Y10Y -->
    <g transform="translate(63.3472961472 95.8640524416)scale(0.1 -0.1)">
     <use xlink:href="#BitstreamVeraSans-Roman-31"/>
     <use x="63.623046875" xlink:href="#BitstreamVeraSans-Roman-59"/>
     <use x="124.70703125" xlink:href="#BitstreamVeraSans-Roman-35"/>
     <use x="188.330078125" xlink:href="#BitstreamVeraSans-Roman-59"/>
     <use x="249.4140625" xlink:href="#BitstreamVeraSans-Roman-31"/>
     <use x="313.037109375" xlink:href="#BitstreamVeraSans-Roman-30"/>
     <use x="376.66015625" xlink:href="#BitstreamVeraSans-Roman-59"/>
    </g>
   </g>
   <g id="text_29">
    <!-- 5Y20Y30Y -->
    <g transform="translate(207.373347245 135.556082338)scale(0.1 -0.1)">
     <use xlink:href="#BitstreamVeraSans-Roman-35"/>
     <use x="63.623046875" xlink:href="#BitstreamVeraSans-Roman-59"/>
     <use x="124.70703125" xlink:href="#BitstreamVeraSans-Roman-32"/>
     <use x="188.330078125" xlink:href="#BitstreamVeraSans-Roman-30"/>
     <use x="251.953125" xlink:href="#BitstreamVeraSans-Roman-59"/>
     <use x="313.037109375" xlink:href="#BitstreamVeraSans-Roman-33"/>
     <use x="376.66015625" xlink:href="#BitstreamVeraSans-Roman-30"/>
     <use x="440.283203125" xlink:href="#BitstreamVeraSans-Roman-59"/>
    </g>
   </g>
   <g id="text_30">
    <!-- 1Y6Y10Y -->
    <defs>
     <path d="
M33.0156 40.375
Q26.375 40.375 22.4844 35.8281
Q18.6094 31.2969 18.6094 23.3906
Q18.6094 15.5312 22.4844 10.9531
Q26.375 6.39062 33.0156 6.39062
Q39.6562 6.39062 43.5312 10.9531
Q47.4062 15.5312 47.4062 23.3906
Q47.4062 31.2969 43.5312 35.8281
Q39.6562 40.375 33.0156 40.375
M52.5938 71.2969
L52.5938 62.3125
Q48.875 64.0625 45.0938 64.9844
Q41.3125 65.9219 37.5938 65.9219
Q27.8281 65.9219 22.6719 59.3281
Q17.5312 52.7344 16.7969 39.4062
Q19.6719 43.6562 24.0156 45.9219
Q28.375 48.1875 33.5938 48.1875
Q44.5781 48.1875 50.9531 41.5156
Q57.3281 34.8594 57.3281 23.3906
Q57.3281 12.1562 50.6875 5.35938
Q44.0469 -1.42188 33.0156 -1.42188
Q20.3594 -1.42188 13.6719 8.26562
Q6.98438 17.9688 6.98438 36.375
Q6.98438 53.6562 15.1875 63.9375
Q23.3906 74.2188 37.2031 74.2188
Q40.9219 74.2188 44.7031 73.4844
Q48.4844 72.75 52.5938 71.2969" id="BitstreamVeraSans-Roman-36"/>
    </defs>
    <g transform="translate(45.9230117112 121.67698428)scale(0.1 -0.1)">
     <use xlink:href="#BitstreamVeraSans-Roman-31"/>
     <use x="63.623046875" xlink:href="#BitstreamVeraSans-Roman-59"/>
     <use x="124.70703125" xlink:href="#BitstreamVeraSans-Roman-36"/>
     <use x="188.330078125" xlink:href="#BitstreamVeraSans-Roman-59"/>
     <use x="249.4140625" xlink:href="#BitstreamVeraSans-Roman-31"/>
     <use x="313.037109375" xlink:href="#BitstreamVeraSans-Roman-30"/>
     <use x="376.66015625" xlink:href="#BitstreamVeraSans-Roman-59"/>
    </g>
   </g>
   <g id="text_31">
    <!-- 8Y9Y10Y -->
    <defs>
     <path d="
M31.7812 34.625
Q24.75 34.625 20.7188 30.8594
Q16.7031 27.0938 16.7031 20.5156
Q16.7031 13.9219 20.7188 10.1562
Q24.75 6.39062 31.7812 6.39062
Q38.8125 6.39062 42.8594 10.1719
Q46.9219 13.9688 46.9219 20.5156
Q46.9219 27.0938 42.8906 30.8594
Q38.875 34.625 31.7812 34.625
M21.9219 38.8125
Q15.5781 40.375 12.0312 44.7188
Q8.5 49.0781 8.5 55.3281
Q8.5 64.0625 14.7188 69.1406
Q20.9531 74.2188 31.7812 74.2188
Q42.6719 74.2188 48.875 69.1406
Q55.0781 64.0625 55.0781 55.3281
Q55.0781 49.0781 51.5312 44.7188
Q48 40.375 41.7031 38.8125
Q48.8281 37.1562 52.7969 32.3125
Q56.7812 27.4844 56.7812 20.5156
Q56.7812 9.90625 50.3125 4.23438
Q43.8438 -1.42188 31.7812 -1.42188
Q19.7344 -1.42188 13.25 4.23438
Q6.78125 9.90625 6.78125 20.5156
Q6.78125 27.4844 10.7812 32.3125
Q14.7969 37.1562 21.9219 38.8125
M18.3125 54.3906
Q18.3125 48.7344 21.8438 45.5625
Q25.3906 42.3906 31.7812 42.3906
Q38.1406 42.3906 41.7188 45.5625
Q45.3125 48.7344 45.3125 54.3906
Q45.3125 60.0625 41.7188 63.2344
Q38.1406 66.4062 31.7812 66.4062
Q25.3906 66.4062 21.8438 63.2344
Q18.3125 60.0625 18.3125 54.3906" id="BitstreamVeraSans-Roman-38"/>
     <path d="
M10.9844 1.51562
L10.9844 10.5
Q14.7031 8.73438 18.5 7.8125
Q22.3125 6.89062 25.9844 6.89062
Q35.75 6.89062 40.8906 13.4531
Q46.0469 20.0156 46.7812 33.4062
Q43.9531 29.2031 39.5938 26.9531
Q35.25 24.7031 29.9844 24.7031
Q19.0469 24.7031 12.6719 31.3125
Q6.29688 37.9375 6.29688 49.4219
Q6.29688 60.6406 12.9375 67.4219
Q19.5781 74.2188 30.6094 74.2188
Q43.2656 74.2188 49.9219 64.5156
Q56.5938 54.8281 56.5938 36.375
Q56.5938 19.1406 48.4062 8.85938
Q40.2344 -1.42188 26.4219 -1.42188
Q22.7031 -1.42188 18.8906 -0.6875
Q15.0938 0.046875 10.9844 1.51562
M30.6094 32.4219
Q37.25 32.4219 41.125 36.9531
Q45.0156 41.5 45.0156 49.4219
Q45.0156 57.2812 41.125 61.8438
Q37.25 66.4062 30.6094 66.4062
Q23.9688 66.4062 20.0938 61.8438
Q16.2188 57.2812 16.2188 49.4219
Q16.2188 41.5 20.0938 36.9531
Q23.9688 32.4219 30.6094 32.4219" id="BitstreamVeraSans-Roman-39"/>
    </defs>
    <g transform="translate(238.443638155 174.45535069)scale(0.1 -0.1)">
     <use xlink:href="#BitstreamVeraSans-Roman-38"/>
     <use x="63.623046875" xlink:href="#BitstreamVeraSans-Roman-59"/>
     <use x="124.70703125" xlink:href="#BitstreamVeraSans-Roman-39"/>
     <use x="188.330078125" xlink:href="#BitstreamVeraSans-Roman-59"/>
     <use x="249.4140625" xlink:href="#BitstreamVeraSans-Roman-31"/>
     <use x="313.037109375" xlink:href="#BitstreamVeraSans-Roman-30"/>
     <use x="376.66015625" xlink:href="#BitstreamVeraSans-Roman-59"/>
    </g>
   </g>
   <g id="text_32">
    <!-- 2Y3Y5Y -->
    <g transform="translate(302.125639835 142.492523508)scale(0.1 -0.1)">
     <use xlink:href="#BitstreamVeraSans-Roman-32"/>
     <use x="63.623046875" xlink:href="#BitstreamVeraSans-Roman-59"/>
     <use x="124.70703125" xlink:href="#BitstreamVeraSans-Roman-33"/>
     <use x="188.330078125" xlink:href="#BitstreamVeraSans-Roman-59"/>
     <use x="249.4140625" xlink:href="#BitstreamVeraSans-Roman-35"/>
     <use x="313.037109375" xlink:href="#BitstreamVeraSans-Roman-59"/>
    </g>
   </g>
   <g id="text_33">
    <!-- 2Y7Y10Y -->
    <g transform="translate(267.946884522 165.680443771)scale(0.1 -0.1)">
     <use xlink:href="#BitstreamVeraSans-Roman-32"/>
     <use x="63.623046875" xlink:href="#BitstreamVeraSans-Roman-59"/>
     <use x="124.70703125" xlink:href="#BitstreamVeraSans-Roman-37"/>
     <use x="188.330078125" xlink:href="#BitstreamVeraSans-Roman-59"/>
     <use x="249.4140625" xlink:href="#BitstreamVeraSans-Roman-31"/>
     <use x="313.037109375" xlink:href="#BitstreamVeraSans-Roman-30"/>
     <use x="376.66015625" xlink:href="#BitstreamVeraSans-Roman-59"/>
    </g>
   </g>
   <g id="text_34">
    <!-- 3Y6Y10Y -->
    <g transform="translate(219.389062464 160.903970064)scale(0.1 -0.1)">
     <use xlink:href="#BitstreamVeraSans-Roman-33"/>
     <use x="63.623046875" xlink:href="#BitstreamVeraSans-Roman-59"/>
     <use x="124.70703125" xlink:href="#BitstreamVeraSans-Roman-36"/>
     <use x="188.330078125" xlink:href="#BitstreamVeraSans-Roman-59"/>
     <use x="249.4140625" xlink:href="#BitstreamVeraSans-Roman-31"/>
     <use x="313.037109375" xlink:href="#BitstreamVeraSans-Roman-30"/>
     <use x="376.66015625" xlink:href="#BitstreamVeraSans-Roman-59"/>
    </g>
   </g>
  </g>
 </g>
 <defs>
  <clipPath id="p6a2b6ff79c">
   <rect height="244.8" width="367.2" x="34.56" y="14.4"/>
  </clipPath>
 </defs>
</svg>
