<?xml version="1.0" encoding="utf-8" standalone="no"?>
<!DOCTYPE svg PUBLIC "-//W3C//DTD SVG 1.1//EN"
  "http://www.w3.org/Graphics/SVG/1.1/DTD/svg11.dtd">
<!-- Created with matplotlib (http://matplotlib.org/) -->
<svg height="150pt" version="1.1" viewBox="0 0 244 150" width="244pt" xmlns="http://www.w3.org/2000/svg" xmlns:xlink="http://www.w3.org/1999/xlink">
 <defs>
  <style type="text/css">
*{stroke-linecap:butt;stroke-linejoin:round;}
  </style>
 </defs>
 <g id="figure_1">
  <g id="patch_1">
   <path d="
M0 150.85
L244.08 150.85
L244.08 0
L0 0
z
" style="fill:#ffffff;"/>
  </g>
  <g id="axes_1">
   <g id="patch_2">
    <path d="
M0 150.85
L244.08 150.85
L244.08 0
L0 0
z
" style="fill:#ffffff;"/>
   </g>
   <g id="patch_3">
    <path clip-path="url(#pfff7fd3862)" d="
M228.825 150.85
L234.927 150.85
L234.927 127.533
L228.825 127.533
z
" style="fill:#0000ff;opacity:0.8;"/>
   </g>
   <g id="patch_4">
    <path clip-path="url(#pfff7fd3862)" d="
M190.688 150.85
L196.79 150.85
L196.79 124.874
L190.688 124.874
z
" style="fill:#0000ff;opacity:0.8;"/>
   </g>
   <g id="patch_5">
    <path clip-path="url(#pfff7fd3862)" d="
M152.55 150.85
L158.652 150.85
L158.652 121.077
L152.55 121.077
z
" style="fill:#0000ff;opacity:0.8;"/>
   </g>
   <g id="patch_6">
    <path clip-path="url(#pfff7fd3862)" d="
M144.923 150.85
L151.025 150.85
L151.025 120.116
L144.923 120.116
z
" style="fill:#0000ff;opacity:0.8;"/>
   </g>
   <g id="patch_7">
    <path clip-path="url(#pfff7fd3862)" d="
M137.295 150.85
L143.397 150.85
L143.397 119.078
L137.295 119.078
z
" style="fill:#0000ff;opacity:0.8;"/>
   </g>
   <g id="patch_8">
    <path clip-path="url(#pfff7fd3862)" d="
M129.668 150.85
L135.77 150.85
L135.77 117.945
L129.668 117.945
z
" style="fill:#0000ff;opacity:0.8;"/>
   </g>
   <g id="patch_9">
    <path clip-path="url(#pfff7fd3862)" d="
M122.04 150.85
L128.142 150.85
L128.142 116.712
L122.04 116.712
z
" style="fill:#0000ff;opacity:0.8;"/>
   </g>
   <g id="patch_10">
    <path clip-path="url(#pfff7fd3862)" d="
M114.413 150.85
L120.515 150.85
L120.515 115.354
L114.413 115.354
z
" style="fill:#0000ff;opacity:0.8;"/>
   </g>
   <g id="patch_11">
    <path clip-path="url(#pfff7fd3862)" d="
M106.785 150.85
L112.887 150.85
L112.887 113.859
L106.785 113.859
z
" style="fill:#0000ff;opacity:0.8;"/>
   </g>
   <g id="patch_12">
    <path clip-path="url(#pfff7fd3862)" d="
M99.1575 150.85
L105.26 150.85
L105.26 112.193
L99.1575 112.193
z
" style="fill:#0000ff;opacity:0.8;"/>
   </g>
   <g id="patch_13">
    <path clip-path="url(#pfff7fd3862)" d="
M91.53 150.85
L97.632 150.85
L97.632 110.373
L91.53 110.373
z
" style="fill:#0000ff;opacity:0.8;"/>
   </g>
   <g id="patch_14">
    <path clip-path="url(#pfff7fd3862)" d="
M83.9025 150.85
L90.0045 150.85
L90.0045 108.35
L83.9025 108.35
z
" style="fill:#0000ff;opacity:0.8;"/>
   </g>
   <g id="patch_15">
    <path clip-path="url(#pfff7fd3862)" d="
M76.275 150.85
L82.377 150.85
L82.377 106.089
L76.275 106.089
z
" style="fill:#0000ff;opacity:0.8;"/>
   </g>
   <g id="patch_16">
    <path clip-path="url(#pfff7fd3862)" d="
M68.6475 150.85
L74.7495 150.85
L74.7495 103.542
L68.6475 103.542
z
" style="fill:#0000ff;opacity:0.8;"/>
   </g>
   <g id="patch_17">
    <path clip-path="url(#pfff7fd3862)" d="
M61.02 150.85
L67.122 150.85
L67.122 100.684
L61.02 100.684
z
" style="fill:#0000ff;opacity:0.8;"/>
   </g>
   <g id="patch_18">
    <path clip-path="url(#pfff7fd3862)" d="
M53.3925 150.85
L59.4945 150.85
L59.4945 97.5166
L53.3925 97.5166
z
" style="fill:#0000ff;opacity:0.8;"/>
   </g>
   <g id="patch_19">
    <path clip-path="url(#pfff7fd3862)" d="
M45.765 150.85
L51.867 150.85
L51.867 94.1945
L45.765 94.1945
z
" style="fill:#0000ff;opacity:0.8;"/>
   </g>
   <g id="patch_20">
    <path clip-path="url(#pfff7fd3862)" d="
M38.1375 150.85
L44.2395 150.85
L44.2395 90.8043
L38.1375 90.8043
z
" style="fill:#0000ff;opacity:0.8;"/>
   </g>
   <g id="patch_21">
    <path clip-path="url(#pfff7fd3862)" d="
M30.51 150.85
L36.612 150.85
L36.612 87.363
L30.51 87.363
z
" style="fill:#0000ff;opacity:0.8;"/>
   </g>
   <g id="patch_22">
    <path clip-path="url(#pfff7fd3862)" d="
M22.8825 150.85
L28.9845 150.85
L28.9845 84.6884
L22.8825 84.6884
z
" style="fill:#0000ff;opacity:0.8;"/>
   </g>
   <g id="patch_23">
    <path clip-path="url(#pfff7fd3862)" d="
M15.255 150.85
L21.357 150.85
L21.357 84.9871
L15.255 84.9871
z
" style="fill:#0000ff;opacity:0.8;"/>
   </g>
   <g id="patch_24">
    <path clip-path="url(#pfff7fd3862)" d="
M7.6275 150.85
L13.7295 150.85
L13.7295 94.1634
L7.6275 94.1634
z
" style="fill:#0000ff;opacity:0.8;"/>
   </g>
   <g id="patch_25">
    <path clip-path="url(#pfff7fd3862)" d="
M228.825 127.533
L234.927 127.533
L234.927 126.583
L228.825 126.583
z
" style="fill:#ff0000;opacity:0.8;"/>
   </g>
   <g id="patch_26">
    <path clip-path="url(#pfff7fd3862)" d="
M190.688 124.874
L196.79 124.874
L196.79 123.066
L190.688 123.066
z
" style="fill:#ff0000;opacity:0.8;"/>
   </g>
   <g id="patch_27">
    <path clip-path="url(#pfff7fd3862)" d="
M152.55 121.077
L158.652 121.077
L158.652 117.813
L152.55 117.813
z
" style="fill:#ff0000;opacity:0.8;"/>
   </g>
   <g id="patch_28">
    <path clip-path="url(#pfff7fd3862)" d="
M144.923 120.116
L151.025 120.116
L151.025 116.289
L144.923 116.289
z
" style="fill:#ff0000;opacity:0.8;"/>
   </g>
   <g id="patch_29">
    <path clip-path="url(#pfff7fd3862)" d="
M137.295 119.078
L143.397 119.078
L143.397 114.684
L137.295 114.684
z
" style="fill:#ff0000;opacity:0.8;"/>
   </g>
   <g id="patch_30">
    <path clip-path="url(#pfff7fd3862)" d="
M129.668 117.945
L135.77 117.945
L135.77 112.898
L129.668 112.898
z
" style="fill:#ff0000;opacity:0.8;"/>
   </g>
   <g id="patch_31">
    <path clip-path="url(#pfff7fd3862)" d="
M122.04 116.712
L128.142 116.712
L128.142 110.953
L122.04 110.953
z
" style="fill:#ff0000;opacity:0.8;"/>
   </g>
   <g id="patch_32">
    <path clip-path="url(#pfff7fd3862)" d="
M114.413 115.354
L120.515 115.354
L120.515 108.705
L114.413 108.705
z
" style="fill:#ff0000;opacity:0.8;"/>
   </g>
   <g id="patch_33">
    <path clip-path="url(#pfff7fd3862)" d="
M106.785 113.859
L112.887 113.859
L112.887 105.889
L106.785 105.889
z
" style="fill:#ff0000;opacity:0.8;"/>
   </g>
   <g id="patch_34">
    <path clip-path="url(#pfff7fd3862)" d="
M99.1575 112.193
L105.26 112.193
L105.26 103.027
L99.1575 103.027
z
" style="fill:#ff0000;opacity:0.8;"/>
   </g>
   <g id="patch_35">
    <path clip-path="url(#pfff7fd3862)" d="
M91.53 110.373
L97.632 110.373
L97.632 99.4922
L91.53 99.4922
z
" style="fill:#ff0000;opacity:0.8;"/>
   </g>
   <g id="patch_36">
    <path clip-path="url(#pfff7fd3862)" d="
M83.9025 108.35
L90.0045 108.35
L90.0045 95.473
L83.9025 95.473
z
" style="fill:#ff0000;opacity:0.8;"/>
   </g>
   <g id="patch_37">
    <path clip-path="url(#pfff7fd3862)" d="
M76.275 106.089
L82.377 106.089
L82.377 91.2228
L76.275 91.2228
z
" style="fill:#ff0000;opacity:0.8;"/>
   </g>
   <g id="patch_38">
    <path clip-path="url(#pfff7fd3862)" d="
M68.6475 103.542
L74.7495 103.542
L74.7495 85.9492
L68.6475 85.9492
z
" style="fill:#ff0000;opacity:0.8;"/>
   </g>
   <g id="patch_39">
    <path clip-path="url(#pfff7fd3862)" d="
M61.02 100.684
L67.122 100.684
L67.122 79.1497
L61.02 79.1497
z
" style="fill:#ff0000;opacity:0.8;"/>
   </g>
   <g id="patch_40">
    <path clip-path="url(#pfff7fd3862)" d="
M53.3925 97.5166
L59.4945 97.5166
L59.4945 70.5731
L53.3925 70.5731
z
" style="fill:#ff0000;opacity:0.8;"/>
   </g>
   <g id="patch_41">
    <path clip-path="url(#pfff7fd3862)" d="
M45.765 94.1945
L51.867 94.1945
L51.867 60.2237
L45.765 60.2237
z
" style="fill:#ff0000;opacity:0.8;"/>
   </g>
   <g id="patch_42">
    <path clip-path="url(#pfff7fd3862)" d="
M38.1375 90.8043
L44.2395 90.8043
L44.2395 49.919
L38.1375 49.919
z
" style="fill:#ff0000;opacity:0.8;"/>
   </g>
   <g id="patch_43">
    <path clip-path="url(#pfff7fd3862)" d="
M30.51 87.363
L36.612 87.363
L36.612 37.792
L30.51 37.792
z
" style="fill:#ff0000;opacity:0.8;"/>
   </g>
   <g id="patch_44">
    <path clip-path="url(#pfff7fd3862)" d="
M22.8825 84.6884
L28.9845 84.6884
L28.9845 21.919
L22.8825 21.919
z
" style="fill:#ff0000;opacity:0.8;"/>
   </g>
   <g id="patch_45">
    <path clip-path="url(#pfff7fd3862)" d="
M15.255 84.9871
L21.357 84.9871
L21.357 11.0888
L15.255 11.0888
z
" style="fill:#ff0000;opacity:0.8;"/>
   </g>
   <g id="patch_46">
    <path clip-path="url(#pfff7fd3862)" d="
M7.6275 94.1634
L13.7295 94.1634
L13.7295 28.4631
L7.6275 28.4631
z
" style="fill:#ff0000;opacity:0.8;"/>
   </g>
   <g id="patch_47">
    <path d="
M0 0
L244.08 0" style="fill:none;"/>
   </g>
   <g id="patch_48">
    <path d="
M244.08 150.85
L244.08 0" style="fill:none;"/>
   </g>
   <g id="patch_49">
    <path d="
M0 150.85
L244.08 150.85" style="fill:none;stroke:#000000;stroke-linecap:square;stroke-linejoin:miter;stroke-width:0.3;"/>
   </g>
   <g id="patch_50">
    <path d="
M0 150.85
L0 0" style="fill:none;stroke:#000000;stroke-linecap:square;stroke-linejoin:miter;stroke-width:0.3;"/>
   </g>
   <g id="matplotlib.axis_1">
    <g id="xtick_1">
     <g id="line2d_1">
      <defs>
       <path d="
M0 0
L0 -4" id="m93b0483c22" style="stroke:#000000;stroke-width:0.5;"/>
      </defs>
      <g>
       <use style="stroke:#000000;stroke-width:0.5;" x="0.0" xlink:href="#m93b0483c22" y="150.849735974"/>
      </g>
     </g>
     <g id="text_1">
      <!-- $0$ -->
      <defs>
       <path d="
M42 31.6406
C42 37.75 41.9062 48.125 37.7031 56.1094
C34 63.1094 28.0938 65.5938 22.9062 65.5938
C18.0938 65.5938 12 63.4062 8.20312 56.2031
C4.20312 48.7188 3.79688 39.4375 3.79688 31.6406
C3.79688 25.9531 3.90625 17.2812 7 9.67188
C11.2969 -0.609375 19 -2 22.9062 -2
C27.5 -2 34.5 -0.109375 38.5938 9.375
C41.5938 16.2812 42 24.3594 42 31.6406
M22.9062 -0.40625
C16.5 -0.40625 12.7031 5.07812 11.2969 12.6875
C10.2031 18.5625 10.2031 27.1562 10.2031 32.75
C10.2031 40.4375 10.2031 46.8281 11.5 52.9219
C13.4062 61.3906 19 64 22.9062 64
C27 64 32.2969 61.2969 34.2031 53.125
C35.5 47.4375 35.5938 40.7344 35.5938 32.75
C35.5938 26.25 35.5938 18.2656 34.4062 12.375
C32.2969 1.48438 26.4062 -0.40625 22.9062 -0.40625" id="CMR17-48"/>
      </defs>
      <g transform="translate(-2.11709142474 160.763502951)scale(0.08 -0.08)">
       <use transform="scale(0.996264009963)" xlink:href="#CMR17-48"/>
      </g>
     </g>
    </g>
    <g id="xtick_2">
     <g id="line2d_2">
      <g>
       <use style="stroke:#000000;stroke-width:0.5;" x="38.1375" xlink:href="#m93b0483c22" y="150.849735974"/>
      </g>
     </g>
     <g id="text_2">
      <!-- $5$ -->
      <defs>
       <path d="
M11.4062 57.6875
C12.4062 57.2812 16.5 56 20.7031 56
C30 56 35.0938 61.1094 38 64.0625
C38 64.9531 38 65.5 37.4062 65.5
C37.2969 65.5 37.0938 65.5 36.2969 65.0469
C32.7969 63.4062 28.7031 62.0781 23.7031 62.0781
C20.7031 62.0781 16.2031 62.4844 11.2969 64.6719
C10.2031 65.1719 10 65.1719 9.90625 65.1719
C9.40625 65.1719 9.29688 65.0625 9.29688 63.0781
L9.29688 34.4219
C9.29688 32.6406 9.29688 32.1406 10.2969 32.1406
C10.7969 32.1406 11 32.3438 11.5 33.0312
C14.7031 37.5156 19.0938 39.4062 24.0938 39.4062
C27.5938 39.4062 35.0938 37.2188 35.0938 20.1406
C35.0938 16.9531 35.0938 11.1719 32.0938 6.57812
C29.5938 2.48438 25.7031 0.390625 21.4062 0.390625
C14.7969 0.390625 8.09375 5 6.29688 12.7188
C6.70312 12.6094 7.5 12.4219 7.90625 12.4219
C9.20312 12.4219 11.7031 13.125 11.7031 16.2188
C11.7031 18.9062 9.79688 20 7.90625 20
C5.59375 20 4.09375 18.5938 4.09375 15.7969
C4.09375 7.09375 11 -2 21.5938 -2
C31.9062 -2 41.7031 6.875 41.7031 19.75
C41.7031 31.7188 33.9062 41 24.2031 41
C19.0938 41 14.7969 39.1094 11.4062 35.5312
z
" id="CMR17-53"/>
      </defs>
      <g transform="translate(36.0204085753 160.763502951)scale(0.08 -0.08)">
       <use transform="scale(0.996264009963)" xlink:href="#CMR17-53"/>
      </g>
     </g>
    </g>
    <g id="xtick_3">
     <g id="line2d_3">
      <g>
       <use style="stroke:#000000;stroke-width:0.5;" x="76.275" xlink:href="#m93b0483c22" y="150.849735974"/>
      </g>
     </g>
     <g id="text_3">
      <!-- $10$ -->
      <defs>
       <path d="
M26.5938 63.4062
C26.5938 65.5 26.5 65.5 25.0938 65.5
C21.2031 61.1875 15.2969 59.7969 9.70312 59.7969
C9.40625 59.7969 8.90625 59.7969 8.79688 59.5
C8.70312 59.2969 8.70312 59.0938 8.70312 57
C11.7969 57 17 57.5938 21 59.9844
L21 7.20312
C21 3.6875 20.7969 2.5 12.2031 2.5
L9.20312 2.5
L9.20312 0
C14 0 19 0 23.7969 0
C28.5938 0 33.5938 0 38.4062 0
L38.4062 2.5
L35.4062 2.5
C26.7969 2.5 26.5938 3.59375 26.5938 7.15625
z
" id="CMR17-49"/>
      </defs>
      <g transform="translate(72.0408171505 160.763502951)scale(0.08 -0.08)">
       <use transform="scale(0.996264009963)" xlink:href="#CMR17-49"/>
       <use transform="translate(45.6904771171 0.0)scale(0.996264009963)" xlink:href="#CMR17-48"/>
      </g>
     </g>
    </g>
    <g id="xtick_4">
     <g id="line2d_4">
      <g>
       <use style="stroke:#000000;stroke-width:0.5;" x="114.4125" xlink:href="#m93b0483c22" y="150.849735974"/>
      </g>
     </g>
     <g id="text_4">
      <!-- $15$ -->
      <g transform="translate(110.178317151 160.763502951)scale(0.08 -0.08)">
       <use transform="scale(0.996264009963)" xlink:href="#CMR17-49"/>
       <use transform="translate(45.6904771171 0.0)scale(0.996264009963)" xlink:href="#CMR17-53"/>
      </g>
     </g>
    </g>
    <g id="xtick_5">
     <g id="line2d_5">
      <g>
       <use style="stroke:#000000;stroke-width:0.5;" x="152.55" xlink:href="#m93b0483c22" y="150.849735974"/>
      </g>
     </g>
     <g id="text_5">
      <!-- $20$ -->
      <defs>
       <path d="
M41.7031 15.4531
L39.9062 15.4531
C38.9062 8.375 38.0938 7.17188 37.7031 6.5625
C37.2031 5.76562 30 5.76562 28.5938 5.76562
L9.40625 5.76562
C13 9.67188 20 16.75 28.5 24.9531
C34.5938 30.7344 41.7031 37.5312 41.7031 47.4219
C41.7031 59.2188 32.2969 66 21.7969 66
C10.7969 66 4.09375 56.3125 4.09375 47.3438
C4.09375 43.4375 7 42.9375 8.20312 42.9375
C9.20312 42.9375 12.2031 43.5469 12.2031 47.0312
C12.2031 50.1094 9.59375 51 8.20312 51
C7.59375 51 7 50.9062 6.59375 50.7031
C8.5 59.2188 14.2969 63.4062 20.4062 63.4062
C29.0938 63.4062 34.7969 56.5156 34.7969 47.4219
C34.7969 38.7344 29.7031 31.25 24 24.75
L4.09375 2.28125
L4.09375 0
L39.2969 0
z
" id="CMR17-50"/>
      </defs>
      <g transform="translate(148.315817151 160.763502951)scale(0.08 -0.08)">
       <use transform="scale(0.996264009963)" xlink:href="#CMR17-50"/>
       <use transform="translate(45.6904771171 0.0)scale(0.996264009963)" xlink:href="#CMR17-48"/>
      </g>
     </g>
    </g>
    <g id="xtick_6">
     <g id="line2d_6">
      <g>
       <use style="stroke:#000000;stroke-width:0.5;" x="190.6875" xlink:href="#m93b0483c22" y="150.849735974"/>
      </g>
     </g>
     <g id="text_6">
      <!-- $25$ -->
      <g transform="translate(186.453317151 160.763502951)scale(0.08 -0.08)">
       <use transform="scale(0.996264009963)" xlink:href="#CMR17-50"/>
       <use transform="translate(45.6904771171 0.0)scale(0.996264009963)" xlink:href="#CMR17-53"/>
      </g>
     </g>
    </g>
    <g id="xtick_7">
     <g id="line2d_7">
      <g>
       <use style="stroke:#000000;stroke-width:0.5;" x="228.825" xlink:href="#m93b0483c22" y="150.849735974"/>
      </g>
     </g>
     <g id="text_7">
      <!-- $30$ -->
      <defs>
       <path d="
M22.0938 33.7031
C31 33.7031 34.9062 25.9688 34.9062 17.0312
C34.9062 5 28.5 0.390625 22.7031 0.390625
C17.4062 0.390625 8.79688 3.03125 6.09375 10.8281
C6.59375 10.625 7.09375 10.625 7.59375 10.625
C10 10.625 11.7969 12.2188 11.7969 14.8125
C11.7969 17.7031 9.59375 19 7.59375 19
C5.90625 19 3.29688 18.2031 3.29688 14.4688
C3.29688 5.23438 12.2969 -2 22.9062 -2
C34 -2 42.5 6.71875 42.5 16.9531
C42.5 26.6719 34.5 33.6875 25 34.7969
C32.5938 36.375 39.9062 43.0625 39.9062 52.0156
C39.9062 59.6875 32 65.2969 23 65.2969
C13.9062 65.2969 5.90625 59.8281 5.90625 52.0156
C5.90625 48.5938 8.5 48 9.79688 48
C11.9062 48 13.7031 49.2969 13.7031 51.8906
C13.7031 54.4688 11.9062 55.7656 9.79688 55.7656
C9.40625 55.7656 8.90625 55.7656 8.5 55.5781
C11.4062 61.8594 19.2969 63 22.7969 63
C26.2969 63 32.9062 61.3281 32.9062 51.875
C32.9062 49.1094 32.5 44.1875 29.0938 39.8438
C26.0938 36 22.7031 36 19.4062 35.6875
C18.9062 35.6875 16.5938 35.4531 16.2031 35.4531
C15.5 35.3594 15.0938 35.2656 15.0938 34.5
C15.0938 33.7969 15.2031 33.7031 17.2031 33.7031
z
" id="CMR17-51"/>
      </defs>
      <g transform="translate(224.590817151 160.763502951)scale(0.08 -0.08)">
       <use transform="scale(0.996264009963)" xlink:href="#CMR17-51"/>
       <use transform="translate(45.6904771171 0.0)scale(0.996264009963)" xlink:href="#CMR17-48"/>
      </g>
     </g>
    </g>
   </g>
   <g id="matplotlib.axis_2">
    <g id="ytick_1">
     <g id="line2d_8">
      <defs>
       <path d="
M0 0
L4 0" id="m728421d6d4" style="stroke:#000000;stroke-width:0.5;"/>
      </defs>
      <g>
       <use style="stroke:#000000;stroke-width:0.5;" x="0.0" xlink:href="#m728421d6d4" y="150.849735974"/>
      </g>
     </g>
     <g id="text_8">
      <!-- $0$ -->
      <g transform="translate(-8.23418284947 153.049471889)scale(0.08 -0.08)">
       <use transform="scale(0.996264009963)" xlink:href="#CMR17-48"/>
      </g>
     </g>
    </g>
    <g id="ytick_2">
     <g id="line2d_9">
      <g>
       <use style="stroke:#000000;stroke-width:0.5;" x="0.0" xlink:href="#m728421d6d4" y="113.137301981"/>
      </g>
     </g>
     <g id="text_9">
      <!-- $5$ -->
      <g transform="translate(-8.23418284947 115.337037895)scale(0.08 -0.08)">
       <use transform="scale(0.996264009963)" xlink:href="#CMR17-53"/>
      </g>
     </g>
    </g>
    <g id="ytick_3">
     <g id="line2d_10">
      <g>
       <use style="stroke:#000000;stroke-width:0.5;" x="0.0" xlink:href="#m728421d6d4" y="75.424867987"/>
      </g>
     </g>
     <g id="text_10">
      <!-- $10$ -->
      <g transform="translate(-12.4683656989 77.6246039017)scale(0.08 -0.08)">
       <use transform="scale(0.996264009963)" xlink:href="#CMR17-49"/>
       <use transform="translate(45.6904771171 0.0)scale(0.996264009963)" xlink:href="#CMR17-48"/>
      </g>
     </g>
    </g>
    <g id="ytick_4">
     <g id="line2d_11">
      <g>
       <use style="stroke:#000000;stroke-width:0.5;" x="0.0" xlink:href="#m728421d6d4" y="37.7124339935"/>
      </g>
     </g>
     <g id="text_11">
      <!-- $15$ -->
      <g transform="translate(-12.4683656989 39.9121699082)scale(0.08 -0.08)">
       <use transform="scale(0.996264009963)" xlink:href="#CMR17-49"/>
       <use transform="translate(45.6904771171 0.0)scale(0.996264009963)" xlink:href="#CMR17-53"/>
      </g>
     </g>
    </g>
    <g id="ytick_5">
     <g id="line2d_12">
      <g>
       <use style="stroke:#000000;stroke-width:0.5;" x="0.0" xlink:href="#m728421d6d4" y="0.0"/>
      </g>
     </g>
     <g id="text_12">
      <!-- $20$ -->
      <g transform="translate(-12.4683656989 2.19973591464)scale(0.08 -0.08)">
       <use transform="scale(0.996264009963)" xlink:href="#CMR17-50"/>
       <use transform="translate(45.6904771171 0.0)scale(0.996264009963)" xlink:href="#CMR17-48"/>
      </g>
     </g>
    </g>
   </g>
   <g id="text_13">
    <!-- OutRights(carry/roll) -->
    <defs>
     <path d="
M19.4062 47
L19.4062 67
L15.2969 67
C14.2969 53.875 9.90625 47.1875 1.79688 46.5938
L1.79688 42.7031
L10 42.7031
L10 17.2656
C10 10.2812 10.2031 7.78125 11.2031 5.48438
C12.7969 1.29688 16.7969 -1 22.5938 -1
C26.5 -1 29.9062 0.203125 32.2031 2.39062
C35.5 5.59375 37.4062 10.875 37.4062 16.375
C37.4062 16.9688 37.4062 17.6719 37.2969 18.6719
L33.0938 18.6719
C32.7969 9.6875 30.2031 5.09375 25.2969 5.09375
C23 5.09375 21 6.28125 20.2969 7.98438
C19.7031 9.375 19.4062 11.875 19.4062 15.4688
L19.4062 42.7031
L34.0938 42.7031
L34.0938 47
z
" id="Century_Schoolbook_L_Roman-116"/>
     <path d="
M41.2031 0
L59.4062 0
L59.4062 4.70312
L56.9062 4.70312
C51.4062 4.70312 50.5938 5.59375 50.5938 11.9531
L50.5938 46.7812
L31.7969 46.7812
L31.7969 42
L36.9062 42
C40.5938 42 41.2031 41.2969 41.2031 36.9531
L41.2031 24.5625
C41.2031 18.8125 40.5938 15.4844 39.0938 12.1562
C37 7.71875 33 5.09375 28.0938 5.09375
C25 5.09375 22.4062 6.1875 21.0938 8.17188
C19.7969 10.0469 19.5938 11.0469 19.5938 16.5
L19.5938 46.7812
L2.09375 46.7812
L2.09375 42
L5.90625 42
C9.59375 42 10.2031 41.2969 10.2031 36.9531
L10.2031 15.2188
C10.2031 10.0781 10.5938 7.76562 12.0938 5.45312
C14.7969 1.3125 19.5938 -1 25.5938 -1
C32.2031 -1 36.7969 1.71875 41.2031 8.125
z
" id="Century_Schoolbook_L_Roman-117"/>
     <path d="
M19.5938 7.59375
C14.0938 7.59375 13.7969 7.70312 12.5938 8.46875
C11.9062 8.90625 11.4062 10.1094 11.4062 11.2969
C11.4062 14.5781 14.0938 16 20.7969 16
C30.2969 16 31.7969 16.2031 35.0938 17.6875
C41.0938 20.3594 44.5 25.4844 44.5 31.9844
C44.5 35.9219 43.5938 38.3906 40.7969 41.6406
C42.5 43.4062 43.4062 44 44.2031 44
C44.7031 44 45 43.6875 45.2031 42.625
C45.5938 40.2656 47.2031 39 49.7031 39
C52.2031 39 54.2031 41.0938 54.2031 43.7812
C54.2031 47.1875 51.5 49.5781 47.5938 49.5781
C44.4062 49.5781 42.5938 48.5625 38 44.2969
C33.7969 47.0938 30.5938 48.0781 25.5938 48.0781
C13.7031 48.0781 5.90625 41.625 5.90625 31.8125
C5.90625 26.0312 9.09375 21.0312 14.2969 18.6875
C7.59375 17.1562 4.79688 14.0938 4.79688 8.46875
C4.79688 3.98438 6.79688 1.32812 11.5 -0.296875
C5.29688 -2.48438 2.29688 -5.67188 2.29688 -9.75
C2.29688 -16.3125 10 -20 23.4062 -20
C40.0938 -20 48.5 -14.7188 48.5 -4.25
C48.5 0.71875 46.2031 4.6875 42.5 6.1875
C39.9062 7.1875 36.7031 7.59375 29.7969 7.59375
z

M25.5 44
C31.7969 44 35.2969 39.6719 35.2969 32.0938
C35.2969 24.4219 31.5 19.7812 25.0938 19.7812
C18.9062 19.7812 15 24.4219 15 31.7969
C15 39.5625 18.7969 44 25.5 44
M24.5938 -1
C32.9062 -1 33.5 -1 35 -1.1875
C39 -1.59375 41.5 -3.78125 41.5 -6.95312
C41.5 -12.625 35 -15.9062 23.7969 -15.9062
C15.4062 -15.9062 10.5938 -13.4219 10.5938 -8.95312
C10.5938 -5.67188 12.4062 -3.46875 17.2031 -1
z
" id="Century_Schoolbook_L_Roman-103"/>
     <path d="
M39 48
L35.5 48
L32.5938 44.4062
C29 47.2031 25.4062 48.3906 20.4062 48.3906
C11.5938 48.3906 5.79688 42.625 5.79688 33.9531
C5.79688 30.0781 7.09375 26.7812 9.29688 24.8125
C11.5938 22.7031 13.9062 21.7188 19.9062 20.3125
L25.2031 19.125
C33.0938 17.2344 35.9062 15.2344 35.9062 11.2656
C35.9062 6.57812 31.7969 3.29688 25.9062 3.29688
C17.5 3.29688 11.5 8.76562 9.09375 18.875
L5.09375 18.875
L5.09375 0
L8.59375 0
L12.0938 3.90625
C16.2031 0.59375 20.7969 -1 25.7969 -1
C35.5938 -1 42.0938 5.07812 42.0938 14.3438
C42.0938 18.7188 40.7031 22.0938 37.9062 24.3906
C35.5 26.4844 33.5 27.2812 27.4062 28.5625
L22.4062 29.6719
C16.9062 30.8594 16.9062 30.8594 15.0938 31.8594
C12.9062 32.8594 11.5938 34.9375 11.5938 37.1406
C11.5938 41.1094 15.4062 44 20.9062 44
C24.7031 44 27.7969 42.7031 30.5938 40.0156
C32.7969 37.8125 33.9062 35.8281 35.5 31.2344
L39 31.2344
z
" id="Century_Schoolbook_L_Roman-115"/>
     <path d="
M20.5938 46
L1.79688 46
L1.79688 41.2188
L6.90625 41.2188
C10.5938 41.2188 11.2031 40.5156 11.2031 36.2031
L11.2031 12.2969
L11.2031 8.29688
C11.2031 4.29688 10.0938 3.59375 3.70312 3.59375
L3 3.59375
L3 0
L28.9062 0
L28.9062 3.59375
L28.2031 3.59375
C21.7031 3.59375 20.5938 4.28125 20.5938 8.21875
L20.5938 12.1719
z

M15.9062 71.5781
C12.7031 71.5781 10.0938 68.9844 10.0938 65.7969
C10.0938 62.7031 12.7031 60 15.7969 60
C19.0938 60 21.7031 62.5938 21.7031 65.7969
C21.7031 68.9844 19.0938 71.5781 15.9062 71.5781" id="Century_Schoolbook_L_Roman-105"/>
     <path d="
M20 73
L1.5 73
L1.5 68.2188
L6.29688 68.2188
C10 68.2188 10.5938 67.5156 10.5938 63.2188
L10.5938 12.2812
L10.5938 8.28125
C10.5938 4.29688 9.5 3.59375 3.09375 3.59375
L2.70312 3.59375
L2.70312 0
L28 0
L28 3.59375
L27.5938 3.59375
C21.0938 3.59375 20 4.29688 20 8.28125
L20 12.2812
L20 22.5625
C20 27.5469 20.7031 32.0312 21.7969 34.3281
C23.9062 38.8281 28.4062 41.9219 32.7031 41.9219
C35.2969 41.9219 38.2969 40.4219 39.7969 38.4219
C41.2969 36.2344 42 33.2344 42 28.3438
L42 12.2812
L42 8.28125
C42 4.29688 40.9062 3.59375 34.4062 3.59375
L34 3.59375
L34 0
L59.2969 0
L59.2969 3.59375
L58.9062 3.59375
C52.5 3.59375 51.4062 4.29688 51.4062 8.28125
L51.4062 12.2812
L51.4062 27.9531
C51.4062 35.125 51.0938 36.9219 49.2969 40.3281
C46.7969 45.1094 41.7969 48 35.7969 48
C29.4062 48 24.5 45.0156 20 38.3281
z
" id="Century_Schoolbook_L_Roman-104"/>
     <path d="
M25.2031 48.2812
C13 48.2812 3.40625 37.4531 3.40625 23.5469
C3.40625 9.9375 13 -1 25 -1
C37 -1 46.5938 9.9375 46.5938 23.6406
C46.5938 37.25 37 48.2812 25.2031 48.2812
M25.2031 44
C32.2031 44 36.0938 36.7344 36.0938 23.6406
C36.0938 10.4531 32.2031 3.29688 25 3.29688
C17.7969 3.29688 13.9062 10.4531 13.9062 23.5469
C13.9062 37.0469 17.7031 44 25.2031 44" id="Century_Schoolbook_L_Roman-111"/>
     <path d="
M20.4062 73
L1.90625 73
L1.90625 68.2188
L6.79688 68.2188
C10.4062 68.2188 11 67.5156 11 63.2188
L11 12.2812
L11 8.28125
C11 4.29688 9.90625 3.59375 3.5 3.59375
L2.79688 3.59375
L2.79688 0
L28.7031 0
L28.7031 3.59375
L28 3.59375
C21.5 3.59375 20.4062 4.29688 20.4062 8.25
L20.4062 12.2188
z
" id="Century_Schoolbook_L_Roman-108"/>
     <path d="
M39.2969 74
C30.4062 74 22.7969 71.2031 16.7031 65.6094
C9 58.5469 4.5 47.7656 4.5 36.4062
C4.5 15.1562 19.4062 -1 38.9062 -1
C58.5 -1 73.2969 15.1562 73.2969 36.5
C73.2969 57.6406 58.5 74 39.2969 74
M39.2031 69.2969
C45.9062 69.2969 51.5 66.2031 55.0938 60.7344
C58.7969 54.8438 60.0938 48.6562 60.0938 36.5
C60.0938 24.3438 58.7969 18.25 55.0938 12.2656
C51.5 6.6875 46 3.6875 38.9062 3.6875
C31.7969 3.6875 26.2969 6.6875 22.7031 12.2656
C18.9062 18.3438 17.7031 24.3438 17.7031 36.7031
C17.7031 48.6562 19 54.75 22.7031 60.7344
C26.4062 66.5156 31.7031 69.2969 39.2031 69.2969" id="Century_Schoolbook_L_Roman-79"/>
     <path d="
M24.5938 35
L30.4062 35
C34.2969 35 38.2969 33.7969 40.5 31.9844
C43.4062 29.6875 44.9062 26.0781 45.5938 19.4688
L46.0938 14.3438
C47.2969 3.01562 51 -1.59375 58.9062 -1.59375
C67.0938 -1.59375 71 3.92188 71.2969 15.9219
L67.0938 15.9219
C66.7031 9 65.5 6 62.7969 6
C60.5 6 59.5 7.70312 57.7969 14.625
L56.2031 20.9375
C54 30.1719 50.0938 34.375 42.2969 36.3906
C56.7031 38.3906 63.5938 44.1406 63.5938 54.1875
C63.5938 65.5312 54 72 37.2031 72
L2.59375 72
L2.59375 67.3125
L4.40625 67.3125
C12.5 67.3125 13.4062 66.8125 13.4062 62.6094
L13.4062 59.7188
L13.4062 12.1719
L13.4062 9.375
C13.4062 5.1875 12.5 4.6875 4.40625 4.6875
L2.59375 4.6875
L2.59375 0
L35.4062 0
L35.4062 4.6875
L33.5938 4.6875
C25.5 4.6875 24.5938 5.1875 24.5938 9.39062
L24.5938 12.1875
z

M24.5938 39.6875
L24.5938 61.625
C24.5938 65.625 24.7031 65.9219 25.7031 66.7188
C26.5 67.3125 27.2031 67.3125 31.5 67.3125
L36.9062 67.3125
C46.7969 67.3125 51.2969 63.125 51.2969 54.0938
C51.2969 49.0156 50 45.1406 47.4062 43.0625
C44.9062 40.9844 40.4062 39.6875 35.5938 39.6875
z
" id="Century_Schoolbook_L_Roman-82"/>
     <path d="
M19.7969 46
L2.09375 46
L2.09375 41.2188
L6.20312 41.2188
C9.90625 41.2188 10.5 40.5156 10.5 36.2031
L10.5 12.2969
L10.5 8.29688
C10.5 4.29688 9.40625 3.59375 2.90625 3.59375
L2.5 3.59375
L2.5 0
L29.2031 0
L29.2031 3.59375
L27.2969 3.59375
C20.9062 3.59375 19.7969 4.29688 19.7969 8.29688
L19.7969 12.2969
L19.7969 13.2969
C19.7969 20.8125 21.2031 28.4062 23.7031 34.1094
C26.0938 39.7031 29.5 42.8125 33.7031 43.3125
C32.2969 41.7031 31.9062 40.6875 31.9062 38.7656
C31.9062 35.5469 34.2031 33.2344 37.4062 33.2344
C41 33.2344 43.5 35.9375 43.5 40.0156
C43.5 44.8125 40.0938 48 34.7969 48
C28.5 48 23 42.9219 19.7969 34.1406
z
" id="Century_Schoolbook_L_Roman-114"/>
     <path d="
M45.2031 32.5781
C45.2031 38.7969 44.0938 41.9688 41.2031 44.3438
C37.9062 46.9062 33 48.2812 26.5938 48.2812
C15.4062 48.2812 7.09375 43.0469 7.09375 35.9219
C7.09375 32.1562 9.40625 29.7812 12.9062 29.7812
C16 29.7812 18.2969 31.8594 18.2969 34.8125
C18.2969 36.1094 17.7969 37.4844 16.7969 38.875
C16.2031 39.5469 16.0938 39.8438 16.0938 40.1562
C16.0938 42.2188 20.2031 44 25 44
C28.0938 44 31.5938 43.0156 33.2031 41.5312
C35.0938 39.9531 35.7969 37.5781 35.7969 33.125
L35.7969 29.2812
C25.2969 27.4844 22.0938 26.6875 17.2031 24.8125
C8.59375 21.6094 4.40625 16.9375 4.40625 10.6562
C4.40625 3.57812 10.0938 -1 18.9062 -1
C25.7969 -1 32 1.85938 36.2969 7.0625
C37.9062 1.98438 40.4062 0 45.0938 0
C49.5938 0 54.2969 2.89062 54.2969 5.78125
C54.2969 6.46875 53.7969 6.96875 53.2969 6.96875
C52.9062 6.96875 52.5 6.875 51.7969 6.57812
C50.2031 6 49.7969 5.89062 49 5.89062
C46.2031 5.89062 45.2031 7.78125 45.2031 12.7188
z

M35.7969 20.4688
C35.7969 14.4688 35.5 13.0781 33.7969 10.4844
C31.2969 6.78125 26.7031 4.29688 22.4062 4.29688
C17.9062 4.29688 14.5 7.59375 14.5 12.0781
C14.5 16.2656 16.5938 19.2656 21 21.3594
C24.0938 22.75 28 23.75 35.7969 25.0469
z
" id="Century_Schoolbook_L_Roman-97"/>
     <path d="
M30 13.1562
L19 38.8125
C18.5938 39.7031 18.4062 40.4062 18.4062 40.9062
C18.4062 42.7031 19.5938 43.4062 23 43.4062
L25.0938 43.4062
L25.0938 47
L1.29688 47
L1.29688 43.4062
L2.40625 43.4062
C5.59375 43.4062 7.40625 42 9.20312 38.0156
L25.5 1.23438
L23.7969 -2.26562
C20.2031 -9.82812 15.5 -15.1094 12.2969 -15.1094
C11.4062 -15.1094 10.7031 -14.7031 10.7031 -14.1094
C10.7031 -13.9062 10.7969 -13.6094 10.9062 -13.2031
C11.2031 -12.3125 11.4062 -11.4219 11.4062 -10.625
C11.4062 -8.03125 9.20312 -6.14062 6.29688 -6.14062
C2.79688 -6.14062 0.296875 -8.73438 0.296875 -12.3281
C0.296875 -16.7031 4.20312 -20 9.40625 -20
C14.7031 -20 19.2031 -17.4062 23.2031 -12.0312
C26.2969 -7.84375 28.2969 -3.84375 32.7031 7.21875
L44.0938 35.3281
C46.5938 41.4062 48.7031 43.4062 52.5 43.4062
L53.0938 43.4062
L53.0938 47
L33.0938 47
L33.0938 43.4062
L34.7031 43.4062
C38.5 43.4062 40.0938 42.2969 40.0938 39.7031
C40.0938 38.7031 39.7969 37.4062 39.0938 35.7188
z
" id="Century_Schoolbook_L_Roman-121"/>
     <path d="
M27.9062 73.4531
C21.9062 69.7656 18.7031 67.1719 15.2969 63.1719
C7.70312 54.1875 3.59375 42.7188 3.59375 30.6406
C3.59375 19.2656 7.20312 8.57812 13.9062 -0.296875
C17.7031 -5.09375 21.0938 -8.07812 27.9062 -12.2812
L27.9062 -8.57812
C17.9062 0.203125 13.9062 11.4844 13.9062 30.6406
C13.9062 49.7969 17.9062 60.9844 27.9062 69.7656
z
" id="Century_Schoolbook_L_Roman-40"/>
     <path d="
M24.4062 74
L-2.29688 -1
L3.5 -1
L30.2031 74
z
" id="Century_Schoolbook_L_Roman-47"/>
     <path d="
M5.40625 -12.2812
C11.4062 -8.57812 14.5938 -5.98438 18 -1.89062
C25.5938 6.98438 29.7031 18.5625 29.7031 30.6406
C29.7031 42.0156 26.0938 52.7031 19.4062 61.4844
C15.5938 66.375 12.2031 69.3594 5.40625 73.4531
L5.40625 69.7656
C15.4062 60.9844 19.4062 49.7969 19.4062 30.6406
C19.4062 11.375 15.4062 0.203125 5.40625 -8.57812
z
" id="Century_Schoolbook_L_Roman-41"/>
     <path d="
M38.7031 15.125
C35.5 7.96875 32.0938 5.09375 26.9062 5.09375
C18.9062 5.09375 13.9062 12.3281 13.9062 23.9375
C13.9062 35.9531 18.7969 44 26.2031 44
C29.2031 44 31.7969 42.5938 31.7969 41.0156
C31.7969 40.7188 31.5938 40.4219 31.2031 39.8125
C29.5938 37.9375 29.2031 36.9375 29.2031 35.2656
C29.2031 31.9844 31.7031 29.7031 35.2031 29.7031
C38.7031 29.7031 41.2969 32.4844 41.2969 36.4531
C41.2969 43.1094 34.5938 48.2812 25.7031 48.2812
C12.7031 48.2812 3.40625 37.6562 3.40625 22.8438
C3.40625 8.73438 11.9062 -1 24.2969 -1
C33.2031 -1 38.2969 3.07812 42.5938 13.625
z
" id="Century_Schoolbook_L_Roman-99"/>
    </defs>
    <g transform="translate(88.0150818464 -5.0)scale(0.07 -0.07)">
     <use transform="scale(0.996264009963)" xlink:href="#Century_Schoolbook_L_Roman-79"/>
     <use transform="translate(77.5083701014 0.0)scale(0.996264009963)" xlink:href="#Century_Schoolbook_L_Roman-117"/>
     <use transform="translate(138.380000778 0.0)scale(0.996264009963)" xlink:href="#Century_Schoolbook_L_Roman-116"/>
     <use transform="translate(177.133706973 0.0)scale(0.996264009963)" xlink:href="#Century_Schoolbook_L_Roman-82"/>
     <use transform="translate(249.06369182 0.0)scale(0.996264009963)" xlink:href="#Century_Schoolbook_L_Roman-105"/>
     <use transform="translate(280.445004816 0.0)scale(0.996264009963)" xlink:href="#Century_Schoolbook_L_Roman-103"/>
     <use transform="translate(333.944348707 0.0)scale(0.996264009963)" xlink:href="#Century_Schoolbook_L_Roman-104"/>
     <use transform="translate(394.815979384 0.0)scale(0.996264009963)" xlink:href="#Century_Schoolbook_L_Roman-116"/>
     <use transform="translate(433.569685578 0.0)scale(0.996264009963)" xlink:href="#Century_Schoolbook_L_Roman-115"/>
     <use transform="translate(479.695496138 0.0)scale(0.996264009963)" xlink:href="#Century_Schoolbook_L_Roman-40"/>
     <use transform="translate(512.870725867 0.0)scale(0.996264009963)" xlink:href="#Century_Schoolbook_L_Roman-99"/>
     <use transform="translate(557.104294564 0.0)scale(0.996264009963)" xlink:href="#Century_Schoolbook_L_Roman-97"/>
     <use transform="translate(612.495971528 0.0)scale(0.996264009963)" xlink:href="#Century_Schoolbook_L_Roman-114"/>
     <use transform="translate(656.729540225 0.0)scale(0.996264009963)" xlink:href="#Century_Schoolbook_L_Roman-114"/>
     <use transform="translate(700.963108923 0.0)scale(0.996264009963)" xlink:href="#Century_Schoolbook_L_Roman-121"/>
     <use transform="translate(754.462452814 0.0)scale(0.996264009963)" xlink:href="#Century_Schoolbook_L_Roman-47"/>
     <use transform="translate(782.157622417 0.0)scale(0.996264009963)" xlink:href="#Century_Schoolbook_L_Roman-114"/>
     <use transform="translate(826.391191114 0.0)scale(0.996264009963)" xlink:href="#Century_Schoolbook_L_Roman-111"/>
     <use transform="translate(876.204391613 0.0)scale(0.996264009963)" xlink:href="#Century_Schoolbook_L_Roman-108"/>
     <use transform="translate(907.585704609 0.0)scale(0.996264009963)" xlink:href="#Century_Schoolbook_L_Roman-108"/>
     <use transform="translate(938.967017605 0.0)scale(0.996264009963)" xlink:href="#Century_Schoolbook_L_Roman-41"/>
    </g>
   </g>
  </g>
  <g id="axes_2">
   <g id="line2d_13">
    <path clip-path="url(#pfff7fd3862)" d="
M7.6275 6.14529
L15.255 68.3941
L22.8825 95.2129
L30.51 109.285
L38.1375 117.332
L45.765 122.297
L53.3925 126.34
L61.02 129.451
L68.6475 131.764
L76.275 133.576
L83.9025 134.98
L91.53 136.283
L99.1575 137.397
L106.785 138.277
L114.413 139.136
L122.04 139.825
L129.668 140.413
L137.295 140.943
L144.923 141.424
L152.55 141.87
L190.688 143.403
L228.825 144.383" style="fill:none;stroke:#0000ff;stroke-linecap:square;stroke-width:0.75;"/>
   </g>
   <g id="patch_51">
    <path d="
M0 0
L244.08 0" style="fill:none;"/>
   </g>
   <g id="patch_52">
    <path d="
M244.08 150.85
L244.08 0" style="fill:none;stroke:#000000;stroke-linecap:square;stroke-linejoin:miter;stroke-width:0.3;"/>
   </g>
   <g id="patch_53">
    <path d="
M0 150.85
L244.08 150.85" style="fill:none;stroke:#000000;stroke-linecap:square;stroke-linejoin:miter;stroke-width:0.3;"/>
   </g>
   <g id="patch_54">
    <path d="
M0 150.85
L0 0" style="fill:none;stroke:#000000;stroke-linecap:square;stroke-linejoin:miter;stroke-width:0.3;"/>
   </g>
   <g id="matplotlib.axis_3">
    <g id="ytick_6">
     <g id="line2d_14">
      <defs>
       <path d="
M0 0
L-4 0" id="mcb0005524f" style="stroke:#000000;stroke-width:0.5;"/>
      </defs>
      <g>
       <use style="stroke:#000000;stroke-width:0.5;" x="244.08" xlink:href="#mcb0005524f" y="150.849735974"/>
      </g>
     </g>
     <g id="text_14">
      <!-- $0$ -->
      <g transform="translate(248.08 153.049471889)scale(0.08 -0.08)">
       <use transform="scale(0.996264009963)" xlink:href="#CMR17-48"/>
      </g>
     </g>
    </g>
    <g id="ytick_7">
     <g id="line2d_15">
      <g>
       <use style="stroke:#000000;stroke-width:0.5;" x="244.08" xlink:href="#mcb0005524f" y="129.299773692"/>
      </g>
     </g>
     <g id="text_15">
      <!-- $2$ -->
      <g transform="translate(248.08 131.499509607)scale(0.08 -0.08)">
       <use transform="scale(0.996264009963)" xlink:href="#CMR17-50"/>
      </g>
     </g>
    </g>
    <g id="ytick_8">
     <g id="line2d_16">
      <g>
       <use style="stroke:#000000;stroke-width:0.5;" x="244.08" xlink:href="#mcb0005524f" y="107.74981141"/>
      </g>
     </g>
     <g id="text_16">
      <!-- $4$ -->
      <defs>
       <path d="
M33.5938 64.4062
C33.5938 66.5 33.5 66.5 31.7031 66.5
L2 19.5938
L2 17
L27.7969 17
L27.7969 7.14062
C27.7969 3.5 27.5938 2.5 20.5938 2.5
L18.7031 2.5
L18.7031 0
C21.9062 0 27.2969 0 30.7031 0
C34.0938 0 39.5 0 42.7031 0
L42.7031 2.5
L40.7969 2.5
C33.7969 2.5 33.5938 3.5 33.5938 7.14062
L33.5938 17
L43.7969 17
L43.7969 19.5938
L33.5938 19.5938
z

M28.0938 57.8594
L28.0938 19.5938
L4 19.5938
z
" id="CMR17-52"/>
      </defs>
      <g transform="translate(248.08 109.949547325)scale(0.08 -0.08)">
       <use transform="scale(0.996264009963)" xlink:href="#CMR17-52"/>
      </g>
     </g>
    </g>
    <g id="ytick_9">
     <g id="line2d_17">
      <g>
       <use style="stroke:#000000;stroke-width:0.5;" x="244.08" xlink:href="#mcb0005524f" y="86.199849128"/>
      </g>
     </g>
     <g id="text_17">
      <!-- $6$ -->
      <defs>
       <path d="
M10.5938 34
C10.5938 57.6562 21.7969 63 28.2969 63
C30.4062 63 35.5 62.6406 37.5 59
C35.9062 59 32.9062 59 32.9062 55.5156
C32.9062 52.8281 35.0938 51.9219 36.5 51.9219
C37.4062 51.9219 40.0938 52.3125 40.0938 55.625
C40.0938 61.7812 35.0938 65.2969 28.2031 65.2969
C16.2969 65.2969 3.79688 52.9688 3.79688 31
C3.79688 3.95312 15.0938 -2 23.0938 -2
C32.7969 -2 42 6.67188 42 20.0469
C42 32.5156 33.9062 41.5938 23.7031 41.5938
C17.5938 41.5938 13.0938 37.6094 10.5938 30.625
z

M23.0938 0.390625
C10.7969 0.390625 10.7969 18.75 10.7969 22.4375
C10.7969 29.625 14.2031 40 23.5 40
C25.2031 40 30.0938 40 33.4062 33.125
C35.2031 29.2188 35.2031 25.1406 35.2031 20.1406
C35.2031 14.75 35.2031 10.7812 33.0938 6.78125
C30.9062 2.67188 27.7031 0.390625 23.0938 0.390625" id="CMR17-54"/>
      </defs>
      <g transform="translate(248.08 88.3995850427)scale(0.08 -0.08)">
       <use transform="scale(0.996264009963)" xlink:href="#CMR17-54"/>
      </g>
     </g>
    </g>
    <g id="ytick_10">
     <g id="line2d_18">
      <g>
       <use style="stroke:#000000;stroke-width:0.5;" x="244.08" xlink:href="#mcb0005524f" y="64.649886846"/>
      </g>
     </g>
     <g id="text_18">
      <!-- $8$ -->
      <defs>
       <path d="
M27.2031 35.375
C33.5 38.5469 39.9062 43.3281 39.9062 50.9844
C39.9062 60.0156 31.0938 65.2969 23 65.2969
C13.9062 65.2969 5.90625 58.7344 5.90625 49.6875
C5.90625 47.2031 6.5 42.9219 10.4062 39.1406
C11.4062 38.1562 15.5938 35.1719 18.2969 33.2812
C13.7969 30.9844 3.29688 25.5312 3.29688 14.5938
C3.29688 4.35938 13.0938 -2 22.7969 -2
C33.5 -2 42.5 5.65625 42.5 15.7812
C42.5 24.8438 36.4062 29.0156 32.4062 31.7031
z

M14.0938 44.0938
C13.2969 44.5938 9.29688 47.6719 9.29688 52.3594
C9.29688 58.4219 15.5938 63 22.7969 63
C30.7031 63 36.5 57.4375 36.5 50.9688
C36.5 41.7031 26.0938 36.4219 25.5938 36.4219
C25.5 36.4219 25.4062 36.4219 24.5938 37.0312
z

M32.5 23.7344
C34 22.6406 38.7969 19.375 38.7969 13.2969
C38.7969 5.95312 31.4062 0.390625 23 0.390625
C13.9062 0.390625 7 6.84375 7 14.6875
C7 22.5469 13.0938 29.0938 20 32.1875
z
" id="CMR17-56"/>
      </defs>
      <g transform="translate(248.08 66.8496227607)scale(0.08 -0.08)">
       <use transform="scale(0.996264009963)" xlink:href="#CMR17-56"/>
      </g>
     </g>
    </g>
    <g id="ytick_11">
     <g id="line2d_19">
      <g>
       <use style="stroke:#000000;stroke-width:0.5;" x="244.08" xlink:href="#mcb0005524f" y="43.099924564"/>
      </g>
     </g>
     <g id="text_19">
      <!-- $10$ -->
      <g transform="translate(248.08 45.2996604787)scale(0.08 -0.08)">
       <use transform="scale(0.996264009963)" xlink:href="#CMR17-49"/>
       <use transform="translate(45.6904771171 0.0)scale(0.996264009963)" xlink:href="#CMR17-48"/>
      </g>
     </g>
    </g>
    <g id="ytick_12">
     <g id="line2d_20">
      <g>
       <use style="stroke:#000000;stroke-width:0.5;" x="244.08" xlink:href="#mcb0005524f" y="21.549962282"/>
      </g>
     </g>
     <g id="text_20">
      <!-- $12$ -->
      <g transform="translate(248.08 23.7496981966)scale(0.08 -0.08)">
       <use transform="scale(0.996264009963)" xlink:href="#CMR17-49"/>
       <use transform="translate(45.6904771171 0.0)scale(0.996264009963)" xlink:href="#CMR17-50"/>
      </g>
     </g>
    </g>
    <g id="ytick_13">
     <g id="line2d_21">
      <g>
       <use style="stroke:#000000;stroke-width:0.5;" x="244.08" xlink:href="#mcb0005524f" y="0.0"/>
      </g>
     </g>
     <g id="text_21">
      <!-- $14$ -->
      <g transform="translate(248.08 2.19973591464)scale(0.08 -0.08)">
       <use transform="scale(0.996264009963)" xlink:href="#CMR17-49"/>
       <use transform="translate(45.6904771171 0.0)scale(0.996264009963)" xlink:href="#CMR17-52"/>
      </g>
     </g>
    </g>
    <g id="text_22">
     <!-- risk adj carry+roll -->
     <defs>
      <path d="
M26.2969 28.9844
L5.09375 28.9844
L5.09375 21
L26.2969 21
L26.2969 -0.5
L34.2969 -0.5
L34.2969 21
L55.5 21
L55.5 28.9844
L34.2969 28.9844
L34.2969 50
L26.2969 50
z
" id="Century_Schoolbook_L_Roman-43"/>
      <path d="
M38 0
L55.4062 0
L55.4062 4.70312
L53.5938 4.70312
C48.2031 4.70312 47.4062 5.70312 47.4062 11.9688
L47.4062 73.7812
L27.7969 73.7812
L27.7969 69
L33.7031 69
C37.2969 69 38 68.2812 38 63.9219
L38 41
C34.2969 46.0938 30 48.3906 24.2031 48.3906
C12.9062 48.3906 4.29688 37.5469 4.29688 23.2031
C4.29688 9.0625 12.5938 -1 24.2031 -1
C30.5 -1 34.7969 1.67188 38 7.59375
z

M26.2031 43
C30.2969 43 34.2031 40.0312 36 35.4375
C37.2031 32.4531 37.9062 28.2812 37.9062 23.5156
C37.9062 11.9688 33.2969 4.39062 26.0938 4.39062
C19.0938 4.39062 14.7969 10.9688 14.7969 22.0156
C14.7969 27.8906 15.4062 32.3594 16.7031 35.7344
C18.4062 40.125 22.0938 43 26.2031 43" id="Century_Schoolbook_L_Roman-100"/>
      <path d="
M19.9062 24.2031
L19.9062 73
L1.40625 73
L1.40625 68.2188
L6.20312 68.2188
C9.90625 68.2188 10.5 67.5156 10.5 63.2188
L10.5 12.2812
L10.5 8.28125
C10.5 4.29688 9.40625 3.59375 3 3.59375
L2.59375 3.59375
L2.59375 0
L27.9062 0
L27.9062 3.59375
L27.5 3.59375
C21 3.59375 19.9062 4.29688 19.9062 8.29688
L19.9062 12.2969
L19.9062 18
L26 23.7969
L37.9062 7.10938
C38.2969 6.39062 38.5938 5.78125 38.5938 5.29688
C38.5938 4 37.5 3.59375 34.2031 3.59375
L32.2969 3.59375
L32.2969 0
L58.7031 0
L58.7031 3.59375
C53.0938 4.09375 51.0938 5.29688 47 10.5
L32.7969 29.8906
L37.2969 34.2969
C43.0938 40 47.4062 42.2031 54.2031 43
L54.2031 46.5938
L27.9062 46.5938
L27.9062 43
L31 43
C34.2031 43 35.7031 42.3906 35.7031 41.0938
C35.7031 40 35 38.7969 33.4062 37.1875
z
" id="Century_Schoolbook_L_Roman-107"/>
      <path d="
M20.7031 46
L1.20312 46
L1.20312 41.2188
L7 41.2188
C10.7031 41.2188 11.2969 40.5156 11.2969 36.2188
L11.2969 2.4375
C11.2969 -5.64062 10.7969 -9.42188 9.40625 -12.3125
C8.40625 -14.3125 6 -15.8125 3.90625 -15.8125
C2.5 -15.8125 1.40625 -15.2188 1.40625 -14.5156
C1.40625 -14.1094 1.5 -13.9219 1.90625 -12.9375
C2.40625 -11.8438 2.59375 -11.2344 2.59375 -10.5312
C2.59375 -8.04688 0.203125 -5.84375 -2.59375 -5.84375
C-5.79688 -5.84375 -8.20312 -8.4375 -8.20312 -11.8438
C-8.20312 -16.7031 -3.70312 -20 3 -20
C8.59375 -20 13.7031 -17.5469 16.5938 -13.5781
C19.7031 -9.23438 20.7031 -4.1875 20.7031 6.96875
z

M16 71.5781
C12.7969 71.5781 10.2031 68.9844 10.2031 65.7969
C10.2031 62.7031 12.7969 60 15.9062 60
C19.2031 60 21.7969 62.5938 21.7969 65.7969
C21.7969 68.9844 19.2031 71.5781 16 71.5781" id="Century_Schoolbook_L_Roman-106"/>
     </defs>
     <g transform="translate(261.922900403 104.721530162)rotate(-90.0)scale(0.07 -0.07)">
      <use transform="scale(0.996264009963)" xlink:href="#Century_Schoolbook_L_Roman-114"/>
      <use transform="translate(44.2335686975 0.0)scale(0.996264009963)" xlink:href="#Century_Schoolbook_L_Roman-105"/>
      <use transform="translate(75.6148816936 0.0)scale(0.996264009963)" xlink:href="#Century_Schoolbook_L_Roman-115"/>
      <use transform="translate(121.740692253 0.0)scale(0.996264009963)" xlink:href="#Century_Schoolbook_L_Roman-107"/>
      <use transform="translate(208.513591002 0.0)scale(0.996264009963)" xlink:href="#Century_Schoolbook_L_Roman-97"/>
      <use transform="translate(263.905267965 0.0)scale(0.996264009963)" xlink:href="#Century_Schoolbook_L_Roman-100"/>
      <use transform="translate(321.090755249 0.0)scale(0.996264009963)" xlink:href="#Century_Schoolbook_L_Roman-106"/>
      <use transform="translate(378.274904776 0.0)scale(0.996264009963)" xlink:href="#Century_Schoolbook_L_Roman-99"/>
      <use transform="translate(422.508473473 0.0)scale(0.996264009963)" xlink:href="#Century_Schoolbook_L_Roman-97"/>
      <use transform="translate(477.900150437 0.0)scale(0.996264009963)" xlink:href="#Century_Schoolbook_L_Roman-114"/>
      <use transform="translate(522.133719134 0.0)scale(0.996264009963)" xlink:href="#Century_Schoolbook_L_Roman-114"/>
      <use transform="translate(566.367287832 0.0)scale(0.996264009963)" xlink:href="#Century_Schoolbook_L_Roman-121"/>
      <use transform="translate(619.866631723 0.0)scale(0.996264009963)" xlink:href="#Century_Schoolbook_L_Roman-43"/>
      <use transform="translate(680.239643938 0.0)scale(0.996264009963)" xlink:href="#Century_Schoolbook_L_Roman-114"/>
      <use transform="translate(724.473212635 0.0)scale(0.996264009963)" xlink:href="#Century_Schoolbook_L_Roman-111"/>
      <use transform="translate(774.286413133 0.0)scale(0.996264009963)" xlink:href="#Century_Schoolbook_L_Roman-108"/>
      <use transform="translate(805.66772613 0.0)scale(0.996264009963)" xlink:href="#Century_Schoolbook_L_Roman-108"/>
     </g>
    </g>
   </g>
  </g>
 </g>
 <defs>
  <clipPath id="pfff7fd3862">
   <rect height="150.849735974" width="244.08" x="0.0" y="0.0"/>
  </clipPath>
 </defs>
</svg>
