<?xml version="1.0" encoding="utf-8" standalone="no"?>
<!DOCTYPE svg PUBLIC "-//W3C//DTD SVG 1.1//EN"
  "http://www.w3.org/Graphics/SVG/1.1/DTD/svg11.dtd">
<!-- Created with matplotlib (http://matplotlib.org/) -->
<svg height="150pt" version="1.1" viewBox="0 0 244 150" width="244pt" xmlns="http://www.w3.org/2000/svg" xmlns:xlink="http://www.w3.org/1999/xlink">
 <defs>
  <style type="text/css">
*{stroke-linecap:butt;stroke-linejoin:round;}
  </style>
 </defs>
 <g id="figure_1">
  <g id="patch_1">
   <path d="
M0 150.85
L244.08 150.85
L244.08 0
L0 0
z
" style="fill:#ffffff;"/>
  </g>
  <g id="axes_1">
   <g id="patch_2">
    <path d="
M0 150.85
L244.08 150.85
L244.08 0
L0 0
z
" style="fill:#ffffff;"/>
   </g>
   <g id="line2d_1">
    <defs>
     <path d="
M-3 3
L3 3
L3 -3
L-3 -3
z
" id="m8a286e445b" style="stroke:#000000;stroke-linejoin:miter;stroke-width:0.5;"/>
    </defs>
    <g clip-path="url(#pfff7fd3862)">
     <use style="fill:#0000ff;stroke:#000000;stroke-linejoin:miter;stroke-width:0.5;" x="14.6799076652" xlink:href="#m8a286e445b" y="52.9194752727"/>
     <use style="fill:#0000ff;stroke:#000000;stroke-linejoin:miter;stroke-width:0.5;" x="30.8400651998" xlink:href="#m8a286e445b" y="73.1368420961"/>
     <use style="fill:#0000ff;stroke:#000000;stroke-linejoin:miter;stroke-width:0.5;" x="68.3663210255" xlink:href="#m8a286e445b" y="88.1407732945"/>
     <use style="fill:#0000ff;stroke:#000000;stroke-linejoin:miter;stroke-width:0.5;" x="2.69577294171" xlink:href="#m8a286e445b" y="37.5820908084"/>
     <use style="fill:#0000ff;stroke:#000000;stroke-linejoin:miter;stroke-width:0.5;" x="187.961849644" xlink:href="#m8a286e445b" y="130.271942707"/>
     <use style="fill:#0000ff;stroke:#000000;stroke-linejoin:miter;stroke-width:0.5;" x="182.70265621" xlink:href="#m8a286e445b" y="103.253962279"/>
    </g>
   </g>
   <g id="patch_3">
    <path d="
M0 0
L244.08 0" style="fill:none;"/>
   </g>
   <g id="patch_4">
    <path d="
M244.08 150.85
L244.08 0" style="fill:none;"/>
   </g>
   <g id="patch_5">
    <path d="
M0 150.85
L244.08 150.85" style="fill:none;stroke:#000000;stroke-linecap:square;stroke-linejoin:miter;stroke-width:0.5;"/>
   </g>
   <g id="patch_6">
    <path d="
M104.606 150.85
L104.606 0" style="fill:none;stroke:#000000;stroke-linecap:square;stroke-linejoin:miter;stroke-width:0.5;"/>
   </g>
   <g id="matplotlib.axis_1">
    <g id="xtick_1">
     <g id="text_1">
      <!-- $-3$ -->
      <defs>
       <path d="
M65.9062 23
C67.5938 23 69.4062 23 69.4062 25
C69.4062 27 67.5938 27 65.9062 27
L11.7969 27
C10.0938 27 8.29688 27 8.29688 25
C8.29688 23 10.0938 23 11.7969 23
z
" id="CMSY10-0"/>
       <path d="
M22.0938 33.7031
C31 33.7031 34.9062 25.9688 34.9062 17.0312
C34.9062 5 28.5 0.390625 22.7031 0.390625
C17.4062 0.390625 8.79688 3.03125 6.09375 10.8281
C6.59375 10.625 7.09375 10.625 7.59375 10.625
C10 10.625 11.7969 12.2188 11.7969 14.8125
C11.7969 17.7031 9.59375 19 7.59375 19
C5.90625 19 3.29688 18.2031 3.29688 14.4688
C3.29688 5.23438 12.2969 -2 22.9062 -2
C34 -2 42.5 6.71875 42.5 16.9531
C42.5 26.6719 34.5 33.6875 25 34.7969
C32.5938 36.375 39.9062 43.0625 39.9062 52.0156
C39.9062 59.6875 32 65.2969 23 65.2969
C13.9062 65.2969 5.90625 59.8281 5.90625 52.0156
C5.90625 48.5938 8.5 48 9.79688 48
C11.9062 48 13.7031 49.2969 13.7031 51.8906
C13.7031 54.4688 11.9062 55.7656 9.79688 55.7656
C9.40625 55.7656 8.90625 55.7656 8.5 55.5781
C11.4062 61.8594 19.2969 63 22.7969 63
C26.2969 63 32.9062 61.3281 32.9062 51.875
C32.9062 49.1094 32.5 44.1875 29.0938 39.8438
C26.0938 36 22.7031 36 19.4062 35.6875
C18.9062 35.6875 16.5938 35.4531 16.2031 35.4531
C15.5 35.3594 15.0938 35.2656 15.0938 34.5
C15.0938 33.7969 15.2031 33.7031 17.2031 33.7031
z
" id="CMR17-51"/>
      </defs>
      <g transform="translate(-5.4103447521 160.763502951)scale(0.08 -0.08)">
       <use transform="scale(0.996264009963)" xlink:href="#CMSY10-0"/>
       <use transform="translate(77.4874676506 0.0)scale(0.996264009963)" xlink:href="#CMR17-51"/>
      </g>
     </g>
    </g>
    <g id="xtick_2">
     <g id="text_2">
      <!-- $-2$ -->
      <defs>
       <path d="
M41.7031 15.4531
L39.9062 15.4531
C38.9062 8.375 38.0938 7.17188 37.7031 6.5625
C37.2031 5.76562 30 5.76562 28.5938 5.76562
L9.40625 5.76562
C13 9.67188 20 16.75 28.5 24.9531
C34.5938 30.7344 41.7031 37.5312 41.7031 47.4219
C41.7031 59.2188 32.2969 66 21.7969 66
C10.7969 66 4.09375 56.3125 4.09375 47.3438
C4.09375 43.4375 7 42.9375 8.20312 42.9375
C9.20312 42.9375 12.2031 43.5469 12.2031 47.0312
C12.2031 50.1094 9.59375 51 8.20312 51
C7.59375 51 7 50.9062 6.59375 50.7031
C8.5 59.2188 14.2969 63.4062 20.4062 63.4062
C29.0938 63.4062 34.7969 56.5156 34.7969 47.4219
C34.7969 38.7344 29.7031 31.25 24 24.75
L4.09375 2.28125
L4.09375 0
L39.2969 0
z
" id="CMR17-50"/>
      </defs>
      <g transform="translate(29.4582266765 160.763502951)scale(0.08 -0.08)">
       <use transform="scale(0.996264009963)" xlink:href="#CMSY10-0"/>
       <use transform="translate(77.4874676506 0.0)scale(0.996264009963)" xlink:href="#CMR17-50"/>
      </g>
     </g>
    </g>
    <g id="xtick_3">
     <g id="text_3">
      <!-- $-1$ -->
      <defs>
       <path d="
M26.5938 63.4062
C26.5938 65.5 26.5 65.5 25.0938 65.5
C21.2031 61.1875 15.2969 59.7969 9.70312 59.7969
C9.40625 59.7969 8.90625 59.7969 8.79688 59.5
C8.70312 59.2969 8.70312 59.0938 8.70312 57
C11.7969 57 17 57.5938 21 59.9844
L21 7.20312
C21 3.6875 20.7969 2.5 12.2031 2.5
L9.20312 2.5
L9.20312 0
C14 0 19 0 23.7969 0
C28.5938 0 33.5938 0 38.4062 0
L38.4062 2.5
L35.4062 2.5
C26.7969 2.5 26.5938 3.59375 26.5938 7.15625
z
" id="CMR17-49"/>
      </defs>
      <g transform="translate(64.326798105 160.763502951)scale(0.08 -0.08)">
       <use transform="scale(0.996264009963)" xlink:href="#CMSY10-0"/>
       <use transform="translate(77.4874676506 0.0)scale(0.996264009963)" xlink:href="#CMR17-49"/>
      </g>
     </g>
    </g>
    <g id="xtick_4">
     <g id="text_4">
      <!-- $0$ -->
      <defs>
       <path d="
M42 31.6406
C42 37.75 41.9062 48.125 37.7031 56.1094
C34 63.1094 28.0938 65.5938 22.9062 65.5938
C18.0938 65.5938 12 63.4062 8.20312 56.2031
C4.20312 48.7188 3.79688 39.4375 3.79688 31.6406
C3.79688 25.9531 3.90625 17.2812 7 9.67188
C11.2969 -0.609375 19 -2 22.9062 -2
C27.5 -2 34.5 -0.109375 38.5938 9.375
C41.5938 16.2812 42 24.3594 42 31.6406
M22.9062 -0.40625
C16.5 -0.40625 12.7031 5.07812 11.2969 12.6875
C10.2031 18.5625 10.2031 27.1562 10.2031 32.75
C10.2031 40.4375 10.2031 46.8281 11.5 52.9219
C13.4062 61.3906 19 64 22.9062 64
C27 64 32.2969 61.2969 34.2031 53.125
C35.5 47.4375 35.5938 40.7344 35.5938 32.75
C35.5938 26.25 35.5938 18.2656 34.4062 12.375
C32.2969 1.48438 26.4062 -0.40625 22.9062 -0.40625" id="CMR17-48"/>
      </defs>
      <g transform="translate(102.488622861 160.763502951)scale(0.08 -0.08)">
       <use transform="scale(0.996264009963)" xlink:href="#CMR17-48"/>
      </g>
     </g>
    </g>
    <g id="xtick_5">
     <g id="text_5">
      <!-- $1$ -->
      <g transform="translate(137.35719429 160.763502951)scale(0.08 -0.08)">
       <use transform="scale(0.996264009963)" xlink:href="#CMR17-49"/>
      </g>
     </g>
    </g>
    <g id="xtick_6">
     <g id="text_6">
      <!-- $2$ -->
      <g transform="translate(172.225765718 160.763502951)scale(0.08 -0.08)">
       <use transform="scale(0.996264009963)" xlink:href="#CMR17-50"/>
      </g>
     </g>
    </g>
    <g id="xtick_7">
     <g id="text_7">
      <!-- $3$ -->
      <g transform="translate(207.094337147 160.763502951)scale(0.08 -0.08)">
       <use transform="scale(0.996264009963)" xlink:href="#CMR17-51"/>
      </g>
     </g>
    </g>
    <g id="xtick_8">
     <g id="text_8">
      <!-- $4$ -->
      <defs>
       <path d="
M33.5938 64.4062
C33.5938 66.5 33.5 66.5 31.7031 66.5
L2 19.5938
L2 17
L27.7969 17
L27.7969 7.14062
C27.7969 3.5 27.5938 2.5 20.5938 2.5
L18.7031 2.5
L18.7031 0
C21.9062 0 27.2969 0 30.7031 0
C34.0938 0 39.5 0 42.7031 0
L42.7031 2.5
L40.7969 2.5
C33.7969 2.5 33.5938 3.5 33.5938 7.14062
L33.5938 17
L43.7969 17
L43.7969 19.5938
L33.5938 19.5938
z

M28.0938 57.8594
L28.0938 19.5938
L4 19.5938
z
" id="CMR17-52"/>
      </defs>
      <g transform="translate(241.962908575 160.763502951)scale(0.08 -0.08)">
       <use transform="scale(0.996264009963)" xlink:href="#CMR17-52"/>
      </g>
     </g>
    </g>
   </g>
   <g id="matplotlib.axis_2">
    <g id="ytick_1">
     <g id="text_9">
      <!-- $0.0$ -->
      <defs>
       <path d="
M18.4062 4.79688
C18.4062 7.6875 16 9.67188 13.5938 9.67188
C10.7031 9.67188 8.70312 7.28125 8.70312 4.89062
C8.70312 2 11.0938 0 13.5 0
C16.4062 0 18.4062 2.39062 18.4062 4.79688" id="CMMI12-58"/>
      </defs>
      <g transform="translate(89.7850247815 153.049471889)scale(0.08 -0.08)">
       <use transform="scale(0.996264009963)" xlink:href="#CMR17-48"/>
       <use transform="translate(45.6904771171 0.0)scale(0.996264009963)" xlink:href="#CMMI12-58"/>
       <use transform="translate(72.7876542069 0.0)scale(0.996264009963)" xlink:href="#CMR17-48"/>
      </g>
     </g>
    </g>
    <g id="ytick_2">
     <g id="text_10">
      <!-- $0.5$ -->
      <defs>
       <path d="
M11.4062 57.6875
C12.4062 57.2812 16.5 56 20.7031 56
C30 56 35.0938 61.1094 38 64.0625
C38 64.9531 38 65.5 37.4062 65.5
C37.2969 65.5 37.0938 65.5 36.2969 65.0469
C32.7969 63.4062 28.7031 62.0781 23.7031 62.0781
C20.7031 62.0781 16.2031 62.4844 11.2969 64.6719
C10.2031 65.1719 10 65.1719 9.90625 65.1719
C9.40625 65.1719 9.29688 65.0625 9.29688 63.0781
L9.29688 34.4219
C9.29688 32.6406 9.29688 32.1406 10.2969 32.1406
C10.7969 32.1406 11 32.3438 11.5 33.0312
C14.7031 37.5156 19.0938 39.4062 24.0938 39.4062
C27.5938 39.4062 35.0938 37.2188 35.0938 20.1406
C35.0938 16.9531 35.0938 11.1719 32.0938 6.57812
C29.5938 2.48438 25.7031 0.390625 21.4062 0.390625
C14.7969 0.390625 8.09375 5 6.29688 12.7188
C6.70312 12.6094 7.5 12.4219 7.90625 12.4219
C9.20312 12.4219 11.7031 13.125 11.7031 16.2188
C11.7031 18.9062 9.79688 20 7.90625 20
C5.59375 20 4.09375 18.5938 4.09375 15.7969
C4.09375 7.09375 11 -2 21.5938 -2
C31.9062 -2 41.7031 6.875 41.7031 19.75
C41.7031 31.7188 33.9062 41 24.2031 41
C19.0938 41 14.7969 39.1094 11.4062 35.5312
z
" id="CMR17-53"/>
      </defs>
      <g transform="translate(89.7850247815 134.193254892)scale(0.08 -0.08)">
       <use transform="scale(0.996264009963)" xlink:href="#CMR17-48"/>
       <use transform="translate(45.6904771171 0.0)scale(0.996264009963)" xlink:href="#CMMI12-58"/>
       <use transform="translate(72.7876542069 0.0)scale(0.996264009963)" xlink:href="#CMR17-53"/>
      </g>
     </g>
    </g>
    <g id="ytick_3">
     <g id="text_11">
      <!-- $1.0$ -->
      <g transform="translate(89.7850247815 115.337037895)scale(0.08 -0.08)">
       <use transform="scale(0.996264009963)" xlink:href="#CMR17-49"/>
       <use transform="translate(45.6904771171 0.0)scale(0.996264009963)" xlink:href="#CMMI12-58"/>
       <use transform="translate(72.7876542069 0.0)scale(0.996264009963)" xlink:href="#CMR17-48"/>
      </g>
     </g>
    </g>
    <g id="ytick_4">
     <g id="text_12">
      <!-- $1.5$ -->
      <g transform="translate(89.7850247815 96.4808208984)scale(0.08 -0.08)">
       <use transform="scale(0.996264009963)" xlink:href="#CMR17-49"/>
       <use transform="translate(45.6904771171 0.0)scale(0.996264009963)" xlink:href="#CMMI12-58"/>
       <use transform="translate(72.7876542069 0.0)scale(0.996264009963)" xlink:href="#CMR17-53"/>
      </g>
     </g>
    </g>
    <g id="ytick_5">
     <g id="text_13">
      <!-- $2.0$ -->
      <g transform="translate(89.7850247815 77.6246039017)scale(0.08 -0.08)">
       <use transform="scale(0.996264009963)" xlink:href="#CMR17-50"/>
       <use transform="translate(45.6904771171 0.0)scale(0.996264009963)" xlink:href="#CMMI12-58"/>
       <use transform="translate(72.7876542069 0.0)scale(0.996264009963)" xlink:href="#CMR17-48"/>
      </g>
     </g>
    </g>
    <g id="ytick_6">
     <g id="text_14">
      <!-- $2.5$ -->
      <g transform="translate(89.7850247815 58.7683869049)scale(0.08 -0.08)">
       <use transform="scale(0.996264009963)" xlink:href="#CMR17-50"/>
       <use transform="translate(45.6904771171 0.0)scale(0.996264009963)" xlink:href="#CMMI12-58"/>
       <use transform="translate(72.7876542069 0.0)scale(0.996264009963)" xlink:href="#CMR17-53"/>
      </g>
     </g>
    </g>
    <g id="ytick_7">
     <g id="text_15">
      <!-- $3.0$ -->
      <g transform="translate(89.7850247815 39.9121699082)scale(0.08 -0.08)">
       <use transform="scale(0.996264009963)" xlink:href="#CMR17-51"/>
       <use transform="translate(45.6904771171 0.0)scale(0.996264009963)" xlink:href="#CMMI12-58"/>
       <use transform="translate(72.7876542069 0.0)scale(0.996264009963)" xlink:href="#CMR17-48"/>
      </g>
     </g>
    </g>
    <g id="ytick_8">
     <g id="text_16">
      <!-- $3.5$ -->
      <g transform="translate(89.7850247815 21.0559529114)scale(0.08 -0.08)">
       <use transform="scale(0.996264009963)" xlink:href="#CMR17-51"/>
       <use transform="translate(45.6904771171 0.0)scale(0.996264009963)" xlink:href="#CMMI12-58"/>
       <use transform="translate(72.7876542069 0.0)scale(0.996264009963)" xlink:href="#CMR17-53"/>
      </g>
     </g>
    </g>
    <g id="ytick_9">
     <g id="text_17">
      <!-- $4.0$ -->
      <g transform="translate(89.7850247815 2.19973591464)scale(0.08 -0.08)">
       <use transform="scale(0.996264009963)" xlink:href="#CMR17-52"/>
       <use transform="translate(45.6904771171 0.0)scale(0.996264009963)" xlink:href="#CMMI12-58"/>
       <use transform="translate(72.7876542069 0.0)scale(0.996264009963)" xlink:href="#CMR17-48"/>
      </g>
     </g>
    </g>
   </g>
   <g id="text_18">
    <!-- C:288.78,L:229.99,H:297.82 -->
    <defs>
     <path d="
M58.4062 34.6094
L58.4062 12.2812
L58.4062 9.375
C58.4062 5.1875 57.5 4.6875 49.4062 4.6875
L47.5938 4.6875
L47.5938 0
L80.4062 0
L80.4062 4.6875
L78.5938 4.6875
C70.5 4.6875 69.5938 5.1875 69.5938 9.375
L69.5938 12.2812
L69.5938 59.7188
L69.5938 62.6094
C69.5938 66.8125 70.5 67.3125 78.5938 67.3125
L80.4062 67.3125
L80.4062 72
L48 72
L48 67.3125
L49.4062 67.3125
C57.5 67.3125 58.4062 66.8125 58.4062 62.625
L58.4062 59.7344
L58.4062 40
L24.9062 40
L24.9062 59.7344
L24.9062 62.625
C24.9062 66.8125 25.7969 67.3125 33.9062 67.3125
L35.7969 67.3125
L35.7969 72
L2.90625 72
L2.90625 67.3125
L4.70312 67.3125
C12.7969 67.3125 13.7031 66.8125 13.7031 62.6094
L13.7031 59.7188
L13.7031 12.2812
L13.7031 9.375
C13.7031 5.1875 12.7969 4.6875 4.70312 4.6875
L2.90625 4.6875
L2.90625 0
L35.7969 0
L35.7969 4.6875
L33.9062 4.6875
C25.7969 4.6875 24.9062 5.1875 24.9062 9.375
L24.9062 12.2812
L24.9062 34.6094
z
" id="Century_Schoolbook_L_Roman-72"/>
     <path d="
M64.5938 27.3281
L60.2031 27.3281
C59.2031 20.5469 56.7969 13.7656 54.2031 10.4844
C51.0938 6.59375 45.2969 4.6875 36.9062 4.6875
L32.7031 4.6875
C29.7031 4.6875 27.2031 5.29688 26.2969 6.1875
C25.5938 6.78125 25.5 7.39062 25.5 9.48438
L25.5 59.7188
L25.5 62.6094
C25.5 66.8125 26.4062 67.3125 34.5 67.3125
L36.2969 67.3125
L36.2969 72
L3.5 72
L3.5 67.3125
L5.29688 67.3125
C13.4062 67.3125 14.2969 66.8125 14.2969 62.6094
L14.2969 59.7188
L14.2969 12.2812
L14.2969 9.375
C14.2969 5.1875 13.4062 4.6875 5.29688 4.6875
L3.5 4.6875
L3.5 0
L62.5 0
z
" id="Century_Schoolbook_L_Roman-76"/>
     <path d="
M5.90625 46.1719
L10.2969 45.4844
L12.0938 53.4062
C13.5938 60.0156 14.2969 61 17.2031 61
C17.7031 61 18.5938 61 19.4062 60.6094
C25.2031 60.6094 32.4062 60.6094 36.5 60.6094
C37.9062 60.6094 40 60.6094 42.7031 60.6094
L35.9062 46.8438
C28.4062 31.8594 27.5938 30.1562 25.0938 24.0312
C22.0938 16.4844 20.4062 10.1562 20.4062 5.92188
C20.4062 1.40625 22.7969 -1.5 26.7031 -1.5
C31.5 -1.5 33.4062 1.79688 33.2969 10.4219
C32.7969 24.7344 34.7031 31.8438 45.2969 55.2656
C46.7969 58.4844 48.2969 61.5938 49.7969 64.6875
C49.9062 64.8906 50.2031 65.7969 50.7969 67.0938
L50.7969 69.9844
C44.5938 69.8906 41.2969 69.8906 35.2031 69.8906
C26.7031 69.8906 19.9062 69.8906 9 69.8906
z
" id="Century_Schoolbook_L_Roman-55"/>
     <path d="
M14.9062 11.4688
C11.4062 11.4688 8.59375 8.67188 8.59375 5.28125
C8.59375 1.78125 11.4062 -1 14.7969 -1
C18.2969 -1 21.0938 1.78125 21.0938 5.28125
C21.0938 8.67188 18.2969 11.4688 14.9062 11.4688
M14.9062 47.4688
C11.4062 47.4688 8.59375 44.6719 8.59375 41.2812
C8.59375 37.7969 11.4062 35 14.7969 35
C18.2969 35 21.0938 37.7969 21.0938 41.2812
C21.0938 44.6719 18.2969 47.4688 14.9062 47.4688" id="Century_Schoolbook_L_Roman-58"/>
     <path d="
M50.5 21.5625
L46.0938 21.5625
L45.0938 16.4688
C43.7969 10.0781 43 9.375 36.7969 9.375
L14.4062 9.375
C21.2969 16.5625 23.5938 18.6562 30 23.6562
C39.0938 30.6562 43 34.1562 45.2969 37.1406
C48.5 41.5312 50.0938 46.0312 50.0938 50.8125
C50.0938 62.1094 40.5938 70.2969 27.5938 70.2969
C14.9062 70.2969 5.09375 62.1094 5.09375 51.5156
C5.09375 45.2344 8.29688 40.9375 13.0938 40.9375
C16.7969 40.9375 19.2969 43.4375 19.2969 47.0312
C19.2969 49.5312 17.9062 51.8281 15.7031 52.7344
C12 54.3281 11.7969 54.4219 11.7969 55.7188
C11.7969 57.2188 12.7969 59.5156 14.2031 61.2188
C16.7031 64.2031 20.9062 66 25.5938 66
C33.7969 66 38.7969 60.9062 38.7969 52.5312
C38.7969 45.125 35.2969 38.4375 27 29.6562
L21.0938 23.4688
C17.5938 19.7812 15 16.9688 13.2969 15.0781
C9.70312 10.875 7.90625 8.57812 3.5 2.79688
L3.5 0
L48.5938 0
z
" id="Century_Schoolbook_L_Roman-50"/>
     <path d="
M63.9062 72
L60.0938 72
L56.0938 66.0156
C49 71.2031 45.0938 72.7031 38.4062 72.7031
C28.7031 72.7031 20.7031 68.8125 13.9062 60.7812
C7.5 53.2344 4.5 44.8906 4.5 34.6562
C4.5 13.2969 18.5938 -2 38.2969 -2
C54.2969 -2 64.5 7.34375 66.7969 24.0156
L62.0938 24.8125
C61.0938 19.5469 59.9062 15.9844 58.0938 13.0156
C54 6.17188 47.5938 2.6875 39.5 2.6875
C24.7031 2.6875 17.7031 12.9062 17.7031 34.2656
C17.7031 45.4688 19.2031 53.0156 22.5938 58.9688
C25.7031 64.5312 31.9062 68 38.2969 68
C45.2969 68 51.5 64.3281 55.2969 57.9688
C57.2031 54.6875 58.7031 50.8125 61 43.1719
L65.4062 43.1719
z
" id="Century_Schoolbook_L_Roman-67"/>
     <path d="
M40.4062 35.0938
C39.0938 23.0312 38.5938 20.0469 36.7969 14.9531
C34.2031 7.59375 28.7031 3.29688 22 3.29688
C18.7031 3.29688 16.4062 4.29688 16.4062 5.78125
C16.4062 6.17188 16.5938 6.67188 17 7.46875
C18.2031 9.875 18.4062 10.4844 18.4062 11.875
C18.4062 15.1562 15.7969 17.75 12.5 17.75
C8.70312 17.75 5.70312 14.5625 5.70312 10.5625
C5.70312 4 12.7031 -1 21.9062 -1
C31 -1 38.7969 3.10938 43.7031 10.5156
C48.5938 17.9219 51.2969 27.6406 51.2969 37.9531
C51.2969 58.0781 41.7031 71 26.7969 71
C14 71 3.90625 60.3594 3.90625 46.7969
C3.90625 34.8438 12.2969 26.0156 23.7031 26.0156
C30.7969 26.0156 35 28.3125 40.4062 35.0938
M27.2031 66.7031
C34.5938 66.7031 39.5 59.25 39.5 48
C39.5 43.875 38.7031 40.1562 37.2031 37.8438
C34.9062 34.2188 31 32 26.7031 32
C19.0938 32 14.7969 37.9375 14.7969 48.5938
C14.7969 53.4219 15.9062 58.1562 17.7969 61.1719
C20.0938 65.0938 22.7969 66.7031 27.2031 66.7031" id="Century_Schoolbook_L_Roman-57"/>
     <path d="
M13.7031 11.4688
C10.2031 11.4688 7.40625 8.67188 7.40625 5.28125
C7.40625 1.78125 10.2031 -1 13.5938 -1
C17.0938 -1 19.9062 1.78125 19.9062 5.28125
C19.9062 8.67188 17.0938 11.4688 13.7031 11.4688" id="Century_Schoolbook_L_Roman-46"/>
     <path d="
M37.4062 39.5469
C44.9062 43.6562 48.4062 48.5625 48.4062 55.0781
C48.4062 64.2969 40 71 28.5 71
C16.2969 71 7.40625 62.875 7.40625 51.875
C7.40625 47.5625 9 43.0781 11.7969 39.9688
C13.5 37.9688 15.0938 36.8594 18.7031 34.9531
C14.2969 33.2656 12.4062 32.25 10.2031 30.4531
C6.29688 27.2344 4.09375 22.4375 4.09375 17.3281
C4.09375 11.9219 6.79688 6.51562 11 3.3125
C14.9062 0.5 20.2969 -1 26.7031 -1
C34.0938 -1 40.2969 1 44.4062 4.70312
C48.7031 8.42188 51.2969 14.5156 51.2969 20.6406
C51.2969 26.3438 49.0938 31.4531 45 35.0625
C43 36.75 41.2031 37.8594 37.4062 39.5469
M26.7031 43.4688
C18.5938 46.4688 15.0938 50.2812 15.0938 56.0938
C15.0938 62.3906 20.2969 66.7031 28.2031 66.7031
C35.9062 66.7031 41 61.7969 41 54.4844
C41 49.2812 39 45.875 33.2969 41.0625
z

M32.5 29.6406
C40.0938 26.9375 43.2969 23.0312 43.2969 16.4219
C43.2969 8.40625 37 3.29688 27.2031 3.29688
C17.9062 3.29688 12.4062 8.5 12.4062 17.3125
C12.4062 24.8281 15.5 29.3438 23.2969 32.9531
z
" id="Century_Schoolbook_L_Roman-56"/>
     <path d="
M8.70312 -18.1719
C17.5938 -12.0781 21.7969 -6 21.7969 0.984375
C21.7969 6.98438 18.5 10.875 13.5938 10.875
C9.90625 10.875 7.09375 8.28125 7.09375 4.89062
C7.09375 1.29688 9.79688 -1 13.9062 -1
C14.2969 -1 15.2969 -1 15.5 -0.90625
L15.7969 -0.90625
C16.2969 -0.90625 16.5 -1.20312 16.5 -1.79688
C16.5 -6 13.0938 -10.6875 6.40625 -15.375
z
" id="Century_Schoolbook_L_Roman-44"/>
    </defs>
    <g transform="translate(14.6799076652 52.9194752727)scale(0.07 -0.07)">
     <use transform="scale(0.996264009963)" xlink:href="#Century_Schoolbook_L_Roman-67"/>
     <use transform="translate(71.9299848469 0.0)scale(0.996264009963)" xlink:href="#Century_Schoolbook_L_Roman-58"/>
     <use transform="translate(99.6251544501 0.0)scale(0.996264009963)" xlink:href="#Century_Schoolbook_L_Roman-50"/>
     <use transform="translate(155.016831413 0.0)scale(0.996264009963)" xlink:href="#Century_Schoolbook_L_Roman-56"/>
     <use transform="translate(210.408508377 0.0)scale(0.996264009963)" xlink:href="#Century_Schoolbook_L_Roman-56"/>
     <use transform="translate(265.80018534 0.0)scale(0.996264009963)" xlink:href="#Century_Schoolbook_L_Roman-46"/>
     <use transform="translate(293.495354943 0.0)scale(0.996264009963)" xlink:href="#Century_Schoolbook_L_Roman-55"/>
     <use transform="translate(348.887031907 0.0)scale(0.996264009963)" xlink:href="#Century_Schoolbook_L_Roman-56"/>
     <use transform="translate(404.27870887 0.0)scale(0.996264009963)" xlink:href="#Century_Schoolbook_L_Roman-44"/>
     <use transform="translate(431.973878473 0.0)scale(0.996264009963)" xlink:href="#Century_Schoolbook_L_Roman-76"/>
     <use transform="translate(498.423909607 0.0)scale(0.996264009963)" xlink:href="#Century_Schoolbook_L_Roman-58"/>
     <use transform="translate(526.11907921 0.0)scale(0.996264009963)" xlink:href="#Century_Schoolbook_L_Roman-50"/>
     <use transform="translate(581.510756173 0.0)scale(0.996264009963)" xlink:href="#Century_Schoolbook_L_Roman-50"/>
     <use transform="translate(636.902433136 0.0)scale(0.996264009963)" xlink:href="#Century_Schoolbook_L_Roman-57"/>
     <use transform="translate(692.2941101 0.0)scale(0.996264009963)" xlink:href="#Century_Schoolbook_L_Roman-46"/>
     <use transform="translate(719.989279703 0.0)scale(0.996264009963)" xlink:href="#Century_Schoolbook_L_Roman-57"/>
     <use transform="translate(775.380956666 0.0)scale(0.996264009963)" xlink:href="#Century_Schoolbook_L_Roman-57"/>
     <use transform="translate(830.77263363 0.0)scale(0.996264009963)" xlink:href="#Century_Schoolbook_L_Roman-44"/>
     <use transform="translate(858.467803233 0.0)scale(0.996264009963)" xlink:href="#Century_Schoolbook_L_Roman-72"/>
     <use transform="translate(941.45623346 0.0)scale(0.996264009963)" xlink:href="#Century_Schoolbook_L_Roman-58"/>
     <use transform="translate(969.151403064 0.0)scale(0.996264009963)" xlink:href="#Century_Schoolbook_L_Roman-50"/>
     <use transform="translate(1024.54308003 0.0)scale(0.996264009963)" xlink:href="#Century_Schoolbook_L_Roman-57"/>
     <use transform="translate(1079.93475699 0.0)scale(0.996264009963)" xlink:href="#Century_Schoolbook_L_Roman-55"/>
     <use transform="translate(1135.32643395 0.0)scale(0.996264009963)" xlink:href="#Century_Schoolbook_L_Roman-46"/>
     <use transform="translate(1163.02160356 0.0)scale(0.996264009963)" xlink:href="#Century_Schoolbook_L_Roman-56"/>
     <use transform="translate(1218.41328052 0.0)scale(0.996264009963)" xlink:href="#Century_Schoolbook_L_Roman-50"/>
    </g>
   </g>
   <g id="text_19">
    <!-- C:285.78,L:227.98,H:295.29 -->
    <defs>
     <path d="
M16.4062 59.7031
C21.7969 58.4062 24.5938 58 28.5 58
C37 58 43.2031 61 46.5 66.4844
C47.5938 68.3906 48 69.2812 48 70.0781
C48 70.6875 47.7031 70.9844 47.2031 70.9844
C46.9062 70.9844 46.4062 70.875 45.9062 70.5781
C41 68.4844 38.2969 67.9844 32.5938 67.9844
C26.2031 67.9844 22.5 68.4844 12 70.9844
C11.5938 62.625 10.7031 51.9844 9.29688 39.6562
C7.20312 37.4688 6.5 36.1719 6.5 34.5781
C6.5 32.5938 7.79688 31.2031 9.70312 31.2031
C12.2031 31.2031 13.7969 33.3281 14.2031 37.3594
C17.7031 39.8906 21 41 25 41
C33.9062 41 39.2969 34.0312 39.2969 22.5
C39.2969 15.7344 37.5938 9.95312 34.5938 6.82812
C32.5938 4.70312 28.5 3.29688 24.4062 3.29688
C18.4062 3.29688 12.2031 6.4375 12.2031 9.5625
C12.2031 10.2812 12.7969 11.0781 14 11.7812
C17.0938 13.7031 18 15.0312 18 17.75
C18 21.2969 15.2969 24.0156 11.7031 24.0156
C7.70312 24.0156 4.5 20.2812 4.5 15.5469
C4.5 10.5 7.40625 5.45312 11.9062 2.32812
C15.2969 0.109375 19.4062 -1 24.5938 -1
C40.2969 -1 50.2031 8.28125 50.2031 23.1094
C50.2031 36.8281 41.0938 46 27.5938 46
C23.4062 46 20.2031 45.2969 14.7031 43
z
" id="Century_Schoolbook_L_Roman-53"/>
    </defs>
    <g transform="translate(30.8400651998 73.1368420961)scale(0.07 -0.07)">
     <use transform="scale(0.996264009963)" xlink:href="#Century_Schoolbook_L_Roman-67"/>
     <use transform="translate(71.9299848469 0.0)scale(0.996264009963)" xlink:href="#Century_Schoolbook_L_Roman-58"/>
     <use transform="translate(99.6251544501 0.0)scale(0.996264009963)" xlink:href="#Century_Schoolbook_L_Roman-50"/>
     <use transform="translate(155.016831413 0.0)scale(0.996264009963)" xlink:href="#Century_Schoolbook_L_Roman-56"/>
     <use transform="translate(210.408508377 0.0)scale(0.996264009963)" xlink:href="#Century_Schoolbook_L_Roman-53"/>
     <use transform="translate(265.80018534 0.0)scale(0.996264009963)" xlink:href="#Century_Schoolbook_L_Roman-46"/>
     <use transform="translate(293.495354943 0.0)scale(0.996264009963)" xlink:href="#Century_Schoolbook_L_Roman-55"/>
     <use transform="translate(348.887031907 0.0)scale(0.996264009963)" xlink:href="#Century_Schoolbook_L_Roman-56"/>
     <use transform="translate(404.27870887 0.0)scale(0.996264009963)" xlink:href="#Century_Schoolbook_L_Roman-44"/>
     <use transform="translate(431.973878473 0.0)scale(0.996264009963)" xlink:href="#Century_Schoolbook_L_Roman-76"/>
     <use transform="translate(498.423909607 0.0)scale(0.996264009963)" xlink:href="#Century_Schoolbook_L_Roman-58"/>
     <use transform="translate(526.11907921 0.0)scale(0.996264009963)" xlink:href="#Century_Schoolbook_L_Roman-50"/>
     <use transform="translate(581.510756173 0.0)scale(0.996264009963)" xlink:href="#Century_Schoolbook_L_Roman-50"/>
     <use transform="translate(636.902433136 0.0)scale(0.996264009963)" xlink:href="#Century_Schoolbook_L_Roman-55"/>
     <use transform="translate(692.2941101 0.0)scale(0.996264009963)" xlink:href="#Century_Schoolbook_L_Roman-46"/>
     <use transform="translate(719.989279703 0.0)scale(0.996264009963)" xlink:href="#Century_Schoolbook_L_Roman-57"/>
     <use transform="translate(775.380956666 0.0)scale(0.996264009963)" xlink:href="#Century_Schoolbook_L_Roman-56"/>
     <use transform="translate(830.77263363 0.0)scale(0.996264009963)" xlink:href="#Century_Schoolbook_L_Roman-44"/>
     <use transform="translate(858.467803233 0.0)scale(0.996264009963)" xlink:href="#Century_Schoolbook_L_Roman-72"/>
     <use transform="translate(941.45623346 0.0)scale(0.996264009963)" xlink:href="#Century_Schoolbook_L_Roman-58"/>
     <use transform="translate(969.151403064 0.0)scale(0.996264009963)" xlink:href="#Century_Schoolbook_L_Roman-50"/>
     <use transform="translate(1024.54308003 0.0)scale(0.996264009963)" xlink:href="#Century_Schoolbook_L_Roman-57"/>
     <use transform="translate(1079.93475699 0.0)scale(0.996264009963)" xlink:href="#Century_Schoolbook_L_Roman-53"/>
     <use transform="translate(1135.32643395 0.0)scale(0.996264009963)" xlink:href="#Century_Schoolbook_L_Roman-46"/>
     <use transform="translate(1163.02160356 0.0)scale(0.996264009963)" xlink:href="#Century_Schoolbook_L_Roman-50"/>
     <use transform="translate(1218.41328052 0.0)scale(0.996264009963)" xlink:href="#Century_Schoolbook_L_Roman-57"/>
    </g>
   </g>
   <g id="text_20">
    <!-- C:280.03,L:224.17,H:290.31 -->
    <defs>
     <path d="
M34.5938 37.3594
C36 37.8594 36.2031 37.8594 36.9062 38.1562
C43.9062 41.0625 47.9062 46.6719 47.9062 53.7656
C47.9062 64.1875 39.9062 71 27.5 71
C15.7969 71 6.90625 63.9688 6.90625 54.7188
C6.90625 50.5469 9.70312 47.5938 13.5 47.5938
C17 47.5938 19.4062 50.0469 19.4062 53.7188
C19.4062 55.875 18.5938 57.2969 16.2969 58.9375
C15.2969 59.6406 15 60.1562 15 60.7812
C15 63.6406 20.9062 66.7031 26.5 66.7031
C33.7031 66.7031 37.5 62.125 37.5 53.4688
C37.5 43.9844 33.7031 39 26.5 39
C25.5938 39 24 39 22.5 39
C21.7031 39 20.9062 39 20.2969 39
C18.2031 39 17.0938 38.125 17.0938 36.4062
C17.0938 34.7812 18.2031 34.0156 20.2031 34.0156
C20.5 34.0156 21.2969 34.0156 22.5938 34.0156
C26.4062 34.0156 26.5 34.0156 27.2969 34.0156
C34.7031 34.0156 38.7031 28.8281 38.7031 19.1406
C38.7031 9.0625 33.5938 3.29688 24.7031 3.29688
C18.4062 3.29688 11.5938 6.64062 11.5938 9.6875
C11.5938 10.5938 11.7969 10.7656 13.7969 11.875
C16.5938 13.5312 17.7031 15.2188 17.7031 17.6562
C17.7031 21.2031 15 23.875 11.2969 23.875
C7.09375 23.875 4.20312 20.3281 4.20312 15.1875
C4.20312 5.60938 13.0938 -1 25.9062 -1
C40.2969 -1 49.7969 7.01562 49.7969 19.3281
C49.7969 28.7344 44.9062 34.4375 34.5938 37.3594" id="Century_Schoolbook_L_Roman-51"/>
     <path d="
M36.7969 70.5
L2.79688 23
L2.79688 17.4062
L30.9062 17.4062
L30.9062 12.25
L30.9062 9.35938
C30.9062 5.1875 30 4.6875 21.9062 4.6875
L20.7969 4.6875
L20.7969 0
L50 0
L50 4.6875
L49.5938 4.6875
C41.5 4.6875 40.5938 5.1875 40.5938 9.35938
L40.5938 12.25
L40.5938 17.4062
L52.7031 17.4062
L52.7031 23
L40.5938 23
L40.5938 50.4062
C40.5938 62.9688 40.5938 62.9688 41.0938 70.5
z

M30.9062 23
L8.90625 23
L30.9062 53.4219
z
" id="Century_Schoolbook_L_Roman-52"/>
     <path d="
M28.4062 71
C14.4062 71 4.20312 55.6875 4.20312 34.75
C4.20312 14.125 14.0938 -1 27.5938 -1
C41.5938 -1 51.4062 13.625 51.4062 34.4375
C51.4062 45.0625 49.2031 53.875 45 60.7812
C41.0938 67.0938 34.7031 71 28.4062 71
M27.7031 66.7031
C31 66.7031 34.2031 64.5 36.5938 60.5
C39.2969 55.875 40.2031 49.9688 40.2031 36.25
C40.2031 22.2188 39.5 15.625 37.5 11.2031
C35.2031 6.29688 31.5938 3.29688 27.7969 3.29688
C24.5 3.29688 21.2969 5.5 18.9062 9.5
C16.0938 14.2188 15.2969 20.5312 15.2969 36.8594
C15.2969 48.4844 16 54.375 18 58.6875
C20.2969 63.7969 23.9062 66.7031 27.7031 66.7031" id="Century_Schoolbook_L_Roman-48"/>
     <path d="
M32.2031 70.5
C28.7969 66.2344 19.5938 63 10.4062 63
L10.4062 58.5938
L19.2031 58.5938
C25 58.5938 25.4062 58.2031 25.4062 52.3125
L25.4062 12.2812
L25.4062 9.375
C25.4062 5.1875 24.5 4.6875 16.5 4.6875
L10 4.6875
L10 0
L49.5938 0
L49.5938 4.6875
L44.0938 4.6875
C38.7969 4.6875 36.5938 5.09375 35.7969 6.09375
C35.0938 6.78125 35.0938 6.78125 35.0938 12.3125
L35.0938 53.6719
C35.0938 58.5781 35.2969 63.375 35.7969 70.5
z
" id="Century_Schoolbook_L_Roman-49"/>
    </defs>
    <g transform="translate(68.3663210255 88.1407732945)scale(0.07 -0.07)">
     <use transform="scale(0.996264009963)" xlink:href="#Century_Schoolbook_L_Roman-67"/>
     <use transform="translate(71.9299848469 0.0)scale(0.996264009963)" xlink:href="#Century_Schoolbook_L_Roman-58"/>
     <use transform="translate(99.6251544501 0.0)scale(0.996264009963)" xlink:href="#Century_Schoolbook_L_Roman-50"/>
     <use transform="translate(155.016831413 0.0)scale(0.996264009963)" xlink:href="#Century_Schoolbook_L_Roman-56"/>
     <use transform="translate(210.408508377 0.0)scale(0.996264009963)" xlink:href="#Century_Schoolbook_L_Roman-48"/>
     <use transform="translate(265.80018534 0.0)scale(0.996264009963)" xlink:href="#Century_Schoolbook_L_Roman-46"/>
     <use transform="translate(293.495354943 0.0)scale(0.996264009963)" xlink:href="#Century_Schoolbook_L_Roman-48"/>
     <use transform="translate(348.887031907 0.0)scale(0.996264009963)" xlink:href="#Century_Schoolbook_L_Roman-51"/>
     <use transform="translate(404.27870887 0.0)scale(0.996264009963)" xlink:href="#Century_Schoolbook_L_Roman-44"/>
     <use transform="translate(431.973878473 0.0)scale(0.996264009963)" xlink:href="#Century_Schoolbook_L_Roman-76"/>
     <use transform="translate(498.423909607 0.0)scale(0.996264009963)" xlink:href="#Century_Schoolbook_L_Roman-58"/>
     <use transform="translate(526.11907921 0.0)scale(0.996264009963)" xlink:href="#Century_Schoolbook_L_Roman-50"/>
     <use transform="translate(581.510756173 0.0)scale(0.996264009963)" xlink:href="#Century_Schoolbook_L_Roman-50"/>
     <use transform="translate(636.902433136 0.0)scale(0.996264009963)" xlink:href="#Century_Schoolbook_L_Roman-52"/>
     <use transform="translate(692.2941101 0.0)scale(0.996264009963)" xlink:href="#Century_Schoolbook_L_Roman-46"/>
     <use transform="translate(719.989279703 0.0)scale(0.996264009963)" xlink:href="#Century_Schoolbook_L_Roman-49"/>
     <use transform="translate(775.380956666 0.0)scale(0.996264009963)" xlink:href="#Century_Schoolbook_L_Roman-55"/>
     <use transform="translate(830.77263363 0.0)scale(0.996264009963)" xlink:href="#Century_Schoolbook_L_Roman-44"/>
     <use transform="translate(858.467803233 0.0)scale(0.996264009963)" xlink:href="#Century_Schoolbook_L_Roman-72"/>
     <use transform="translate(941.45623346 0.0)scale(0.996264009963)" xlink:href="#Century_Schoolbook_L_Roman-58"/>
     <use transform="translate(969.151403064 0.0)scale(0.996264009963)" xlink:href="#Century_Schoolbook_L_Roman-50"/>
     <use transform="translate(1024.54308003 0.0)scale(0.996264009963)" xlink:href="#Century_Schoolbook_L_Roman-57"/>
     <use transform="translate(1079.93475699 0.0)scale(0.996264009963)" xlink:href="#Century_Schoolbook_L_Roman-48"/>
     <use transform="translate(1135.32643395 0.0)scale(0.996264009963)" xlink:href="#Century_Schoolbook_L_Roman-46"/>
     <use transform="translate(1163.02160356 0.0)scale(0.996264009963)" xlink:href="#Century_Schoolbook_L_Roman-51"/>
     <use transform="translate(1218.41328052 0.0)scale(0.996264009963)" xlink:href="#Century_Schoolbook_L_Roman-49"/>
    </g>
   </g>
   <g id="text_21">
    <!-- C:278.32,L:222.9,H:288.75 -->
    <g transform="translate(2.69577294171 37.5820908084)scale(0.07 -0.07)">
     <use transform="scale(0.996264009963)" xlink:href="#Century_Schoolbook_L_Roman-67"/>
     <use transform="translate(71.9299848469 0.0)scale(0.996264009963)" xlink:href="#Century_Schoolbook_L_Roman-58"/>
     <use transform="translate(99.6251544501 0.0)scale(0.996264009963)" xlink:href="#Century_Schoolbook_L_Roman-50"/>
     <use transform="translate(155.016831413 0.0)scale(0.996264009963)" xlink:href="#Century_Schoolbook_L_Roman-55"/>
     <use transform="translate(210.408508377 0.0)scale(0.996264009963)" xlink:href="#Century_Schoolbook_L_Roman-56"/>
     <use transform="translate(265.80018534 0.0)scale(0.996264009963)" xlink:href="#Century_Schoolbook_L_Roman-46"/>
     <use transform="translate(293.495354943 0.0)scale(0.996264009963)" xlink:href="#Century_Schoolbook_L_Roman-51"/>
     <use transform="translate(348.887031907 0.0)scale(0.996264009963)" xlink:href="#Century_Schoolbook_L_Roman-50"/>
     <use transform="translate(404.27870887 0.0)scale(0.996264009963)" xlink:href="#Century_Schoolbook_L_Roman-44"/>
     <use transform="translate(431.973878473 0.0)scale(0.996264009963)" xlink:href="#Century_Schoolbook_L_Roman-76"/>
     <use transform="translate(498.423909607 0.0)scale(0.996264009963)" xlink:href="#Century_Schoolbook_L_Roman-58"/>
     <use transform="translate(526.11907921 0.0)scale(0.996264009963)" xlink:href="#Century_Schoolbook_L_Roman-50"/>
     <use transform="translate(581.510756173 0.0)scale(0.996264009963)" xlink:href="#Century_Schoolbook_L_Roman-50"/>
     <use transform="translate(636.902433136 0.0)scale(0.996264009963)" xlink:href="#Century_Schoolbook_L_Roman-50"/>
     <use transform="translate(692.2941101 0.0)scale(0.996264009963)" xlink:href="#Century_Schoolbook_L_Roman-46"/>
     <use transform="translate(719.989279703 0.0)scale(0.996264009963)" xlink:href="#Century_Schoolbook_L_Roman-57"/>
     <use transform="translate(775.380956666 0.0)scale(0.996264009963)" xlink:href="#Century_Schoolbook_L_Roman-44"/>
     <use transform="translate(803.07612627 0.0)scale(0.996264009963)" xlink:href="#Century_Schoolbook_L_Roman-72"/>
     <use transform="translate(886.064556497 0.0)scale(0.996264009963)" xlink:href="#Century_Schoolbook_L_Roman-58"/>
     <use transform="translate(913.7597261 0.0)scale(0.996264009963)" xlink:href="#Century_Schoolbook_L_Roman-50"/>
     <use transform="translate(969.151403064 0.0)scale(0.996264009963)" xlink:href="#Century_Schoolbook_L_Roman-56"/>
     <use transform="translate(1024.54308003 0.0)scale(0.996264009963)" xlink:href="#Century_Schoolbook_L_Roman-56"/>
     <use transform="translate(1079.93475699 0.0)scale(0.996264009963)" xlink:href="#Century_Schoolbook_L_Roman-46"/>
     <use transform="translate(1107.62992659 0.0)scale(0.996264009963)" xlink:href="#Century_Schoolbook_L_Roman-55"/>
     <use transform="translate(1163.02160356 0.0)scale(0.996264009963)" xlink:href="#Century_Schoolbook_L_Roman-53"/>
    </g>
   </g>
   <g id="text_22">
    <!-- C:276.35,L:221.22,H:286.93 -->
    <defs>
     <path d="
M15.2969 34.1094
C16.2969 46.6562 16.7969 50.0469 19 55.2656
C21.9062 62.5156 27.2031 66.7031 33.5 66.7031
C37 66.7031 39.0938 65.5781 39.0938 63.7344
C39.0938 63.3125 39 63.0156 38.5938 62.2969
C37.5938 60.3594 37.0938 58.9375 37.0938 57.5
C37.0938 54.0312 39.7031 51.4688 43.2031 51.4688
C47 51.4688 49.7969 54.5312 49.7969 58.7969
C49.7969 65.8125 42.7969 71 33.4062 71
C25.2031 71 17.5 67.0938 12.7031 60.3906
C7.29688 52.6719 4.20312 42.2656 4.20312 31.3438
C4.20312 11.8281 13.7969 -1 28.5938 -1
C35.0938 -1 40.5 1.1875 44.7031 5.54688
C49 9.90625 51.5938 16.4375 51.5938 22.6875
C51.5938 34.375 43.0938 43.0938 31.7969 43.0938
C25 43.0938 20 40.3906 15.2969 34.1094
M29.0938 37
C36.2969 37 40.7031 31.375 40.7031 21.9688
C40.7031 10.6094 36.0938 3.29688 28.7969 3.29688
C24.2969 3.29688 20.7969 5.76562 18.4062 10.5156
C16.7969 13.5781 16 16.9375 16 20.5938
C16 30.7812 21 37 29.0938 37" id="Century_Schoolbook_L_Roman-54"/>
    </defs>
    <g transform="translate(187.961849644 130.271942707)scale(0.07 -0.07)">
     <use transform="scale(0.996264009963)" xlink:href="#Century_Schoolbook_L_Roman-67"/>
     <use transform="translate(71.9299848469 0.0)scale(0.996264009963)" xlink:href="#Century_Schoolbook_L_Roman-58"/>
     <use transform="translate(99.6251544501 0.0)scale(0.996264009963)" xlink:href="#Century_Schoolbook_L_Roman-50"/>
     <use transform="translate(155.016831413 0.0)scale(0.996264009963)" xlink:href="#Century_Schoolbook_L_Roman-55"/>
     <use transform="translate(210.408508377 0.0)scale(0.996264009963)" xlink:href="#Century_Schoolbook_L_Roman-54"/>
     <use transform="translate(265.80018534 0.0)scale(0.996264009963)" xlink:href="#Century_Schoolbook_L_Roman-46"/>
     <use transform="translate(293.495354943 0.0)scale(0.996264009963)" xlink:href="#Century_Schoolbook_L_Roman-51"/>
     <use transform="translate(348.887031907 0.0)scale(0.996264009963)" xlink:href="#Century_Schoolbook_L_Roman-53"/>
     <use transform="translate(404.27870887 0.0)scale(0.996264009963)" xlink:href="#Century_Schoolbook_L_Roman-44"/>
     <use transform="translate(431.973878473 0.0)scale(0.996264009963)" xlink:href="#Century_Schoolbook_L_Roman-76"/>
     <use transform="translate(498.423909607 0.0)scale(0.996264009963)" xlink:href="#Century_Schoolbook_L_Roman-58"/>
     <use transform="translate(526.11907921 0.0)scale(0.996264009963)" xlink:href="#Century_Schoolbook_L_Roman-50"/>
     <use transform="translate(581.510756173 0.0)scale(0.996264009963)" xlink:href="#Century_Schoolbook_L_Roman-50"/>
     <use transform="translate(636.902433136 0.0)scale(0.996264009963)" xlink:href="#Century_Schoolbook_L_Roman-49"/>
     <use transform="translate(692.2941101 0.0)scale(0.996264009963)" xlink:href="#Century_Schoolbook_L_Roman-46"/>
     <use transform="translate(719.989279703 0.0)scale(0.996264009963)" xlink:href="#Century_Schoolbook_L_Roman-50"/>
     <use transform="translate(775.380956666 0.0)scale(0.996264009963)" xlink:href="#Century_Schoolbook_L_Roman-50"/>
     <use transform="translate(830.77263363 0.0)scale(0.996264009963)" xlink:href="#Century_Schoolbook_L_Roman-44"/>
     <use transform="translate(858.467803233 0.0)scale(0.996264009963)" xlink:href="#Century_Schoolbook_L_Roman-72"/>
     <use transform="translate(941.45623346 0.0)scale(0.996264009963)" xlink:href="#Century_Schoolbook_L_Roman-58"/>
     <use transform="translate(969.151403064 0.0)scale(0.996264009963)" xlink:href="#Century_Schoolbook_L_Roman-50"/>
     <use transform="translate(1024.54308003 0.0)scale(0.996264009963)" xlink:href="#Century_Schoolbook_L_Roman-56"/>
     <use transform="translate(1079.93475699 0.0)scale(0.996264009963)" xlink:href="#Century_Schoolbook_L_Roman-54"/>
     <use transform="translate(1135.32643395 0.0)scale(0.996264009963)" xlink:href="#Century_Schoolbook_L_Roman-46"/>
     <use transform="translate(1163.02160356 0.0)scale(0.996264009963)" xlink:href="#Century_Schoolbook_L_Roman-57"/>
     <use transform="translate(1218.41328052 0.0)scale(0.996264009963)" xlink:href="#Century_Schoolbook_L_Roman-51"/>
    </g>
   </g>
   <g id="text_23">
    <!-- C:274.07,L:219.29,H:284.81 -->
    <g transform="translate(182.70265621 103.253962279)scale(0.07 -0.07)">
     <use transform="scale(0.996264009963)" xlink:href="#Century_Schoolbook_L_Roman-67"/>
     <use transform="translate(71.9299848469 0.0)scale(0.996264009963)" xlink:href="#Century_Schoolbook_L_Roman-58"/>
     <use transform="translate(99.6251544501 0.0)scale(0.996264009963)" xlink:href="#Century_Schoolbook_L_Roman-50"/>
     <use transform="translate(155.016831413 0.0)scale(0.996264009963)" xlink:href="#Century_Schoolbook_L_Roman-55"/>
     <use transform="translate(210.408508377 0.0)scale(0.996264009963)" xlink:href="#Century_Schoolbook_L_Roman-52"/>
     <use transform="translate(265.80018534 0.0)scale(0.996264009963)" xlink:href="#Century_Schoolbook_L_Roman-46"/>
     <use transform="translate(293.495354943 0.0)scale(0.996264009963)" xlink:href="#Century_Schoolbook_L_Roman-48"/>
     <use transform="translate(348.887031907 0.0)scale(0.996264009963)" xlink:href="#Century_Schoolbook_L_Roman-55"/>
     <use transform="translate(404.27870887 0.0)scale(0.996264009963)" xlink:href="#Century_Schoolbook_L_Roman-44"/>
     <use transform="translate(431.973878473 0.0)scale(0.996264009963)" xlink:href="#Century_Schoolbook_L_Roman-76"/>
     <use transform="translate(498.423909607 0.0)scale(0.996264009963)" xlink:href="#Century_Schoolbook_L_Roman-58"/>
     <use transform="translate(526.11907921 0.0)scale(0.996264009963)" xlink:href="#Century_Schoolbook_L_Roman-50"/>
     <use transform="translate(581.510756173 0.0)scale(0.996264009963)" xlink:href="#Century_Schoolbook_L_Roman-49"/>
     <use transform="translate(636.902433136 0.0)scale(0.996264009963)" xlink:href="#Century_Schoolbook_L_Roman-57"/>
     <use transform="translate(692.2941101 0.0)scale(0.996264009963)" xlink:href="#Century_Schoolbook_L_Roman-46"/>
     <use transform="translate(719.989279703 0.0)scale(0.996264009963)" xlink:href="#Century_Schoolbook_L_Roman-50"/>
     <use transform="translate(775.380956666 0.0)scale(0.996264009963)" xlink:href="#Century_Schoolbook_L_Roman-57"/>
     <use transform="translate(830.77263363 0.0)scale(0.996264009963)" xlink:href="#Century_Schoolbook_L_Roman-44"/>
     <use transform="translate(858.467803233 0.0)scale(0.996264009963)" xlink:href="#Century_Schoolbook_L_Roman-72"/>
     <use transform="translate(941.45623346 0.0)scale(0.996264009963)" xlink:href="#Century_Schoolbook_L_Roman-58"/>
     <use transform="translate(969.151403064 0.0)scale(0.996264009963)" xlink:href="#Century_Schoolbook_L_Roman-50"/>
     <use transform="translate(1024.54308003 0.0)scale(0.996264009963)" xlink:href="#Century_Schoolbook_L_Roman-56"/>
     <use transform="translate(1079.93475699 0.0)scale(0.996264009963)" xlink:href="#Century_Schoolbook_L_Roman-52"/>
     <use transform="translate(1135.32643395 0.0)scale(0.996264009963)" xlink:href="#Century_Schoolbook_L_Roman-46"/>
     <use transform="translate(1163.02160356 0.0)scale(0.996264009963)" xlink:href="#Century_Schoolbook_L_Roman-56"/>
     <use transform="translate(1218.41328052 0.0)scale(0.996264009963)" xlink:href="#Century_Schoolbook_L_Roman-49"/>
    </g>
   </g>
   <g id="text_24">
    <!-- OutRights(rich/cheap) -->
    <defs>
     <path d="
M19.4062 47
L19.4062 67
L15.2969 67
C14.2969 53.875 9.90625 47.1875 1.79688 46.5938
L1.79688 42.7031
L10 42.7031
L10 17.2656
C10 10.2812 10.2031 7.78125 11.2031 5.48438
C12.7969 1.29688 16.7969 -1 22.5938 -1
C26.5 -1 29.9062 0.203125 32.2031 2.39062
C35.5 5.59375 37.4062 10.875 37.4062 16.375
C37.4062 16.9688 37.4062 17.6719 37.2969 18.6719
L33.0938 18.6719
C32.7969 9.6875 30.2031 5.09375 25.2969 5.09375
C23 5.09375 21 6.28125 20.2969 7.98438
C19.7031 9.375 19.4062 11.875 19.4062 15.4688
L19.4062 42.7031
L34.0938 42.7031
L34.0938 47
z
" id="Century_Schoolbook_L_Roman-116"/>
     <path d="
M41.2031 0
L59.4062 0
L59.4062 4.70312
L56.9062 4.70312
C51.4062 4.70312 50.5938 5.59375 50.5938 11.9531
L50.5938 46.7812
L31.7969 46.7812
L31.7969 42
L36.9062 42
C40.5938 42 41.2031 41.2969 41.2031 36.9531
L41.2031 24.5625
C41.2031 18.8125 40.5938 15.4844 39.0938 12.1562
C37 7.71875 33 5.09375 28.0938 5.09375
C25 5.09375 22.4062 6.1875 21.0938 8.17188
C19.7969 10.0469 19.5938 11.0469 19.5938 16.5
L19.5938 46.7812
L2.09375 46.7812
L2.09375 42
L5.90625 42
C9.59375 42 10.2031 41.2969 10.2031 36.9531
L10.2031 15.2188
C10.2031 10.0781 10.5938 7.76562 12.0938 5.45312
C14.7969 1.3125 19.5938 -1 25.5938 -1
C32.2031 -1 36.7969 1.71875 41.2031 8.125
z
" id="Century_Schoolbook_L_Roman-117"/>
     <path d="
M19.5938 7.59375
C14.0938 7.59375 13.7969 7.70312 12.5938 8.46875
C11.9062 8.90625 11.4062 10.1094 11.4062 11.2969
C11.4062 14.5781 14.0938 16 20.7969 16
C30.2969 16 31.7969 16.2031 35.0938 17.6875
C41.0938 20.3594 44.5 25.4844 44.5 31.9844
C44.5 35.9219 43.5938 38.3906 40.7969 41.6406
C42.5 43.4062 43.4062 44 44.2031 44
C44.7031 44 45 43.6875 45.2031 42.625
C45.5938 40.2656 47.2031 39 49.7031 39
C52.2031 39 54.2031 41.0938 54.2031 43.7812
C54.2031 47.1875 51.5 49.5781 47.5938 49.5781
C44.4062 49.5781 42.5938 48.5625 38 44.2969
C33.7969 47.0938 30.5938 48.0781 25.5938 48.0781
C13.7031 48.0781 5.90625 41.625 5.90625 31.8125
C5.90625 26.0312 9.09375 21.0312 14.2969 18.6875
C7.59375 17.1562 4.79688 14.0938 4.79688 8.46875
C4.79688 3.98438 6.79688 1.32812 11.5 -0.296875
C5.29688 -2.48438 2.29688 -5.67188 2.29688 -9.75
C2.29688 -16.3125 10 -20 23.4062 -20
C40.0938 -20 48.5 -14.7188 48.5 -4.25
C48.5 0.71875 46.2031 4.6875 42.5 6.1875
C39.9062 7.1875 36.7031 7.59375 29.7969 7.59375
z

M25.5 44
C31.7969 44 35.2969 39.6719 35.2969 32.0938
C35.2969 24.4219 31.5 19.7812 25.0938 19.7812
C18.9062 19.7812 15 24.4219 15 31.7969
C15 39.5625 18.7969 44 25.5 44
M24.5938 -1
C32.9062 -1 33.5 -1 35 -1.1875
C39 -1.59375 41.5 -3.78125 41.5 -6.95312
C41.5 -12.625 35 -15.9062 23.7969 -15.9062
C15.4062 -15.9062 10.5938 -13.4219 10.5938 -8.95312
C10.5938 -5.67188 12.4062 -3.46875 17.2031 -1
z
" id="Century_Schoolbook_L_Roman-103"/>
     <path d="
M39 48
L35.5 48
L32.5938 44.4062
C29 47.2031 25.4062 48.3906 20.4062 48.3906
C11.5938 48.3906 5.79688 42.625 5.79688 33.9531
C5.79688 30.0781 7.09375 26.7812 9.29688 24.8125
C11.5938 22.7031 13.9062 21.7188 19.9062 20.3125
L25.2031 19.125
C33.0938 17.2344 35.9062 15.2344 35.9062 11.2656
C35.9062 6.57812 31.7969 3.29688 25.9062 3.29688
C17.5 3.29688 11.5 8.76562 9.09375 18.875
L5.09375 18.875
L5.09375 0
L8.59375 0
L12.0938 3.90625
C16.2031 0.59375 20.7969 -1 25.7969 -1
C35.5938 -1 42.0938 5.07812 42.0938 14.3438
C42.0938 18.7188 40.7031 22.0938 37.9062 24.3906
C35.5 26.4844 33.5 27.2812 27.4062 28.5625
L22.4062 29.6719
C16.9062 30.8594 16.9062 30.8594 15.0938 31.8594
C12.9062 32.8594 11.5938 34.9375 11.5938 37.1406
C11.5938 41.1094 15.4062 44 20.9062 44
C24.7031 44 27.7969 42.7031 30.5938 40.0156
C32.7969 37.8125 33.9062 35.8281 35.5 31.2344
L39 31.2344
z
" id="Century_Schoolbook_L_Roman-115"/>
     <path d="
M20.5938 46
L1.79688 46
L1.79688 41.2188
L6.90625 41.2188
C10.5938 41.2188 11.2031 40.5156 11.2031 36.2031
L11.2031 12.2969
L11.2031 8.29688
C11.2031 4.29688 10.0938 3.59375 3.70312 3.59375
L3 3.59375
L3 0
L28.9062 0
L28.9062 3.59375
L28.2031 3.59375
C21.7031 3.59375 20.5938 4.28125 20.5938 8.21875
L20.5938 12.1719
z

M15.9062 71.5781
C12.7031 71.5781 10.0938 68.9844 10.0938 65.7969
C10.0938 62.7031 12.7031 60 15.7969 60
C19.0938 60 21.7031 62.5938 21.7031 65.7969
C21.7031 68.9844 19.0938 71.5781 15.9062 71.5781" id="Century_Schoolbook_L_Roman-105"/>
     <path d="
M20 73
L1.5 73
L1.5 68.2188
L6.29688 68.2188
C10 68.2188 10.5938 67.5156 10.5938 63.2188
L10.5938 12.2812
L10.5938 8.28125
C10.5938 4.29688 9.5 3.59375 3.09375 3.59375
L2.70312 3.59375
L2.70312 0
L28 0
L28 3.59375
L27.5938 3.59375
C21.0938 3.59375 20 4.29688 20 8.28125
L20 12.2812
L20 22.5625
C20 27.5469 20.7031 32.0312 21.7969 34.3281
C23.9062 38.8281 28.4062 41.9219 32.7031 41.9219
C35.2969 41.9219 38.2969 40.4219 39.7969 38.4219
C41.2969 36.2344 42 33.2344 42 28.3438
L42 12.2812
L42 8.28125
C42 4.29688 40.9062 3.59375 34.4062 3.59375
L34 3.59375
L34 0
L59.2969 0
L59.2969 3.59375
L58.9062 3.59375
C52.5 3.59375 51.4062 4.29688 51.4062 8.28125
L51.4062 12.2812
L51.4062 27.9531
C51.4062 35.125 51.0938 36.9219 49.2969 40.3281
C46.7969 45.1094 41.7969 48 35.7969 48
C29.4062 48 24.5 45.0156 20 38.3281
z
" id="Century_Schoolbook_L_Roman-104"/>
     <path d="
M46.5 23
C46.5938 37.8125 38.0938 48.2812 25.9062 48.2812
C13.0938 48.2812 3.5 37.25 3.5 22.3438
C3.5 8.4375 12.5938 -1 26.0938 -1
C35.5938 -1 42.4062 3.6875 46.5 13.1875
L43 15.0938
C38.9062 7.39062 34.7031 4.39062 28 4.39062
C22.9062 4.39062 19.2031 6.59375 16.5938 11
C14.7969 14 14 17.5 14.0938 23
z

M14.2031 27.2969
C14.2031 30.3438 14.5938 32.5 15.5938 35.25
C17.7031 41.1406 20.9062 44 25.7031 44
C31.7969 44 35.7969 38.7812 35.7969 30.9219
C35.7969 28.0781 34.9062 27.2969 31.7031 27.2969
z
" id="Century_Schoolbook_L_Roman-101"/>
     <path d="
M39.2969 74
C30.4062 74 22.7969 71.2031 16.7031 65.6094
C9 58.5469 4.5 47.7656 4.5 36.4062
C4.5 15.1562 19.4062 -1 38.9062 -1
C58.5 -1 73.2969 15.1562 73.2969 36.5
C73.2969 57.6406 58.5 74 39.2969 74
M39.2031 69.2969
C45.9062 69.2969 51.5 66.2031 55.0938 60.7344
C58.7969 54.8438 60.0938 48.6562 60.0938 36.5
C60.0938 24.3438 58.7969 18.25 55.0938 12.2656
C51.5 6.6875 46 3.6875 38.9062 3.6875
C31.7969 3.6875 26.2969 6.6875 22.7031 12.2656
C18.9062 18.3438 17.7031 24.3438 17.7031 36.7031
C17.7031 48.6562 19 54.75 22.7031 60.7344
C26.4062 66.5156 31.7031 69.2969 39.2031 69.2969" id="Century_Schoolbook_L_Roman-79"/>
     <path d="
M24.5938 35
L30.4062 35
C34.2969 35 38.2969 33.7969 40.5 31.9844
C43.4062 29.6875 44.9062 26.0781 45.5938 19.4688
L46.0938 14.3438
C47.2969 3.01562 51 -1.59375 58.9062 -1.59375
C67.0938 -1.59375 71 3.92188 71.2969 15.9219
L67.0938 15.9219
C66.7031 9 65.5 6 62.7969 6
C60.5 6 59.5 7.70312 57.7969 14.625
L56.2031 20.9375
C54 30.1719 50.0938 34.375 42.2969 36.3906
C56.7031 38.3906 63.5938 44.1406 63.5938 54.1875
C63.5938 65.5312 54 72 37.2031 72
L2.59375 72
L2.59375 67.3125
L4.40625 67.3125
C12.5 67.3125 13.4062 66.8125 13.4062 62.6094
L13.4062 59.7188
L13.4062 12.1719
L13.4062 9.375
C13.4062 5.1875 12.5 4.6875 4.40625 4.6875
L2.59375 4.6875
L2.59375 0
L35.4062 0
L35.4062 4.6875
L33.5938 4.6875
C25.5 4.6875 24.5938 5.1875 24.5938 9.39062
L24.5938 12.1875
z

M24.5938 39.6875
L24.5938 61.625
C24.5938 65.625 24.7031 65.9219 25.7031 66.7188
C26.5 67.3125 27.2031 67.3125 31.5 67.3125
L36.9062 67.3125
C46.7969 67.3125 51.2969 63.125 51.2969 54.0938
C51.2969 49.0156 50 45.1406 47.4062 43.0625
C44.9062 40.9844 40.4062 39.6875 35.5938 39.6875
z
" id="Century_Schoolbook_L_Roman-82"/>
     <path d="
M19.7969 46
L2.09375 46
L2.09375 41.2188
L6.20312 41.2188
C9.90625 41.2188 10.5 40.5156 10.5 36.2031
L10.5 12.2969
L10.5 8.29688
C10.5 4.29688 9.40625 3.59375 2.90625 3.59375
L2.5 3.59375
L2.5 0
L29.2031 0
L29.2031 3.59375
L27.2969 3.59375
C20.9062 3.59375 19.7969 4.29688 19.7969 8.29688
L19.7969 12.2969
L19.7969 13.2969
C19.7969 20.8125 21.2031 28.4062 23.7031 34.1094
C26.0938 39.7031 29.5 42.8125 33.7031 43.3125
C32.2969 41.7031 31.9062 40.6875 31.9062 38.7656
C31.9062 35.5469 34.2031 33.2344 37.4062 33.2344
C41 33.2344 43.5 35.9375 43.5 40.0156
C43.5 44.8125 40.0938 48 34.7969 48
C28.5 48 23 42.9219 19.7969 34.1406
z
" id="Century_Schoolbook_L_Roman-114"/>
     <path d="
M45.2031 32.5781
C45.2031 38.7969 44.0938 41.9688 41.2031 44.3438
C37.9062 46.9062 33 48.2812 26.5938 48.2812
C15.4062 48.2812 7.09375 43.0469 7.09375 35.9219
C7.09375 32.1562 9.40625 29.7812 12.9062 29.7812
C16 29.7812 18.2969 31.8594 18.2969 34.8125
C18.2969 36.1094 17.7969 37.4844 16.7969 38.875
C16.2031 39.5469 16.0938 39.8438 16.0938 40.1562
C16.0938 42.2188 20.2031 44 25 44
C28.0938 44 31.5938 43.0156 33.2031 41.5312
C35.0938 39.9531 35.7969 37.5781 35.7969 33.125
L35.7969 29.2812
C25.2969 27.4844 22.0938 26.6875 17.2031 24.8125
C8.59375 21.6094 4.40625 16.9375 4.40625 10.6562
C4.40625 3.57812 10.0938 -1 18.9062 -1
C25.7969 -1 32 1.85938 36.2969 7.0625
C37.9062 1.98438 40.4062 0 45.0938 0
C49.5938 0 54.2969 2.89062 54.2969 5.78125
C54.2969 6.46875 53.7969 6.96875 53.2969 6.96875
C52.9062 6.96875 52.5 6.875 51.7969 6.57812
C50.2031 6 49.7969 5.89062 49 5.89062
C46.2031 5.89062 45.2031 7.78125 45.2031 12.7188
z

M35.7969 20.4688
C35.7969 14.4688 35.5 13.0781 33.7969 10.4844
C31.2969 6.78125 26.7031 4.29688 22.4062 4.29688
C17.9062 4.29688 14.5 7.59375 14.5 12.0781
C14.5 16.2656 16.5938 19.2656 21 21.3594
C24.0938 22.75 28 23.75 35.7969 25.0469
z
" id="Century_Schoolbook_L_Roman-97"/>
     <path d="
M20.0938 46
L2.79688 46
L2.79688 41.2188
L6.40625 41.2188
C10.0938 41.2188 10.7031 40.5156 10.7031 36.2188
L10.7031 -7.75
L10.7031 -11.7188
C10.7031 -15.7188 9.59375 -16.4062 3.20312 -16.4062
L2.79688 -16.4062
L2.79688 -20
L28.7969 -20
L28.7969 -16.4062
L27.7031 -16.4062
C21.2031 -16.4062 20.0938 -15.7188 20.0938 -11.7344
L20.0938 -7.75
L20.0938 6.6875
C23.4062 0.90625 27.2031 -1.39062 33.2969 -1.39062
C44.9062 -1.39062 53.5 9.26562 53.5 23.5
C53.5 37.2656 44.9062 48 33.9062 48
C27.7031 48 23.5938 45.4375 20.0938 39.5156
z

M32.0938 42.6094
C39 42.6094 43 35.75 43 24.0938
C43 11.2656 38.9062 4 31.7969 4
C24.7031 4 20 11.375 20 22.8125
C20 35.1406 24.5 42.6094 32.0938 42.6094" id="Century_Schoolbook_L_Roman-112"/>
     <path d="
M5.40625 -12.2812
C11.4062 -8.57812 14.5938 -5.98438 18 -1.89062
C25.5938 6.98438 29.7031 18.5625 29.7031 30.6406
C29.7031 42.0156 26.0938 52.7031 19.4062 61.4844
C15.5938 66.375 12.2031 69.3594 5.40625 73.4531
L5.40625 69.7656
C15.4062 60.9844 19.4062 49.7969 19.4062 30.6406
C19.4062 11.375 15.4062 0.203125 5.40625 -8.57812
z
" id="Century_Schoolbook_L_Roman-41"/>
     <path d="
M27.9062 73.4531
C21.9062 69.7656 18.7031 67.1719 15.2969 63.1719
C7.70312 54.1875 3.59375 42.7188 3.59375 30.6406
C3.59375 19.2656 7.20312 8.57812 13.9062 -0.296875
C17.7031 -5.09375 21.0938 -8.07812 27.9062 -12.2812
L27.9062 -8.57812
C17.9062 0.203125 13.9062 11.4844 13.9062 30.6406
C13.9062 49.7969 17.9062 60.9844 27.9062 69.7656
z
" id="Century_Schoolbook_L_Roman-40"/>
     <path d="
M24.4062 74
L-2.29688 -1
L3.5 -1
L30.2031 74
z
" id="Century_Schoolbook_L_Roman-47"/>
     <path d="
M38.7031 15.125
C35.5 7.96875 32.0938 5.09375 26.9062 5.09375
C18.9062 5.09375 13.9062 12.3281 13.9062 23.9375
C13.9062 35.9531 18.7969 44 26.2031 44
C29.2031 44 31.7969 42.5938 31.7969 41.0156
C31.7969 40.7188 31.5938 40.4219 31.2031 39.8125
C29.5938 37.9375 29.2031 36.9375 29.2031 35.2656
C29.2031 31.9844 31.7031 29.7031 35.2031 29.7031
C38.7031 29.7031 41.2969 32.4844 41.2969 36.4531
C41.2969 43.1094 34.5938 48.2812 25.7031 48.2812
C12.7031 48.2812 3.40625 37.6562 3.40625 22.8438
C3.40625 8.73438 11.9062 -1 24.2969 -1
C33.2031 -1 38.2969 3.07812 42.5938 13.625
z
" id="Century_Schoolbook_L_Roman-99"/>
    </defs>
    <g transform="translate(86.3203643442 -5.0)scale(0.07 -0.07)">
     <use transform="scale(0.996264009963)" xlink:href="#Century_Schoolbook_L_Roman-79"/>
     <use transform="translate(77.5083701014 0.0)scale(0.996264009963)" xlink:href="#Century_Schoolbook_L_Roman-117"/>
     <use transform="translate(138.380000778 0.0)scale(0.996264009963)" xlink:href="#Century_Schoolbook_L_Roman-116"/>
     <use transform="translate(177.133706973 0.0)scale(0.996264009963)" xlink:href="#Century_Schoolbook_L_Roman-82"/>
     <use transform="translate(249.06369182 0.0)scale(0.996264009963)" xlink:href="#Century_Schoolbook_L_Roman-105"/>
     <use transform="translate(280.445004816 0.0)scale(0.996264009963)" xlink:href="#Century_Schoolbook_L_Roman-103"/>
     <use transform="translate(333.944348707 0.0)scale(0.996264009963)" xlink:href="#Century_Schoolbook_L_Roman-104"/>
     <use transform="translate(394.815979384 0.0)scale(0.996264009963)" xlink:href="#Century_Schoolbook_L_Roman-116"/>
     <use transform="translate(433.569685578 0.0)scale(0.996264009963)" xlink:href="#Century_Schoolbook_L_Roman-115"/>
     <use transform="translate(479.695496138 0.0)scale(0.996264009963)" xlink:href="#Century_Schoolbook_L_Roman-40"/>
     <use transform="translate(512.870725867 0.0)scale(0.996264009963)" xlink:href="#Century_Schoolbook_L_Roman-114"/>
     <use transform="translate(557.104294564 0.0)scale(0.996264009963)" xlink:href="#Century_Schoolbook_L_Roman-105"/>
     <use transform="translate(588.485607561 0.0)scale(0.996264009963)" xlink:href="#Century_Schoolbook_L_Roman-99"/>
     <use transform="translate(632.022265747 0.0)scale(0.996264009963)" xlink:href="#Century_Schoolbook_L_Roman-104"/>
     <use transform="translate(692.893896424 0.0)scale(0.996264009963)" xlink:href="#Century_Schoolbook_L_Roman-47"/>
     <use transform="translate(720.589066027 0.0)scale(0.996264009963)" xlink:href="#Century_Schoolbook_L_Roman-99"/>
     <use transform="translate(764.125724213 0.0)scale(0.996264009963)" xlink:href="#Century_Schoolbook_L_Roman-104"/>
     <use transform="translate(824.99735489 0.0)scale(0.996264009963)" xlink:href="#Century_Schoolbook_L_Roman-101"/>
     <use transform="translate(874.810555388 0.0)scale(0.996264009963)" xlink:href="#Century_Schoolbook_L_Roman-97"/>
     <use transform="translate(930.202232351 0.0)scale(0.996264009963)" xlink:href="#Century_Schoolbook_L_Roman-112"/>
     <use transform="translate(987.387719635 0.0)scale(0.996264009963)" xlink:href="#Century_Schoolbook_L_Roman-41"/>
    </g>
   </g>
  </g>
 </g>
 <defs>
  <clipPath id="pfff7fd3862">
   <rect height="150.849735974" width="244.08" x="0.0" y="0.0"/>
  </clipPath>
 </defs>
</svg>
