<?xml version="1.0" encoding="utf-8" standalone="no"?>
<!DOCTYPE svg PUBLIC "-//W3C//DTD SVG 1.1//EN"
  "http://www.w3.org/Graphics/SVG/1.1/DTD/svg11.dtd">
<!-- Created with matplotlib (http://matplotlib.org/) -->
<svg height="288pt" version="1.1" viewBox="0 0 432 288" width="432pt" xmlns="http://www.w3.org/2000/svg" xmlns:xlink="http://www.w3.org/1999/xlink">
 <defs>
  <style type="text/css">
*{stroke-linecap:butt;stroke-linejoin:round;}
  </style>
 </defs>
 <g id="figure_1">
  <g id="patch_1">
   <path d="
M0 288
L432 288
L432 0
L0 0
z
" style="fill:#ffffff;"/>
  </g>
  <g id="axes_1">
   <g id="text_1">
    <!-- Bull -->
    <defs>
     <path d="
M8.5 21.5781
L8.5 54.6875
L17.4844 54.6875
L17.4844 21.9219
Q17.4844 14.1562 20.5 10.2656
Q23.5312 6.39062 29.5938 6.39062
Q36.8594 6.39062 41.0781 11.0312
Q45.3125 15.6719 45.3125 23.6875
L45.3125 54.6875
L54.2969 54.6875
L54.2969 0
L45.3125 0
L45.3125 8.40625
Q42.0469 3.42188 37.7188 1
Q33.4062 -1.42188 27.6875 -1.42188
Q18.2656 -1.42188 13.375 4.4375
Q8.5 10.2969 8.5 21.5781" id="BitstreamVeraSans-Roman-75"/>
     <path d="
M19.6719 34.8125
L19.6719 8.10938
L35.5 8.10938
Q43.4531 8.10938 47.2812 11.4062
Q51.125 14.7031 51.125 21.4844
Q51.125 28.3281 47.2812 31.5625
Q43.4531 34.8125 35.5 34.8125
z

M19.6719 64.7969
L19.6719 42.8281
L34.2812 42.8281
Q41.5 42.8281 45.0312 45.5312
Q48.5781 48.25 48.5781 53.8125
Q48.5781 59.3281 45.0312 62.0625
Q41.5 64.7969 34.2812 64.7969
z

M9.8125 72.9062
L35.0156 72.9062
Q46.2969 72.9062 52.3906 68.2188
Q58.5 63.5312 58.5 54.8906
Q58.5 48.1875 55.375 44.2344
Q52.25 40.2812 46.1875 39.3125
Q53.4688 37.75 57.5 32.7812
Q61.5312 27.8281 61.5312 20.4062
Q61.5312 10.6406 54.8906 5.3125
Q48.25 0 35.9844 0
L9.8125 0
z
" id="BitstreamVeraSans-Roman-42"/>
     <path d="
M9.42188 75.9844
L18.4062 75.9844
L18.4062 0
L9.42188 0
z
" id="BitstreamVeraSans-Roman-6c"/>
    </defs>
    <g transform="translate(108.0 273.6)scale(0.1 -0.1)">
     <use xlink:href="#BitstreamVeraSans-Roman-42"/>
     <use x="68.603515625" xlink:href="#BitstreamVeraSans-Roman-75"/>
     <use x="131.982421875" xlink:href="#BitstreamVeraSans-Roman-6c"/>
     <use x="159.765625" xlink:href="#BitstreamVeraSans-Roman-6c"/>
    </g>
   </g>
   <g id="text_2">
    <!-- Bear -->
    <defs>
     <path d="
M56.2031 29.5938
L56.2031 25.2031
L14.8906 25.2031
Q15.4844 15.9219 20.4844 11.0625
Q25.4844 6.20312 34.4219 6.20312
Q39.5938 6.20312 44.4531 7.46875
Q49.3125 8.73438 54.1094 11.2812
L54.1094 2.78125
Q49.2656 0.734375 44.1875 -0.34375
Q39.1094 -1.42188 33.8906 -1.42188
Q20.7969 -1.42188 13.1562 6.1875
Q5.51562 13.8125 5.51562 26.8125
Q5.51562 40.2344 12.7656 48.1094
Q20.0156 56 32.3281 56
Q43.3594 56 49.7812 48.8906
Q56.2031 41.7969 56.2031 29.5938
M47.2188 32.2344
Q47.125 39.5938 43.0938 43.9844
Q39.0625 48.3906 32.4219 48.3906
Q24.9062 48.3906 20.3906 44.1406
Q15.875 39.8906 15.1875 32.1719
z
" id="BitstreamVeraSans-Roman-65"/>
     <path d="
M41.1094 46.2969
Q39.5938 47.1719 37.8125 47.5781
Q36.0312 48 33.8906 48
Q26.2656 48 22.1875 43.0469
Q18.1094 38.0938 18.1094 28.8125
L18.1094 0
L9.07812 0
L9.07812 54.6875
L18.1094 54.6875
L18.1094 46.1875
Q20.9531 51.1719 25.4844 53.5781
Q30.0312 56 36.5312 56
Q37.4531 56 38.5781 55.875
Q39.7031 55.7656 41.0625 55.5156
z
" id="BitstreamVeraSans-Roman-72"/>
     <path d="
M34.2812 27.4844
Q23.3906 27.4844 19.1875 25
Q14.9844 22.5156 14.9844 16.5
Q14.9844 11.7188 18.1406 8.90625
Q21.2969 6.10938 26.7031 6.10938
Q34.1875 6.10938 38.7031 11.4062
Q43.2188 16.7031 43.2188 25.4844
L43.2188 27.4844
z

M52.2031 31.2031
L52.2031 0
L43.2188 0
L43.2188 8.29688
Q40.1406 3.32812 35.5469 0.953125
Q30.9531 -1.42188 24.3125 -1.42188
Q15.9219 -1.42188 10.9531 3.29688
Q6 8.01562 6 15.9219
Q6 25.1406 12.1719 29.8281
Q18.3594 34.5156 30.6094 34.5156
L43.2188 34.5156
L43.2188 35.4062
Q43.2188 41.6094 39.1406 45
Q35.0625 48.3906 27.6875 48.3906
Q23 48.3906 18.5469 47.2656
Q14.1094 46.1406 10.0156 43.8906
L10.0156 52.2031
Q14.9375 54.1094 19.5781 55.0469
Q24.2188 56 28.6094 56
Q40.4844 56 46.3438 49.8438
Q52.2031 43.7031 52.2031 31.2031" id="BitstreamVeraSans-Roman-61"/>
    </defs>
    <g transform="translate(324.0 273.6)scale(0.1 -0.1)">
     <use xlink:href="#BitstreamVeraSans-Roman-42"/>
     <use x="68.603515625" xlink:href="#BitstreamVeraSans-Roman-65"/>
     <use x="130.126953125" xlink:href="#BitstreamVeraSans-Roman-61"/>
     <use x="191.40625" xlink:href="#BitstreamVeraSans-Roman-72"/>
    </g>
   </g>
   <g id="text_3">
    <!-- Bull -->
    <g transform="translate(108.0 11.52)scale(0.1 -0.1)">
     <use xlink:href="#BitstreamVeraSans-Roman-42"/>
     <use x="68.603515625" xlink:href="#BitstreamVeraSans-Roman-75"/>
     <use x="131.982421875" xlink:href="#BitstreamVeraSans-Roman-6c"/>
     <use x="159.765625" xlink:href="#BitstreamVeraSans-Roman-6c"/>
    </g>
   </g>
   <g id="text_4">
    <!-- Bear -->
    <g transform="translate(324.0 11.52)scale(0.1 -0.1)">
     <use xlink:href="#BitstreamVeraSans-Roman-42"/>
     <use x="68.603515625" xlink:href="#BitstreamVeraSans-Roman-65"/>
     <use x="130.126953125" xlink:href="#BitstreamVeraSans-Roman-61"/>
     <use x="191.40625" xlink:href="#BitstreamVeraSans-Roman-72"/>
    </g>
   </g>
   <g id="text_5">
    <!-- Steepener -->
    <defs>
     <path d="
M54.8906 33.0156
L54.8906 0
L45.9062 0
L45.9062 32.7188
Q45.9062 40.4844 42.875 44.3281
Q39.8438 48.1875 33.7969 48.1875
Q26.5156 48.1875 22.3125 43.5469
Q18.1094 38.9219 18.1094 30.9062
L18.1094 0
L9.07812 0
L9.07812 54.6875
L18.1094 54.6875
L18.1094 46.1875
Q21.3438 51.125 25.7031 53.5625
Q30.0781 56 35.7969 56
Q45.2188 56 50.0469 50.1719
Q54.8906 44.3438 54.8906 33.0156" id="BitstreamVeraSans-Roman-6e"/>
     <path d="
M18.3125 70.2188
L18.3125 54.6875
L36.8125 54.6875
L36.8125 47.7031
L18.3125 47.7031
L18.3125 18.0156
Q18.3125 11.3281 20.1406 9.42188
Q21.9688 7.51562 27.5938 7.51562
L36.8125 7.51562
L36.8125 0
L27.5938 0
Q17.1875 0 13.2344 3.875
Q9.28125 7.76562 9.28125 18.0156
L9.28125 47.7031
L2.6875 47.7031
L2.6875 54.6875
L9.28125 54.6875
L9.28125 70.2188
z
" id="BitstreamVeraSans-Roman-74"/>
     <path d="
M53.5156 70.5156
L53.5156 60.8906
Q47.9062 63.5781 42.9219 64.8906
Q37.9375 66.2188 33.2969 66.2188
Q25.25 66.2188 20.875 63.0938
Q16.5 59.9688 16.5 54.2031
Q16.5 49.3594 19.4062 46.8906
Q22.3125 44.4375 30.4219 42.9219
L36.375 41.7031
Q47.4062 39.5938 52.6562 34.2969
Q57.9062 29 57.9062 20.125
Q57.9062 9.51562 50.7969 4.04688
Q43.7031 -1.42188 29.9844 -1.42188
Q24.8125 -1.42188 18.9688 -0.25
Q13.1406 0.921875 6.89062 3.21875
L6.89062 13.375
Q12.8906 10.0156 18.6562 8.29688
Q24.4219 6.59375 29.9844 6.59375
Q38.4219 6.59375 43.0156 9.90625
Q47.6094 13.2344 47.6094 19.3906
Q47.6094 24.75 44.3125 27.7812
Q41.0156 30.8125 33.5 32.3281
L27.4844 33.5
Q16.4531 35.6875 11.5156 40.375
Q6.59375 45.0625 6.59375 53.4219
Q6.59375 63.0938 13.4062 68.6562
Q20.2188 74.2188 32.1719 74.2188
Q37.3125 74.2188 42.625 73.2812
Q47.9531 72.3594 53.5156 70.5156" id="BitstreamVeraSans-Roman-53"/>
     <path d="
M18.1094 8.20312
L18.1094 -20.7969
L9.07812 -20.7969
L9.07812 54.6875
L18.1094 54.6875
L18.1094 46.3906
Q20.9531 51.2656 25.2656 53.625
Q29.5938 56 35.5938 56
Q45.5625 56 51.7812 48.0938
Q58.0156 40.1875 58.0156 27.2969
Q58.0156 14.4062 51.7812 6.48438
Q45.5625 -1.42188 35.5938 -1.42188
Q29.5938 -1.42188 25.2656 0.953125
Q20.9531 3.32812 18.1094 8.20312
M48.6875 27.2969
Q48.6875 37.2031 44.6094 42.8438
Q40.5312 48.4844 33.4062 48.4844
Q26.2656 48.4844 22.1875 42.8438
Q18.1094 37.2031 18.1094 27.2969
Q18.1094 17.3906 22.1875 11.75
Q26.2656 6.10938 33.4062 6.10938
Q40.5312 6.10938 44.6094 11.75
Q48.6875 17.3906 48.6875 27.2969" id="BitstreamVeraSans-Roman-70"/>
    </defs>
    <g transform="translate(18.3984375 115.4203125)rotate(-90.0)scale(0.1 -0.1)">
     <use xlink:href="#BitstreamVeraSans-Roman-53"/>
     <use x="63.4765625" xlink:href="#BitstreamVeraSans-Roman-74"/>
     <use x="102.685546875" xlink:href="#BitstreamVeraSans-Roman-65"/>
     <use x="164.208984375" xlink:href="#BitstreamVeraSans-Roman-65"/>
     <use x="225.732421875" xlink:href="#BitstreamVeraSans-Roman-70"/>
     <use x="289.208984375" xlink:href="#BitstreamVeraSans-Roman-65"/>
     <use x="350.732421875" xlink:href="#BitstreamVeraSans-Roman-6e"/>
     <use x="414.111328125" xlink:href="#BitstreamVeraSans-Roman-65"/>
     <use x="475.634765625" xlink:href="#BitstreamVeraSans-Roman-72"/>
    </g>
   </g>
   <g id="text_6">
    <!-- Flattener -->
    <defs>
     <path d="
M9.8125 72.9062
L51.7031 72.9062
L51.7031 64.5938
L19.6719 64.5938
L19.6719 43.1094
L48.5781 43.1094
L48.5781 34.8125
L19.6719 34.8125
L19.6719 0
L9.8125 0
z
" id="BitstreamVeraSans-Roman-46"/>
    </defs>
    <g transform="translate(18.3984375 252.6734375)rotate(-90.0)scale(0.1 -0.1)">
     <use xlink:href="#BitstreamVeraSans-Roman-46"/>
     <use x="57.51953125" xlink:href="#BitstreamVeraSans-Roman-6c"/>
     <use x="85.302734375" xlink:href="#BitstreamVeraSans-Roman-61"/>
     <use x="146.58203125" xlink:href="#BitstreamVeraSans-Roman-74"/>
     <use x="185.791015625" xlink:href="#BitstreamVeraSans-Roman-74"/>
     <use x="225.0" xlink:href="#BitstreamVeraSans-Roman-65"/>
     <use x="286.5234375" xlink:href="#BitstreamVeraSans-Roman-6e"/>
     <use x="349.90234375" xlink:href="#BitstreamVeraSans-Roman-65"/>
     <use x="411.42578125" xlink:href="#BitstreamVeraSans-Roman-72"/>
    </g>
   </g>
   <g id="text_7">
    <!-- Steepener -->
    <g transform="translate(412.4796875 64.4015625)rotate(-270.0)scale(0.1 -0.1)">
     <use xlink:href="#BitstreamVeraSans-Roman-53"/>
     <use x="63.4765625" xlink:href="#BitstreamVeraSans-Roman-74"/>
     <use x="102.685546875" xlink:href="#BitstreamVeraSans-Roman-65"/>
     <use x="164.208984375" xlink:href="#BitstreamVeraSans-Roman-65"/>
     <use x="225.732421875" xlink:href="#BitstreamVeraSans-Roman-70"/>
     <use x="289.208984375" xlink:href="#BitstreamVeraSans-Roman-65"/>
     <use x="350.732421875" xlink:href="#BitstreamVeraSans-Roman-6e"/>
     <use x="414.111328125" xlink:href="#BitstreamVeraSans-Roman-65"/>
     <use x="475.634765625" xlink:href="#BitstreamVeraSans-Roman-72"/>
    </g>
   </g>
   <g id="text_8">
    <!-- Flattener -->
    <g transform="translate(412.4796875 208.4015625)rotate(-270.0)scale(0.1 -0.1)">
     <use xlink:href="#BitstreamVeraSans-Roman-46"/>
     <use x="57.51953125" xlink:href="#BitstreamVeraSans-Roman-6c"/>
     <use x="85.302734375" xlink:href="#BitstreamVeraSans-Roman-61"/>
     <use x="146.58203125" xlink:href="#BitstreamVeraSans-Roman-74"/>
     <use x="185.791015625" xlink:href="#BitstreamVeraSans-Roman-74"/>
     <use x="225.0" xlink:href="#BitstreamVeraSans-Roman-65"/>
     <use x="286.5234375" xlink:href="#BitstreamVeraSans-Roman-6e"/>
     <use x="349.90234375" xlink:href="#BitstreamVeraSans-Roman-65"/>
     <use x="411.42578125" xlink:href="#BitstreamVeraSans-Roman-72"/>
    </g>
   </g>
  </g>
  <g id="axes_2">
   <g id="patch_2">
    <path d="
M34.56 259.2
L401.76 259.2
L401.76 14.4
L34.56 14.4
z
" style="fill:#ffffff;"/>
   </g>
   <g id="PathCollection_1">
    <path clip-path="url(#p6a2b6ff79c)" d="
M340.903 56.9762
C341.227 56.9762 341.538 56.8474 341.767 56.6182
C341.996 56.389 342.125 56.0781 342.125 55.754
C342.125 55.4298 341.996 55.1189 341.767 54.8897
C341.538 54.6605 341.227 54.5317 340.903 54.5317
C340.578 54.5317 340.268 54.6605 340.038 54.8897
C339.809 55.1189 339.68 55.4298 339.68 55.754
C339.68 56.0781 339.809 56.389 340.038 56.6182
C340.268 56.8474 340.578 56.9762 340.903 56.9762
z
" style="fill:#ff0000;fill-opacity:0.75;stroke:#000000;stroke-opacity:0.75;"/>
    <path clip-path="url(#p6a2b6ff79c)" d="
M307.727 100.492
C308.074 100.492 308.406 100.354 308.652 100.109
C308.897 99.8637 309.034 99.5313 309.034 99.1847
C309.034 98.8381 308.897 98.5057 308.652 98.2606
C308.406 98.0155 308.074 97.8778 307.727 97.8778
C307.381 97.8778 307.048 98.0155 306.803 98.2606
C306.558 98.5057 306.421 98.8381 306.421 99.1847
C306.421 99.5313 306.558 99.8637 306.803 100.109
C307.048 100.354 307.381 100.492 307.727 100.492
z
" style="fill:#008000;fill-opacity:0.75;stroke:#000000;stroke-opacity:0.75;"/>
    <path clip-path="url(#p6a2b6ff79c)" d="
M342.758 67.7785
C343.431 67.7785 344.076 67.5112 344.551 67.0355
C345.027 66.5599 345.294 65.9146 345.294 65.2419
C345.294 64.5692 345.027 63.924 344.551 63.4483
C344.076 62.9727 343.431 62.7054 342.758 62.7054
C342.085 62.7054 341.44 62.9727 340.964 63.4483
C340.489 63.924 340.221 64.5692 340.221 65.2419
C340.221 65.9146 340.489 66.5599 340.964 67.0355
C341.44 67.5112 342.085 67.7785 342.758 67.7785
z
" style="fill:#ff0000;fill-opacity:0.75;stroke:#000000;stroke-opacity:0.75;"/>
    <path clip-path="url(#p6a2b6ff79c)" d="
M268.782 121.373
C269.662 121.373 270.505 121.024 271.127 120.402
C271.749 119.78 272.098 118.937 272.098 118.057
C272.098 117.178 271.749 116.335 271.127 115.713
C270.505 115.091 269.662 114.742 268.782 114.742
C267.903 114.742 267.06 115.091 266.438 115.713
C265.816 116.335 265.467 117.178 265.467 118.057
C265.467 118.937 265.816 119.78 266.438 120.402
C267.06 121.024 267.903 121.373 268.782 121.373
z
" style="fill:#008000;fill-opacity:0.75;stroke:#000000;stroke-opacity:0.75;"/>
    <path clip-path="url(#p6a2b6ff79c)" d="
M41.4062 165.156
C41.4277 165.156 41.4483 165.147 41.4635 165.132
C41.4787 165.117 41.4872 165.096 41.4872 165.075
C41.4872 165.053 41.4787 165.033 41.4635 165.018
C41.4483 165.002 41.4277 164.994 41.4062 164.994
C41.3847 164.994 41.3641 165.002 41.3489 165.018
C41.3337 165.033 41.3252 165.053 41.3252 165.075
C41.3252 165.096 41.3337 165.117 41.3489 165.132
C41.3641 165.147 41.3847 165.156 41.4062 165.156
z
" style="fill:#008000;fill-opacity:0.75;stroke:#000000;stroke-opacity:0.75;"/>
    <path clip-path="url(#p6a2b6ff79c)" d="
M41.448 165.239
C41.4746 165.239 41.5002 165.228 41.519 165.21
C41.5378 165.191 41.5484 165.165 41.5484 165.139
C41.5484 165.112 41.5378 165.086 41.519 165.068
C41.5002 165.049 41.4746 165.038 41.448 165.038
C41.4214 165.038 41.3958 165.049 41.377 165.068
C41.3582 165.086 41.3476 165.112 41.3476 165.139
C41.3476 165.165 41.3582 165.191 41.377 165.21
C41.3958 165.228 41.4214 165.239 41.448 165.239
z
" style="fill:#008000;fill-opacity:0.75;stroke:#000000;stroke-opacity:0.75;"/>
    <path clip-path="url(#p6a2b6ff79c)" d="
M41.4898 165.319
C41.521 165.319 41.5509 165.307 41.573 165.285
C41.5951 165.263 41.6075 165.233 41.6075 165.201
C41.6075 165.17 41.5951 165.14 41.573 165.118
C41.5509 165.096 41.521 165.084 41.4898 165.084
C41.4585 165.084 41.4286 165.096 41.4065 165.118
C41.3844 165.14 41.372 165.17 41.372 165.201
C41.372 165.233 41.3844 165.263 41.4065 165.285
C41.4286 165.307 41.4585 165.319 41.4898 165.319
z
" style="fill:#008000;fill-opacity:0.75;stroke:#000000;stroke-opacity:0.75;"/>
    <path clip-path="url(#p6a2b6ff79c)" d="
M41.5758 165.477
C41.6147 165.477 41.652 165.462 41.6795 165.434
C41.707 165.407 41.7225 165.369 41.7225 165.331
C41.7225 165.292 41.707 165.254 41.6795 165.227
C41.652 165.199 41.6147 165.184 41.5758 165.184
C41.537 165.184 41.4997 165.199 41.4722 165.227
C41.4447 165.254 41.4292 165.292 41.4292 165.331
C41.4292 165.369 41.4447 165.407 41.4722 165.434
C41.4997 165.462 41.537 165.477 41.5758 165.477
z
" style="fill:#008000;fill-opacity:0.75;stroke:#000000;stroke-opacity:0.75;"/>
    <path clip-path="url(#p6a2b6ff79c)" d="
M210.513 112.137
C211.665 112.137 212.77 111.679 213.585 110.864
C214.4 110.049 214.858 108.944 214.858 107.792
C214.858 106.639 214.4 105.534 213.585 104.719
C212.77 103.905 211.665 103.447 210.513 103.447
C209.361 103.447 208.256 103.905 207.441 104.719
C206.626 105.534 206.168 106.639 206.168 107.792
C206.168 108.944 206.626 110.049 207.441 110.864
C208.256 111.679 209.361 112.137 210.513 112.137
z
" style="fill:#ff0000;fill-opacity:0.75;stroke:#000000;stroke-opacity:0.75;"/>
    <path clip-path="url(#p6a2b6ff79c)" d="
M123.102 106.704
C124.297 106.704 125.444 106.229 126.289 105.384
C127.134 104.539 127.609 103.392 127.609 102.197
C127.609 101.002 127.134 99.8557 126.289 99.0106
C125.444 98.1655 124.297 97.6906 123.102 97.6906
C121.907 97.6906 120.761 98.1655 119.916 99.0106
C119.071 99.8557 118.596 101.002 118.596 102.197
C118.596 103.392 119.071 104.539 119.916 105.384
C120.761 106.229 121.907 106.704 123.102 106.704
z
" style="fill:#ff0000;fill-opacity:0.75;stroke:#000000;stroke-opacity:0.75;"/>
    <path clip-path="url(#p6a2b6ff79c)" d="
M155.576 124.1
C156.805 124.1 157.984 123.612 158.853 122.743
C159.722 121.874 160.21 120.695 160.21 119.466
C160.21 118.237 159.722 117.058 158.853 116.189
C157.984 115.32 156.805 114.831 155.576 114.831
C154.347 114.831 153.168 115.32 152.299 116.189
C151.43 117.058 150.942 118.237 150.942 119.466
C150.942 120.695 151.43 121.874 152.299 122.743
C153.168 123.612 154.347 124.1 155.576 124.1
z
" style="fill:#ff0000;fill-opacity:0.75;stroke:#000000;stroke-opacity:0.75;"/>
    <path clip-path="url(#p6a2b6ff79c)" d="
M188.109 137.515
C189.687 137.515 191.201 136.887 192.317 135.771
C193.433 134.655 194.061 133.142 194.061 131.563
C194.061 129.985 193.433 128.471 192.317 127.355
C191.201 126.239 189.687 125.612 188.109 125.612
C186.531 125.612 185.017 126.239 183.901 127.355
C182.785 128.471 182.158 129.985 182.158 131.563
C182.158 133.142 182.785 134.655 183.901 135.771
C185.017 136.887 186.531 137.515 188.109 137.515
z
" style="fill:#008000;fill-opacity:0.75;stroke:#000000;stroke-opacity:0.75;"/>
    <path clip-path="url(#p6a2b6ff79c)" d="
M279.9 180.721
C280.303 180.721 280.689 180.561 280.974 180.276
C281.259 179.992 281.419 179.606 281.419 179.203
C281.419 178.8 281.259 178.414 280.974 178.129
C280.689 177.845 280.303 177.685 279.9 177.685
C279.498 177.685 279.112 177.845 278.827 178.129
C278.542 178.414 278.382 178.8 278.382 179.203
C278.382 179.606 278.542 179.992 278.827 180.276
C279.112 180.561 279.498 180.721 279.9 180.721
z
" style="fill:#008000;fill-opacity:0.75;stroke:#000000;stroke-opacity:0.75;"/>
    <path clip-path="url(#p6a2b6ff79c)" d="
M334.458 157.468
C334.966 157.468 335.454 157.266 335.813 156.907
C336.173 156.547 336.375 156.06 336.375 155.552
C336.375 155.043 336.173 154.556 335.813 154.196
C335.454 153.837 334.966 153.635 334.458 153.635
C333.95 153.635 333.462 153.837 333.103 154.196
C332.743 154.556 332.541 155.043 332.541 155.552
C332.541 156.06 332.743 156.547 333.103 156.907
C333.462 157.266 333.95 157.468 334.458 157.468
z
" style="fill:#008000;fill-opacity:0.75;stroke:#000000;stroke-opacity:0.75;"/>
    <path clip-path="url(#p6a2b6ff79c)" d="
M321.986 175.863
C322.632 175.863 323.252 175.606 323.709 175.149
C324.166 174.692 324.423 174.072 324.423 173.426
C324.423 172.779 324.166 172.159 323.709 171.702
C323.252 171.245 322.632 170.988 321.986 170.988
C321.339 170.988 320.719 171.245 320.262 171.702
C319.805 172.159 319.548 172.779 319.548 173.426
C319.548 174.072 319.805 174.692 320.262 175.149
C320.719 175.606 321.339 175.863 321.986 175.863
z
" style="fill:#008000;fill-opacity:0.75;stroke:#000000;stroke-opacity:0.75;"/>
    <path clip-path="url(#p6a2b6ff79c)" d="
M244.77 161.594
C245.644 161.594 246.482 161.247 247.1 160.629
C247.718 160.011 248.066 159.172 248.066 158.298
C248.066 157.424 247.718 156.586 247.1 155.968
C246.482 155.349 245.644 155.002 244.77 155.002
C243.895 155.002 243.057 155.349 242.439 155.968
C241.821 156.586 241.474 157.424 241.474 158.298
C241.474 159.172 241.821 160.011 242.439 160.629
C243.057 161.247 243.895 161.594 244.77 161.594
z
" style="fill:#008000;fill-opacity:0.75;stroke:#000000;stroke-opacity:0.75;"/>
   </g>
   <g id="patch_3">
    <path d="
M34.56 14.4
L401.76 14.4" style="fill:none;"/>
   </g>
   <g id="patch_4">
    <path d="
M401.76 259.2
L401.76 14.4" style="fill:none;"/>
   </g>
   <g id="patch_5">
    <path d="
M34.56 136.8
L401.76 136.8" style="fill:none;stroke:#000000;stroke-linecap:square;stroke-linejoin:miter;"/>
   </g>
   <g id="patch_6">
    <path d="
M218.16 259.2
L218.16 14.4" style="fill:none;stroke:#000000;stroke-linecap:square;stroke-linejoin:miter;"/>
   </g>
   <g id="matplotlib.axis_1">
    <g id="xtick_1">
     <g id="line2d_1">
      <defs>
       <path d="
M0 0
L0 -4" id="m93b0483c22" style="stroke:#000000;stroke-width:0.5;"/>
      </defs>
      <g>
       <use style="stroke:#000000;stroke-width:0.5;" x="34.56" xlink:href="#m93b0483c22" y="136.8"/>
      </g>
     </g>
     <g id="text_9">
      <!-- −1.0 -->
      <defs>
       <path d="
M10.5938 35.5
L73.1875 35.5
L73.1875 27.2031
L10.5938 27.2031
z
" id="BitstreamVeraSans-Roman-2212"/>
       <path d="
M31.7812 66.4062
Q24.1719 66.4062 20.3281 58.9062
Q16.5 51.4219 16.5 36.375
Q16.5 21.3906 20.3281 13.8906
Q24.1719 6.39062 31.7812 6.39062
Q39.4531 6.39062 43.2812 13.8906
Q47.125 21.3906 47.125 36.375
Q47.125 51.4219 43.2812 58.9062
Q39.4531 66.4062 31.7812 66.4062
M31.7812 74.2188
Q44.0469 74.2188 50.5156 64.5156
Q56.9844 54.8281 56.9844 36.375
Q56.9844 17.9688 50.5156 8.26562
Q44.0469 -1.42188 31.7812 -1.42188
Q19.5312 -1.42188 13.0625 8.26562
Q6.59375 17.9688 6.59375 36.375
Q6.59375 54.8281 13.0625 64.5156
Q19.5312 74.2188 31.7812 74.2188" id="BitstreamVeraSans-Roman-30"/>
       <path d="
M12.4062 8.29688
L28.5156 8.29688
L28.5156 63.9219
L10.9844 60.4062
L10.9844 69.3906
L28.4219 72.9062
L38.2812 72.9062
L38.2812 8.29688
L54.3906 8.29688
L54.3906 0
L12.4062 0
z
" id="BitstreamVeraSans-Roman-31"/>
       <path d="
M10.6875 12.4062
L21 12.4062
L21 0
L10.6875 0
z
" id="BitstreamVeraSans-Roman-2e"/>
      </defs>
      <g transform="translate(23.2803125 148.3984375)scale(0.1 -0.1)">
       <use xlink:href="#BitstreamVeraSans-Roman-2212"/>
       <use x="83.7890625" xlink:href="#BitstreamVeraSans-Roman-31"/>
       <use x="147.412109375" xlink:href="#BitstreamVeraSans-Roman-2e"/>
       <use x="179.19921875" xlink:href="#BitstreamVeraSans-Roman-30"/>
      </g>
     </g>
    </g>
    <g id="xtick_2">
     <g id="line2d_2">
      <g>
       <use style="stroke:#000000;stroke-width:0.5;" x="126.36" xlink:href="#m93b0483c22" y="136.8"/>
      </g>
     </g>
     <g id="text_10">
      <!-- −0.5 -->
      <defs>
       <path d="
M10.7969 72.9062
L49.5156 72.9062
L49.5156 64.5938
L19.8281 64.5938
L19.8281 46.7344
Q21.9688 47.4688 24.1094 47.8281
Q26.2656 48.1875 28.4219 48.1875
Q40.625 48.1875 47.75 41.5
Q54.8906 34.8125 54.8906 23.3906
Q54.8906 11.625 47.5625 5.09375
Q40.2344 -1.42188 26.9062 -1.42188
Q22.3125 -1.42188 17.5469 -0.640625
Q12.7969 0.140625 7.71875 1.70312
L7.71875 11.625
Q12.1094 9.23438 16.7969 8.0625
Q21.4844 6.89062 26.7031 6.89062
Q35.1562 6.89062 40.0781 11.3281
Q45.0156 15.7656 45.0156 23.3906
Q45.0156 31 40.0781 35.4375
Q35.1562 39.8906 26.7031 39.8906
Q22.75 39.8906 18.8125 39.0156
Q14.8906 38.1406 10.7969 36.2812
z
" id="BitstreamVeraSans-Roman-35"/>
      </defs>
      <g transform="translate(115.185 148.3984375)scale(0.1 -0.1)">
       <use xlink:href="#BitstreamVeraSans-Roman-2212"/>
       <use x="83.7890625" xlink:href="#BitstreamVeraSans-Roman-30"/>
       <use x="147.412109375" xlink:href="#BitstreamVeraSans-Roman-2e"/>
       <use x="179.19921875" xlink:href="#BitstreamVeraSans-Roman-35"/>
      </g>
     </g>
    </g>
    <g id="xtick_3">
     <g id="line2d_3">
      <g>
       <use style="stroke:#000000;stroke-width:0.5;" x="218.16" xlink:href="#m93b0483c22" y="136.8"/>
      </g>
     </g>
     <g id="text_11">
      <!-- 0.0 -->
      <g transform="translate(210.87015625 148.3984375)scale(0.1 -0.1)">
       <use xlink:href="#BitstreamVeraSans-Roman-30"/>
       <use x="63.623046875" xlink:href="#BitstreamVeraSans-Roman-2e"/>
       <use x="95.41015625" xlink:href="#BitstreamVeraSans-Roman-30"/>
      </g>
     </g>
    </g>
    <g id="xtick_4">
     <g id="line2d_4">
      <g>
       <use style="stroke:#000000;stroke-width:0.5;" x="309.96" xlink:href="#m93b0483c22" y="136.8"/>
      </g>
     </g>
     <g id="text_12">
      <!-- 0.5 -->
      <g transform="translate(302.77484375 148.3984375)scale(0.1 -0.1)">
       <use xlink:href="#BitstreamVeraSans-Roman-30"/>
       <use x="63.623046875" xlink:href="#BitstreamVeraSans-Roman-2e"/>
       <use x="95.41015625" xlink:href="#BitstreamVeraSans-Roman-35"/>
      </g>
     </g>
    </g>
    <g id="xtick_5">
     <g id="line2d_5">
      <g>
       <use style="stroke:#000000;stroke-width:0.5;" x="401.76" xlink:href="#m93b0483c22" y="136.8"/>
      </g>
     </g>
     <g id="text_13">
      <!-- 1.0 -->
      <g transform="translate(394.6896875 148.3984375)scale(0.1 -0.1)">
       <use xlink:href="#BitstreamVeraSans-Roman-31"/>
       <use x="63.623046875" xlink:href="#BitstreamVeraSans-Roman-2e"/>
       <use x="95.41015625" xlink:href="#BitstreamVeraSans-Roman-30"/>
      </g>
     </g>
    </g>
   </g>
   <g id="matplotlib.axis_2">
    <g id="ytick_1">
     <g id="line2d_6">
      <defs>
       <path d="
M0 0
L4 0" id="m728421d6d4" style="stroke:#000000;stroke-width:0.5;"/>
      </defs>
      <g>
       <use style="stroke:#000000;stroke-width:0.5;" x="218.16" xlink:href="#m728421d6d4" y="259.2"/>
      </g>
     </g>
     <g id="text_14">
      <!-- −1.0 -->
      <g transform="translate(191.600625 261.959375)scale(0.1 -0.1)">
       <use xlink:href="#BitstreamVeraSans-Roman-2212"/>
       <use x="83.7890625" xlink:href="#BitstreamVeraSans-Roman-31"/>
       <use x="147.412109375" xlink:href="#BitstreamVeraSans-Roman-2e"/>
       <use x="179.19921875" xlink:href="#BitstreamVeraSans-Roman-30"/>
      </g>
     </g>
    </g>
    <g id="ytick_2">
     <g id="line2d_7">
      <g>
       <use style="stroke:#000000;stroke-width:0.5;" x="218.16" xlink:href="#m728421d6d4" y="198.0"/>
      </g>
     </g>
     <g id="text_15">
      <!-- −0.5 -->
      <g transform="translate(191.81 200.759375)scale(0.1 -0.1)">
       <use xlink:href="#BitstreamVeraSans-Roman-2212"/>
       <use x="83.7890625" xlink:href="#BitstreamVeraSans-Roman-30"/>
       <use x="147.412109375" xlink:href="#BitstreamVeraSans-Roman-2e"/>
       <use x="179.19921875" xlink:href="#BitstreamVeraSans-Roman-35"/>
      </g>
     </g>
    </g>
    <g id="ytick_3">
     <g id="line2d_8">
      <g>
       <use style="stroke:#000000;stroke-width:0.5;" x="218.16" xlink:href="#m728421d6d4" y="136.8"/>
      </g>
     </g>
     <g id="text_16">
      <!-- 0.0 -->
      <g transform="translate(199.5803125 139.559375)scale(0.1 -0.1)">
       <use xlink:href="#BitstreamVeraSans-Roman-30"/>
       <use x="63.623046875" xlink:href="#BitstreamVeraSans-Roman-2e"/>
       <use x="95.41015625" xlink:href="#BitstreamVeraSans-Roman-30"/>
      </g>
     </g>
    </g>
    <g id="ytick_4">
     <g id="line2d_9">
      <g>
       <use style="stroke:#000000;stroke-width:0.5;" x="218.16" xlink:href="#m728421d6d4" y="75.6"/>
      </g>
     </g>
     <g id="text_17">
      <!-- 0.5 -->
      <g transform="translate(199.7896875 78.359375)scale(0.1 -0.1)">
       <use xlink:href="#BitstreamVeraSans-Roman-30"/>
       <use x="63.623046875" xlink:href="#BitstreamVeraSans-Roman-2e"/>
       <use x="95.41015625" xlink:href="#BitstreamVeraSans-Roman-35"/>
      </g>
     </g>
    </g>
    <g id="ytick_5">
     <g id="line2d_10">
      <g>
       <use style="stroke:#000000;stroke-width:0.5;" x="218.16" xlink:href="#m728421d6d4" y="14.4"/>
      </g>
     </g>
     <g id="text_18">
      <!-- 1.0 -->
      <g transform="translate(200.019375 17.159375)scale(0.1 -0.1)">
       <use xlink:href="#BitstreamVeraSans-Roman-31"/>
       <use x="63.623046875" xlink:href="#BitstreamVeraSans-Roman-2e"/>
       <use x="95.41015625" xlink:href="#BitstreamVeraSans-Roman-30"/>
      </g>
     </g>
    </g>
   </g>
  </g>
 </g>
 <defs>
  <clipPath id="p6a2b6ff79c">
   <rect height="244.8" width="367.2" x="34.56" y="14.4"/>
  </clipPath>
 </defs>
</svg>
