<?xml version="1.0" encoding="utf-8" standalone="no"?>
<!DOCTYPE svg PUBLIC "-//W3C//DTD SVG 1.1//EN"
  "http://www.w3.org/Graphics/SVG/1.1/DTD/svg11.dtd">
<!-- Created with matplotlib (http://matplotlib.org/) -->
<svg height="288pt" version="1.1" viewBox="0 0 432 288" width="432pt" xmlns="http://www.w3.org/2000/svg" xmlns:xlink="http://www.w3.org/1999/xlink">
 <defs>
  <style type="text/css">
*{stroke-linecap:butt;stroke-linejoin:round;}
  </style>
 </defs>
 <g id="figure_1">
  <g id="patch_1">
   <path d="
M0 288
L432 288
L432 0
L0 0
z
" style="fill:#ffffff;"/>
  </g>
  <g id="axes_1">
   <g id="text_1">
    <!-- Bull -->
    <defs>
     <path d="
M8.5 21.5781
L8.5 54.6875
L17.4844 54.6875
L17.4844 21.9219
Q17.4844 14.1562 20.5 10.2656
Q23.5312 6.39062 29.5938 6.39062
Q36.8594 6.39062 41.0781 11.0312
Q45.3125 15.6719 45.3125 23.6875
L45.3125 54.6875
L54.2969 54.6875
L54.2969 0
L45.3125 0
L45.3125 8.40625
Q42.0469 3.42188 37.7188 1
Q33.4062 -1.42188 27.6875 -1.42188
Q18.2656 -1.42188 13.375 4.4375
Q8.5 10.2969 8.5 21.5781" id="BitstreamVeraSans-Roman-75"/>
     <path d="
M19.6719 34.8125
L19.6719 8.10938
L35.5 8.10938
Q43.4531 8.10938 47.2812 11.4062
Q51.125 14.7031 51.125 21.4844
Q51.125 28.3281 47.2812 31.5625
Q43.4531 34.8125 35.5 34.8125
z

M19.6719 64.7969
L19.6719 42.8281
L34.2812 42.8281
Q41.5 42.8281 45.0312 45.5312
Q48.5781 48.25 48.5781 53.8125
Q48.5781 59.3281 45.0312 62.0625
Q41.5 64.7969 34.2812 64.7969
z

M9.8125 72.9062
L35.0156 72.9062
Q46.2969 72.9062 52.3906 68.2188
Q58.5 63.5312 58.5 54.8906
Q58.5 48.1875 55.375 44.2344
Q52.25 40.2812 46.1875 39.3125
Q53.4688 37.75 57.5 32.7812
Q61.5312 27.8281 61.5312 20.4062
Q61.5312 10.6406 54.8906 5.3125
Q48.25 0 35.9844 0
L9.8125 0
z
" id="BitstreamVeraSans-Roman-42"/>
     <path d="
M9.42188 75.9844
L18.4062 75.9844
L18.4062 0
L9.42188 0
z
" id="BitstreamVeraSans-Roman-6c"/>
    </defs>
    <g transform="translate(108.0 273.6)scale(0.1 -0.1)">
     <use xlink:href="#BitstreamVeraSans-Roman-42"/>
     <use x="68.603515625" xlink:href="#BitstreamVeraSans-Roman-75"/>
     <use x="131.982421875" xlink:href="#BitstreamVeraSans-Roman-6c"/>
     <use x="159.765625" xlink:href="#BitstreamVeraSans-Roman-6c"/>
    </g>
   </g>
   <g id="text_2">
    <!-- Bear -->
    <defs>
     <path d="
M56.2031 29.5938
L56.2031 25.2031
L14.8906 25.2031
Q15.4844 15.9219 20.4844 11.0625
Q25.4844 6.20312 34.4219 6.20312
Q39.5938 6.20312 44.4531 7.46875
Q49.3125 8.73438 54.1094 11.2812
L54.1094 2.78125
Q49.2656 0.734375 44.1875 -0.34375
Q39.1094 -1.42188 33.8906 -1.42188
Q20.7969 -1.42188 13.1562 6.1875
Q5.51562 13.8125 5.51562 26.8125
Q5.51562 40.2344 12.7656 48.1094
Q20.0156 56 32.3281 56
Q43.3594 56 49.7812 48.8906
Q56.2031 41.7969 56.2031 29.5938
M47.2188 32.2344
Q47.125 39.5938 43.0938 43.9844
Q39.0625 48.3906 32.4219 48.3906
Q24.9062 48.3906 20.3906 44.1406
Q15.875 39.8906 15.1875 32.1719
z
" id="BitstreamVeraSans-Roman-65"/>
     <path d="
M41.1094 46.2969
Q39.5938 47.1719 37.8125 47.5781
Q36.0312 48 33.8906 48
Q26.2656 48 22.1875 43.0469
Q18.1094 38.0938 18.1094 28.8125
L18.1094 0
L9.07812 0
L9.07812 54.6875
L18.1094 54.6875
L18.1094 46.1875
Q20.9531 51.1719 25.4844 53.5781
Q30.0312 56 36.5312 56
Q37.4531 56 38.5781 55.875
Q39.7031 55.7656 41.0625 55.5156
z
" id="BitstreamVeraSans-Roman-72"/>
     <path d="
M34.2812 27.4844
Q23.3906 27.4844 19.1875 25
Q14.9844 22.5156 14.9844 16.5
Q14.9844 11.7188 18.1406 8.90625
Q21.2969 6.10938 26.7031 6.10938
Q34.1875 6.10938 38.7031 11.4062
Q43.2188 16.7031 43.2188 25.4844
L43.2188 27.4844
z

M52.2031 31.2031
L52.2031 0
L43.2188 0
L43.2188 8.29688
Q40.1406 3.32812 35.5469 0.953125
Q30.9531 -1.42188 24.3125 -1.42188
Q15.9219 -1.42188 10.9531 3.29688
Q6 8.01562 6 15.9219
Q6 25.1406 12.1719 29.8281
Q18.3594 34.5156 30.6094 34.5156
L43.2188 34.5156
L43.2188 35.4062
Q43.2188 41.6094 39.1406 45
Q35.0625 48.3906 27.6875 48.3906
Q23 48.3906 18.5469 47.2656
Q14.1094 46.1406 10.0156 43.8906
L10.0156 52.2031
Q14.9375 54.1094 19.5781 55.0469
Q24.2188 56 28.6094 56
Q40.4844 56 46.3438 49.8438
Q52.2031 43.7031 52.2031 31.2031" id="BitstreamVeraSans-Roman-61"/>
    </defs>
    <g transform="translate(324.0 273.6)scale(0.1 -0.1)">
     <use xlink:href="#BitstreamVeraSans-Roman-42"/>
     <use x="68.603515625" xlink:href="#BitstreamVeraSans-Roman-65"/>
     <use x="130.126953125" xlink:href="#BitstreamVeraSans-Roman-61"/>
     <use x="191.40625" xlink:href="#BitstreamVeraSans-Roman-72"/>
    </g>
   </g>
   <g id="text_3">
    <!-- Bull -->
    <g transform="translate(108.0 11.52)scale(0.1 -0.1)">
     <use xlink:href="#BitstreamVeraSans-Roman-42"/>
     <use x="68.603515625" xlink:href="#BitstreamVeraSans-Roman-75"/>
     <use x="131.982421875" xlink:href="#BitstreamVeraSans-Roman-6c"/>
     <use x="159.765625" xlink:href="#BitstreamVeraSans-Roman-6c"/>
    </g>
   </g>
   <g id="text_4">
    <!-- Bear -->
    <g transform="translate(324.0 11.52)scale(0.1 -0.1)">
     <use xlink:href="#BitstreamVeraSans-Roman-42"/>
     <use x="68.603515625" xlink:href="#BitstreamVeraSans-Roman-65"/>
     <use x="130.126953125" xlink:href="#BitstreamVeraSans-Roman-61"/>
     <use x="191.40625" xlink:href="#BitstreamVeraSans-Roman-72"/>
    </g>
   </g>
   <g id="text_5">
    <!-- Steepener -->
    <defs>
     <path d="
M54.8906 33.0156
L54.8906 0
L45.9062 0
L45.9062 32.7188
Q45.9062 40.4844 42.875 44.3281
Q39.8438 48.1875 33.7969 48.1875
Q26.5156 48.1875 22.3125 43.5469
Q18.1094 38.9219 18.1094 30.9062
L18.1094 0
L9.07812 0
L9.07812 54.6875
L18.1094 54.6875
L18.1094 46.1875
Q21.3438 51.125 25.7031 53.5625
Q30.0781 56 35.7969 56
Q45.2188 56 50.0469 50.1719
Q54.8906 44.3438 54.8906 33.0156" id="BitstreamVeraSans-Roman-6e"/>
     <path d="
M18.3125 70.2188
L18.3125 54.6875
L36.8125 54.6875
L36.8125 47.7031
L18.3125 47.7031
L18.3125 18.0156
Q18.3125 11.3281 20.1406 9.42188
Q21.9688 7.51562 27.5938 7.51562
L36.8125 7.51562
L36.8125 0
L27.5938 0
Q17.1875 0 13.2344 3.875
Q9.28125 7.76562 9.28125 18.0156
L9.28125 47.7031
L2.6875 47.7031
L2.6875 54.6875
L9.28125 54.6875
L9.28125 70.2188
z
" id="BitstreamVeraSans-Roman-74"/>
     <path d="
M53.5156 70.5156
L53.5156 60.8906
Q47.9062 63.5781 42.9219 64.8906
Q37.9375 66.2188 33.2969 66.2188
Q25.25 66.2188 20.875 63.0938
Q16.5 59.9688 16.5 54.2031
Q16.5 49.3594 19.4062 46.8906
Q22.3125 44.4375 30.4219 42.9219
L36.375 41.7031
Q47.4062 39.5938 52.6562 34.2969
Q57.9062 29 57.9062 20.125
Q57.9062 9.51562 50.7969 4.04688
Q43.7031 -1.42188 29.9844 -1.42188
Q24.8125 -1.42188 18.9688 -0.25
Q13.1406 0.921875 6.89062 3.21875
L6.89062 13.375
Q12.8906 10.0156 18.6562 8.29688
Q24.4219 6.59375 29.9844 6.59375
Q38.4219 6.59375 43.0156 9.90625
Q47.6094 13.2344 47.6094 19.3906
Q47.6094 24.75 44.3125 27.7812
Q41.0156 30.8125 33.5 32.3281
L27.4844 33.5
Q16.4531 35.6875 11.5156 40.375
Q6.59375 45.0625 6.59375 53.4219
Q6.59375 63.0938 13.4062 68.6562
Q20.2188 74.2188 32.1719 74.2188
Q37.3125 74.2188 42.625 73.2812
Q47.9531 72.3594 53.5156 70.5156" id="BitstreamVeraSans-Roman-53"/>
     <path d="
M18.1094 8.20312
L18.1094 -20.7969
L9.07812 -20.7969
L9.07812 54.6875
L18.1094 54.6875
L18.1094 46.3906
Q20.9531 51.2656 25.2656 53.625
Q29.5938 56 35.5938 56
Q45.5625 56 51.7812 48.0938
Q58.0156 40.1875 58.0156 27.2969
Q58.0156 14.4062 51.7812 6.48438
Q45.5625 -1.42188 35.5938 -1.42188
Q29.5938 -1.42188 25.2656 0.953125
Q20.9531 3.32812 18.1094 8.20312
M48.6875 27.2969
Q48.6875 37.2031 44.6094 42.8438
Q40.5312 48.4844 33.4062 48.4844
Q26.2656 48.4844 22.1875 42.8438
Q18.1094 37.2031 18.1094 27.2969
Q18.1094 17.3906 22.1875 11.75
Q26.2656 6.10938 33.4062 6.10938
Q40.5312 6.10938 44.6094 11.75
Q48.6875 17.3906 48.6875 27.2969" id="BitstreamVeraSans-Roman-70"/>
    </defs>
    <g transform="translate(18.3984375 115.4203125)rotate(-90.0)scale(0.1 -0.1)">
     <use xlink:href="#BitstreamVeraSans-Roman-53"/>
     <use x="63.4765625" xlink:href="#BitstreamVeraSans-Roman-74"/>
     <use x="102.685546875" xlink:href="#BitstreamVeraSans-Roman-65"/>
     <use x="164.208984375" xlink:href="#BitstreamVeraSans-Roman-65"/>
     <use x="225.732421875" xlink:href="#BitstreamVeraSans-Roman-70"/>
     <use x="289.208984375" xlink:href="#BitstreamVeraSans-Roman-65"/>
     <use x="350.732421875" xlink:href="#BitstreamVeraSans-Roman-6e"/>
     <use x="414.111328125" xlink:href="#BitstreamVeraSans-Roman-65"/>
     <use x="475.634765625" xlink:href="#BitstreamVeraSans-Roman-72"/>
    </g>
   </g>
   <g id="text_6">
    <!-- Flattener -->
    <defs>
     <path d="
M9.8125 72.9062
L51.7031 72.9062
L51.7031 64.5938
L19.6719 64.5938
L19.6719 43.1094
L48.5781 43.1094
L48.5781 34.8125
L19.6719 34.8125
L19.6719 0
L9.8125 0
z
" id="BitstreamVeraSans-Roman-46"/>
    </defs>
    <g transform="translate(18.3984375 252.6734375)rotate(-90.0)scale(0.1 -0.1)">
     <use xlink:href="#BitstreamVeraSans-Roman-46"/>
     <use x="57.51953125" xlink:href="#BitstreamVeraSans-Roman-6c"/>
     <use x="85.302734375" xlink:href="#BitstreamVeraSans-Roman-61"/>
     <use x="146.58203125" xlink:href="#BitstreamVeraSans-Roman-74"/>
     <use x="185.791015625" xlink:href="#BitstreamVeraSans-Roman-74"/>
     <use x="225.0" xlink:href="#BitstreamVeraSans-Roman-65"/>
     <use x="286.5234375" xlink:href="#BitstreamVeraSans-Roman-6e"/>
     <use x="349.90234375" xlink:href="#BitstreamVeraSans-Roman-65"/>
     <use x="411.42578125" xlink:href="#BitstreamVeraSans-Roman-72"/>
    </g>
   </g>
   <g id="text_7">
    <!-- Steepener -->
    <g transform="translate(412.4796875 64.4015625)rotate(-270.0)scale(0.1 -0.1)">
     <use xlink:href="#BitstreamVeraSans-Roman-53"/>
     <use x="63.4765625" xlink:href="#BitstreamVeraSans-Roman-74"/>
     <use x="102.685546875" xlink:href="#BitstreamVeraSans-Roman-65"/>
     <use x="164.208984375" xlink:href="#BitstreamVeraSans-Roman-65"/>
     <use x="225.732421875" xlink:href="#BitstreamVeraSans-Roman-70"/>
     <use x="289.208984375" xlink:href="#BitstreamVeraSans-Roman-65"/>
     <use x="350.732421875" xlink:href="#BitstreamVeraSans-Roman-6e"/>
     <use x="414.111328125" xlink:href="#BitstreamVeraSans-Roman-65"/>
     <use x="475.634765625" xlink:href="#BitstreamVeraSans-Roman-72"/>
    </g>
   </g>
   <g id="text_8">
    <!-- Flattener -->
    <g transform="translate(412.4796875 208.4015625)rotate(-270.0)scale(0.1 -0.1)">
     <use xlink:href="#BitstreamVeraSans-Roman-46"/>
     <use x="57.51953125" xlink:href="#BitstreamVeraSans-Roman-6c"/>
     <use x="85.302734375" xlink:href="#BitstreamVeraSans-Roman-61"/>
     <use x="146.58203125" xlink:href="#BitstreamVeraSans-Roman-74"/>
     <use x="185.791015625" xlink:href="#BitstreamVeraSans-Roman-74"/>
     <use x="225.0" xlink:href="#BitstreamVeraSans-Roman-65"/>
     <use x="286.5234375" xlink:href="#BitstreamVeraSans-Roman-6e"/>
     <use x="349.90234375" xlink:href="#BitstreamVeraSans-Roman-65"/>
     <use x="411.42578125" xlink:href="#BitstreamVeraSans-Roman-72"/>
    </g>
   </g>
  </g>
  <g id="axes_2">
   <g id="patch_2">
    <path d="
M34.56 259.2
L401.76 259.2
L401.76 14.4
L34.56 14.4
z
" style="fill:#ffffff;"/>
   </g>
   <g id="PathCollection_1">
    <path clip-path="url(#p6a2b6ff79c)" d="
M324.437 138.831
C325.141 138.831 325.815 138.552 326.313 138.054
C326.81 137.557 327.09 136.882 327.09 136.179
C327.09 135.475 326.81 134.8 326.313 134.303
C325.815 133.805 325.141 133.526 324.437 133.526
C323.733 133.526 323.059 133.805 322.561 134.303
C322.064 134.8 321.784 135.475 321.784 136.179
C321.784 136.882 322.064 137.557 322.561 138.054
C323.059 138.552 323.733 138.831 324.437 138.831
z
" style="fill:#008000;fill-opacity:0.75;stroke:#000000;stroke-opacity:0.75;"/>
    <path clip-path="url(#p6a2b6ff79c)" d="
M320.564 124.377
C321.375 124.377 322.152 124.055 322.725 123.482
C323.299 122.909 323.621 122.131 323.621 121.321
C323.621 120.51 323.299 119.732 322.725 119.159
C322.152 118.586 321.375 118.264 320.564 118.264
C319.753 118.264 318.976 118.586 318.403 119.159
C317.83 119.732 317.507 120.51 317.507 121.321
C317.507 122.131 317.83 122.909 318.403 123.482
C318.976 124.055 319.753 124.377 320.564 124.377
z
" style="fill:#008000;fill-opacity:0.75;stroke:#000000;stroke-opacity:0.75;"/>
    <path clip-path="url(#p6a2b6ff79c)" d="
M300.562 108.091
C301.445 108.091 302.292 107.74 302.916 107.115
C303.541 106.491 303.892 105.643 303.892 104.76
C303.892 103.877 303.541 103.03 302.916 102.405
C302.292 101.781 301.445 101.43 300.562 101.43
C299.678 101.43 298.831 101.781 298.207 102.405
C297.582 103.03 297.231 103.877 297.231 104.76
C297.231 105.643 297.582 106.491 298.207 107.115
C298.831 107.74 299.678 108.091 300.562 108.091
z
" style="fill:#008000;fill-opacity:0.75;stroke:#000000;stroke-opacity:0.75;"/>
    <path clip-path="url(#p6a2b6ff79c)" d="
M284.585 138.779
C285.559 138.779 286.493 138.392 287.182 137.704
C287.87 137.015 288.257 136.081 288.257 135.107
C288.257 134.134 287.87 133.2 287.182 132.511
C286.493 131.823 285.559 131.436 284.585 131.436
C283.611 131.436 282.677 131.823 281.989 132.511
C281.3 133.2 280.913 134.134 280.913 135.107
C280.913 136.081 281.3 137.015 281.989 137.704
C282.677 138.392 283.611 138.779 284.585 138.779
z
" style="fill:#008000;fill-opacity:0.75;stroke:#000000;stroke-opacity:0.75;"/>
    <path clip-path="url(#p6a2b6ff79c)" d="
M46.8925 164.568
C47.0137 164.568 47.13 164.52 47.2157 164.434
C47.3014 164.348 47.3496 164.232 47.3496 164.111
C47.3496 163.989 47.3014 163.873 47.2157 163.787
C47.13 163.702 47.0137 163.654 46.8925 163.654
C46.7713 163.654 46.655 163.702 46.5693 163.787
C46.4836 163.873 46.4355 163.989 46.4355 164.111
C46.4355 164.232 46.4836 164.348 46.5693 164.434
C46.655 164.52 46.7713 164.568 46.8925 164.568
z
" style="fill:#008000;fill-opacity:0.75;stroke:#000000;stroke-opacity:0.75;"/>
    <path clip-path="url(#p6a2b6ff79c)" d="
M39.3168 156.496
C39.4492 156.496 39.5763 156.443 39.6699 156.35
C39.7636 156.256 39.8162 156.129 39.8162 155.997
C39.8162 155.864 39.7636 155.737 39.6699 155.643
C39.5763 155.55 39.4492 155.497 39.3168 155.497
C39.1843 155.497 39.0573 155.55 38.9636 155.643
C38.8699 155.737 38.8173 155.864 38.8173 155.997
C38.8173 156.129 38.8699 156.256 38.9636 156.35
C39.0573 156.443 39.1843 156.496 39.3168 156.496
z
" style="fill:#008000;fill-opacity:0.75;stroke:#000000;stroke-opacity:0.75;"/>
    <path clip-path="url(#p6a2b6ff79c)" d="
M42.7138 162.371
C42.868 162.371 43.016 162.309 43.125 162.2
C43.2341 162.091 43.2953 161.943 43.2953 161.789
C43.2953 161.635 43.2341 161.487 43.125 161.378
C43.016 161.269 42.868 161.208 42.7138 161.208
C42.5596 161.208 42.4117 161.269 42.3026 161.378
C42.1936 161.487 42.1323 161.635 42.1323 161.789
C42.1323 161.943 42.1936 162.091 42.3026 162.2
C42.4117 162.309 42.5596 162.371 42.7138 162.371
z
" style="fill:#008000;fill-opacity:0.75;stroke:#000000;stroke-opacity:0.75;"/>
    <path clip-path="url(#p6a2b6ff79c)" d="
M157.701 209.178
C157.859 209.178 158.012 209.114 158.124 209.002
C158.236 208.89 158.299 208.738 158.299 208.579
C158.299 208.42 158.236 208.268 158.124 208.156
C158.012 208.044 157.859 207.981 157.701 207.981
C157.542 207.981 157.39 208.044 157.278 208.156
C157.165 208.268 157.102 208.42 157.102 208.579
C157.102 208.738 157.165 208.89 157.278 209.002
C157.39 209.114 157.542 209.178 157.701 209.178
z
" style="fill:#008000;fill-opacity:0.75;stroke:#000000;stroke-opacity:0.75;"/>
    <path clip-path="url(#p6a2b6ff79c)" d="
M39.219 114.98
C39.9478 114.98 40.6468 114.69 41.1622 114.175
C41.6776 113.66 41.9671 112.961 41.9671 112.232
C41.9671 111.503 41.6776 110.804 41.1622 110.289
C40.6468 109.773 39.9478 109.484 39.219 109.484
C38.4901 109.484 37.7911 109.773 37.2757 110.289
C36.7604 110.804 36.4708 111.503 36.4708 112.232
C36.4708 112.961 36.7604 113.66 37.2757 114.175
C37.7911 114.69 38.4901 114.98 39.219 114.98
z
" style="fill:#008000;fill-opacity:0.75;stroke:#000000;stroke-opacity:0.75;"/>
    <path clip-path="url(#p6a2b6ff79c)" d="
M217.056 39.532
C218.548 39.532 219.98 38.939 221.035 37.8837
C222.091 36.8283 222.684 35.3967 222.684 33.9043
C222.684 32.4118 222.091 30.9802 221.035 29.9249
C219.98 28.8695 218.548 28.2765 217.056 28.2765
C215.563 28.2765 214.132 28.8695 213.076 29.9249
C212.021 30.9802 211.428 32.4118 211.428 33.9043
C211.428 35.3967 212.021 36.8283 213.076 37.8837
C214.132 38.939 215.563 39.532 217.056 39.532
z
" style="fill:#008000;fill-opacity:0.75;stroke:#000000;stroke-opacity:0.75;"/>
    <path clip-path="url(#p6a2b6ff79c)" d="
M63.3473 102.28
C65.0489 102.28 66.6811 101.604 67.8843 100.401
C69.0876 99.1979 69.7636 97.5657 69.7636 95.8641
C69.7636 94.1624 69.0876 92.5303 67.8843 91.327
C66.6811 90.1238 65.0489 89.4477 63.3473 89.4477
C61.6457 89.4477 60.0135 90.1238 58.8103 91.327
C57.607 92.5303 56.931 94.1624 56.931 95.8641
C56.931 97.5657 57.607 99.1979 58.8103 100.401
C60.0135 101.604 61.6457 102.28 63.3473 102.28
z
" style="fill:#008000;fill-opacity:0.75;stroke:#000000;stroke-opacity:0.75;"/>
    <path clip-path="url(#p6a2b6ff79c)" d="
M38.658 123.723
C40.6616 123.723 42.5834 122.927 44.0001 121.511
C45.4169 120.094 46.2129 118.172 46.2129 116.168
C46.2129 114.165 45.4169 112.243 44.0001 110.826
C42.5834 109.409 40.6616 108.613 38.658 108.613
C36.6544 108.613 34.7326 109.409 33.3158 110.826
C31.899 112.243 31.103 114.165 31.103 116.168
C31.103 118.172 31.899 120.094 33.3158 121.511
C34.7326 122.927 36.6544 123.723 38.658 123.723
z
" style="fill:#008000;fill-opacity:0.75;stroke:#000000;stroke-opacity:0.75;"/>
    <path clip-path="url(#p6a2b6ff79c)" d="
M275.06 166.292
C275.574 166.292 276.067 166.087 276.43 165.724
C276.794 165.361 276.998 164.868 276.998 164.354
C276.998 163.84 276.794 163.347 276.43 162.984
C276.067 162.62 275.574 162.416 275.06 162.416
C274.546 162.416 274.053 162.62 273.69 162.984
C273.327 163.347 273.123 163.84 273.123 164.354
C273.123 164.868 273.327 165.361 273.69 165.724
C274.053 166.087 274.546 166.292 275.06 166.292
z
" style="fill:#008000;fill-opacity:0.75;stroke:#000000;stroke-opacity:0.75;"/>
    <path clip-path="url(#p6a2b6ff79c)" d="
M314.123 142.218
C314.675 142.218 315.205 141.999 315.596 141.608
C315.987 141.217 316.206 140.687 316.206 140.135
C316.206 139.582 315.987 139.052 315.596 138.662
C315.205 138.271 314.675 138.051 314.123 138.051
C313.57 138.051 313.04 138.271 312.649 138.662
C312.259 139.052 312.039 139.582 312.039 140.135
C312.039 140.687 312.259 141.217 312.649 141.608
C313.04 141.999 313.57 142.218 314.123 142.218
z
" style="fill:#008000;fill-opacity:0.75;stroke:#000000;stroke-opacity:0.75;"/>
    <path clip-path="url(#p6a2b6ff79c)" d="
M291.527 158.364
C292.485 158.364 293.403 157.984 294.081 157.307
C294.758 156.63 295.138 155.711 295.138 154.754
C295.138 153.796 294.758 152.878 294.081 152.201
C293.403 151.524 292.485 151.143 291.527 151.143
C290.57 151.143 289.651 151.524 288.974 152.201
C288.297 152.878 287.917 153.796 287.917 154.754
C287.917 155.711 288.297 156.63 288.974 157.307
C289.651 157.984 290.57 158.364 291.527 158.364
z
" style="fill:#008000;fill-opacity:0.75;stroke:#000000;stroke-opacity:0.75;"/>
    <path clip-path="url(#p6a2b6ff79c)" d="
M314.154 153.067
C315.284 153.067 316.367 152.618 317.165 151.82
C317.964 151.021 318.412 149.938 318.412 148.809
C318.412 147.68 317.964 146.596 317.165 145.798
C316.367 144.999 315.284 144.551 314.154 144.551
C313.025 144.551 311.942 144.999 311.143 145.798
C310.345 146.596 309.896 147.68 309.896 148.809
C309.896 149.938 310.345 151.021 311.143 151.82
C311.942 152.618 313.025 153.067 314.154 153.067
z
" style="fill:#008000;fill-opacity:0.75;stroke:#000000;stroke-opacity:0.75;"/>
   </g>
   <g id="patch_3">
    <path d="
M34.56 14.4
L401.76 14.4" style="fill:none;"/>
   </g>
   <g id="patch_4">
    <path d="
M401.76 259.2
L401.76 14.4" style="fill:none;"/>
   </g>
   <g id="patch_5">
    <path d="
M34.56 136.8
L401.76 136.8" style="fill:none;stroke:#000000;stroke-linecap:square;stroke-linejoin:miter;"/>
   </g>
   <g id="patch_6">
    <path d="
M218.16 259.2
L218.16 14.4" style="fill:none;stroke:#000000;stroke-linecap:square;stroke-linejoin:miter;"/>
   </g>
   <g id="matplotlib.axis_1">
    <g id="xtick_1">
     <g id="line2d_1">
      <defs>
       <path d="
M0 0
L0 -4" id="m93b0483c22" style="stroke:#000000;stroke-width:0.5;"/>
      </defs>
      <g>
       <use style="stroke:#000000;stroke-width:0.5;" x="34.56" xlink:href="#m93b0483c22" y="136.8"/>
      </g>
     </g>
     <g id="text_9">
      <!-- −1.0 -->
      <defs>
       <path d="
M10.5938 35.5
L73.1875 35.5
L73.1875 27.2031
L10.5938 27.2031
z
" id="BitstreamVeraSans-Roman-2212"/>
       <path d="
M31.7812 66.4062
Q24.1719 66.4062 20.3281 58.9062
Q16.5 51.4219 16.5 36.375
Q16.5 21.3906 20.3281 13.8906
Q24.1719 6.39062 31.7812 6.39062
Q39.4531 6.39062 43.2812 13.8906
Q47.125 21.3906 47.125 36.375
Q47.125 51.4219 43.2812 58.9062
Q39.4531 66.4062 31.7812 66.4062
M31.7812 74.2188
Q44.0469 74.2188 50.5156 64.5156
Q56.9844 54.8281 56.9844 36.375
Q56.9844 17.9688 50.5156 8.26562
Q44.0469 -1.42188 31.7812 -1.42188
Q19.5312 -1.42188 13.0625 8.26562
Q6.59375 17.9688 6.59375 36.375
Q6.59375 54.8281 13.0625 64.5156
Q19.5312 74.2188 31.7812 74.2188" id="BitstreamVeraSans-Roman-30"/>
       <path d="
M12.4062 8.29688
L28.5156 8.29688
L28.5156 63.9219
L10.9844 60.4062
L10.9844 69.3906
L28.4219 72.9062
L38.2812 72.9062
L38.2812 8.29688
L54.3906 8.29688
L54.3906 0
L12.4062 0
z
" id="BitstreamVeraSans-Roman-31"/>
       <path d="
M10.6875 12.4062
L21 12.4062
L21 0
L10.6875 0
z
" id="BitstreamVeraSans-Roman-2e"/>
      </defs>
      <g transform="translate(23.2803125 148.3984375)scale(0.1 -0.1)">
       <use xlink:href="#BitstreamVeraSans-Roman-2212"/>
       <use x="83.7890625" xlink:href="#BitstreamVeraSans-Roman-31"/>
       <use x="147.412109375" xlink:href="#BitstreamVeraSans-Roman-2e"/>
       <use x="179.19921875" xlink:href="#BitstreamVeraSans-Roman-30"/>
      </g>
     </g>
    </g>
    <g id="xtick_2">
     <g id="line2d_2">
      <g>
       <use style="stroke:#000000;stroke-width:0.5;" x="126.36" xlink:href="#m93b0483c22" y="136.8"/>
      </g>
     </g>
     <g id="text_10">
      <!-- −0.5 -->
      <defs>
       <path d="
M10.7969 72.9062
L49.5156 72.9062
L49.5156 64.5938
L19.8281 64.5938
L19.8281 46.7344
Q21.9688 47.4688 24.1094 47.8281
Q26.2656 48.1875 28.4219 48.1875
Q40.625 48.1875 47.75 41.5
Q54.8906 34.8125 54.8906 23.3906
Q54.8906 11.625 47.5625 5.09375
Q40.2344 -1.42188 26.9062 -1.42188
Q22.3125 -1.42188 17.5469 -0.640625
Q12.7969 0.140625 7.71875 1.70312
L7.71875 11.625
Q12.1094 9.23438 16.7969 8.0625
Q21.4844 6.89062 26.7031 6.89062
Q35.1562 6.89062 40.0781 11.3281
Q45.0156 15.7656 45.0156 23.3906
Q45.0156 31 40.0781 35.4375
Q35.1562 39.8906 26.7031 39.8906
Q22.75 39.8906 18.8125 39.0156
Q14.8906 38.1406 10.7969 36.2812
z
" id="BitstreamVeraSans-Roman-35"/>
      </defs>
      <g transform="translate(115.185 148.3984375)scale(0.1 -0.1)">
       <use xlink:href="#BitstreamVeraSans-Roman-2212"/>
       <use x="83.7890625" xlink:href="#BitstreamVeraSans-Roman-30"/>
       <use x="147.412109375" xlink:href="#BitstreamVeraSans-Roman-2e"/>
       <use x="179.19921875" xlink:href="#BitstreamVeraSans-Roman-35"/>
      </g>
     </g>
    </g>
    <g id="xtick_3">
     <g id="line2d_3">
      <g>
       <use style="stroke:#000000;stroke-width:0.5;" x="218.16" xlink:href="#m93b0483c22" y="136.8"/>
      </g>
     </g>
     <g id="text_11">
      <!-- 0.0 -->
      <g transform="translate(210.87015625 148.3984375)scale(0.1 -0.1)">
       <use xlink:href="#BitstreamVeraSans-Roman-30"/>
       <use x="63.623046875" xlink:href="#BitstreamVeraSans-Roman-2e"/>
       <use x="95.41015625" xlink:href="#BitstreamVeraSans-Roman-30"/>
      </g>
     </g>
    </g>
    <g id="xtick_4">
     <g id="line2d_4">
      <g>
       <use style="stroke:#000000;stroke-width:0.5;" x="309.96" xlink:href="#m93b0483c22" y="136.8"/>
      </g>
     </g>
     <g id="text_12">
      <!-- 0.5 -->
      <g transform="translate(302.77484375 148.3984375)scale(0.1 -0.1)">
       <use xlink:href="#BitstreamVeraSans-Roman-30"/>
       <use x="63.623046875" xlink:href="#BitstreamVeraSans-Roman-2e"/>
       <use x="95.41015625" xlink:href="#BitstreamVeraSans-Roman-35"/>
      </g>
     </g>
    </g>
    <g id="xtick_5">
     <g id="line2d_5">
      <g>
       <use style="stroke:#000000;stroke-width:0.5;" x="401.76" xlink:href="#m93b0483c22" y="136.8"/>
      </g>
     </g>
     <g id="text_13">
      <!-- 1.0 -->
      <g transform="translate(394.6896875 148.3984375)scale(0.1 -0.1)">
       <use xlink:href="#BitstreamVeraSans-Roman-31"/>
       <use x="63.623046875" xlink:href="#BitstreamVeraSans-Roman-2e"/>
       <use x="95.41015625" xlink:href="#BitstreamVeraSans-Roman-30"/>
      </g>
     </g>
    </g>
   </g>
   <g id="matplotlib.axis_2">
    <g id="ytick_1">
     <g id="line2d_6">
      <defs>
       <path d="
M0 0
L4 0" id="m728421d6d4" style="stroke:#000000;stroke-width:0.5;"/>
      </defs>
      <g>
       <use style="stroke:#000000;stroke-width:0.5;" x="218.16" xlink:href="#m728421d6d4" y="259.2"/>
      </g>
     </g>
     <g id="text_14">
      <!-- −1.0 -->
      <g transform="translate(191.600625 261.959375)scale(0.1 -0.1)">
       <use xlink:href="#BitstreamVeraSans-Roman-2212"/>
       <use x="83.7890625" xlink:href="#BitstreamVeraSans-Roman-31"/>
       <use x="147.412109375" xlink:href="#BitstreamVeraSans-Roman-2e"/>
       <use x="179.19921875" xlink:href="#BitstreamVeraSans-Roman-30"/>
      </g>
     </g>
    </g>
    <g id="ytick_2">
     <g id="line2d_7">
      <g>
       <use style="stroke:#000000;stroke-width:0.5;" x="218.16" xlink:href="#m728421d6d4" y="198.0"/>
      </g>
     </g>
     <g id="text_15">
      <!-- −0.5 -->
      <g transform="translate(191.81 200.759375)scale(0.1 -0.1)">
       <use xlink:href="#BitstreamVeraSans-Roman-2212"/>
       <use x="83.7890625" xlink:href="#BitstreamVeraSans-Roman-30"/>
       <use x="147.412109375" xlink:href="#BitstreamVeraSans-Roman-2e"/>
       <use x="179.19921875" xlink:href="#BitstreamVeraSans-Roman-35"/>
      </g>
     </g>
    </g>
    <g id="ytick_3">
     <g id="line2d_8">
      <g>
       <use style="stroke:#000000;stroke-width:0.5;" x="218.16" xlink:href="#m728421d6d4" y="136.8"/>
      </g>
     </g>
     <g id="text_16">
      <!-- 0.0 -->
      <g transform="translate(199.5803125 139.559375)scale(0.1 -0.1)">
       <use xlink:href="#BitstreamVeraSans-Roman-30"/>
       <use x="63.623046875" xlink:href="#BitstreamVeraSans-Roman-2e"/>
       <use x="95.41015625" xlink:href="#BitstreamVeraSans-Roman-30"/>
      </g>
     </g>
    </g>
    <g id="ytick_4">
     <g id="line2d_9">
      <g>
       <use style="stroke:#000000;stroke-width:0.5;" x="218.16" xlink:href="#m728421d6d4" y="75.6"/>
      </g>
     </g>
     <g id="text_17">
      <!-- 0.5 -->
      <g transform="translate(199.7896875 78.359375)scale(0.1 -0.1)">
       <use xlink:href="#BitstreamVeraSans-Roman-30"/>
       <use x="63.623046875" xlink:href="#BitstreamVeraSans-Roman-2e"/>
       <use x="95.41015625" xlink:href="#BitstreamVeraSans-Roman-35"/>
      </g>
     </g>
    </g>
    <g id="ytick_5">
     <g id="line2d_10">
      <g>
       <use style="stroke:#000000;stroke-width:0.5;" x="218.16" xlink:href="#m728421d6d4" y="14.4"/>
      </g>
     </g>
     <g id="text_18">
      <!-- 1.0 -->
      <g transform="translate(200.019375 17.159375)scale(0.1 -0.1)">
       <use xlink:href="#BitstreamVeraSans-Roman-31"/>
       <use x="63.623046875" xlink:href="#BitstreamVeraSans-Roman-2e"/>
       <use x="95.41015625" xlink:href="#BitstreamVeraSans-Roman-30"/>
      </g>
     </g>
    </g>
   </g>
  </g>
 </g>
 <defs>
  <clipPath id="p6a2b6ff79c">
   <rect height="244.8" width="367.2" x="34.56" y="14.4"/>
  </clipPath>
 </defs>
</svg>
